<?xml version="1.0" encoding="UTF-8"?>
<svg id="a" data-name="Livello 1" xmlns="http://www.w3.org/2000/svg" width="1692.75194" height="1936.70431" viewBox="0 0 1692.75194 1936.70431">
  <defs>
    <style>
      .b {
        fill: #ed6224;
      }

      .c {
        fill: #fff;
      }

      .d {
        fill: #15192e;
      }
    </style>
  </defs>
  <path class="d" d="m1574.00228,1350.96359c.7,4.62-3.07,10.79-8.61,8.61-1.92-.75-3.79-1.56-5.66-2.4,3.29,38.18,4.21,76.56,2.18,114.85-.77,14.47-1.22,29-4.77,43.1-3.38,13.44-8.31,26.59-14.69,38.89-4.08,7.88-8.88,15.39-14.4,22.31,5.67,14.86,8.63,30.69,12.99,45.95.88,3.08-.25,5.53-2.18,7.02-1.95,2.08-4.98,2.95-8.1.88-12.62-8.36-26.41-15.4-38.43-24.67-5.69,2.72-11.63,4.86-17.74,6.44-1.42,7.57-3.58,15.01-6.08,22.29-3.3,9.63-7.09,19.38-13.43,27.43-2.2,2.8-7.65,2.66-9.9,0-6.19-7.33-10.26-16.34-14.08-25.06-3.08-7.07-6.07-14.25-8.52-21.58-8-.21-15.99-.6-23.95-1.27-7.89,16.11-17.86,31.02-29.59,44.62-3.31,3.84-10.75,1.94-11.7-3.09-3.22-17.01-4.74-34.24-4.44-51.54-5.11-2.46-9.87-5.57-14.11-9.55-3.98-3.74-7.23-8.06-9.95-12.72-.52,29.9-.44,59.82-1.46,89.72-1.09,32.37-2.54,65.62-10.71,97.11-4.34,16.72-11.11,35.65-27.29,44.36-14.42,7.76-32.17,9.82-48.3,10.2-44.61,1.05-89.25.14-133.85-.85-22.82-.51-45.65-1.06-68.47-1.44-20.88-.35-41.14-1.91-59.83-12.19-31.93-17.55-41.51-54.37-45.51-88.01-2.54-21.29-3.66-42.79-5.32-64.16-1.86-23.8-3.71-47.59-5.56-71.39s-3.69-47.6-5.55-71.39c-1.49-18.9-2.99-38.78-10.9-56.29-6.61-14.61-18.45-28.66-35.16-31.16-14-2.09-27.54,4.98-36.16,15.74-5.42,6.78-8.77,15.21-11.93,23.22-3.52,8.92-6.46,18.07-8.83,27.36-2.48,9.71-4.31,19.54-5.72,29.43s-2.4,19.85-3.19,29.83c-.21,1.81-.42,3.63-.64,5.44v.01c.92,43.22.26,86.46-.43,129.68-.08,4.86-4.79,7.76-8.93,6.65-.67,7.41-1.41,14.81-2.2,22.2-.02,6.64-.34,13.28-1.13,19.88-2.49,20.61-9.15,40.75-23.3,56.35-11.14,12.28-26.21,20.29-42.03,24.77-14.2,4.02-29.1,5.37-43.8,5.8-18.9.55-37.81,1.27-56.7,1.67-30.14.64-60.27-.06-90.4-.68-14.76-.31-29.53-.55-44.3-.53-13.08.02-26.26.49-39.25-1.38-50.93-7.34-70.48-63.21-75.2-107.57-4.44-41.62.52-83.16,2.3-124.76-5.9,6.23-12.85,11.34-20.46,15.35-.51,8.62-2.29,17.27-4.31,25.58-2.34,9.64-5.18,19.58-10.01,28.3-1.51,2.72-3.93,3.66-6.28,3.4-1.6.01-3.24-.57-4.72-1.99-12.04-11.61-20.24-27.79-24.87-43.96-.28,0-.55,0-.83-.01-2.57-.07-5.11-.23-7.65-.47-8.55,12.67-19.54,23.19-31.72,32.44-3.78,2.88-9.06-.33-10.28-4.18-4.44-14.01-6.51-28.31-4.94-42.81-1.36-.77-2.7-1.56-4.03-2.38-12.63,8.94-27.58,17.3-42.45,20.91-5.55,1.34-9.48-3.39-8.61-8.62,2.57-15.4,8.5-31.45,15.98-45.41-21.96-30.13-32.74-67-38.53-103.53-7.55-47.63-9.36-96.49-8.71-144.64.59-44.38,4.08-88.66,10.1-132.61-4.76,4.64-9.68,9.14-14.75,13.47-4.71,4.02-14.57.3-11.7-6.81,28.81-71.54,43.28-148.1,76.66-217.9,10.76-31.39,22.86-62.29,36.23-92.66-7.97,2.68-16.24,4.58-24.79,5.68-5.18.66-8.86-6.47-6.04-10.53,14.9-21.51,33.57-39.82,50.61-59.56,16.58-19.22,29.09-41.39,44.74-61.31,12.59-21.72,25.54-43.23,38.44-64.76,42.08-70.2,84.28-141.5,109.64-219.65-3.58,1.45-7.3,2.63-11.21,3.46-4.89,1.04-10.43-3.24-8.62-8.61,4.56-13.5,8.79-27.11,12.98-40.73,8.29-26.89,16.45-53.83,25.83-80.37,8.71-24.63,18.3-49.26,31.27-72q0-.01.01-.02c3.68-8.22,7.78-16.24,12.47-23.93,31.29-51.33,83.72-84.23,139.34-103.96,58.43-20.72,122.08-29.21,183.89-29.85,65.77-.68,134.05,10.11,190.84,45.1,53.41,32.91,90.1,84.86,116.66,140.67,28.02,58.9,46.74,121.65,70.06,182.43.18.37.33.78.46,1.21.02.06.04.11.06.17.18.45.29.88.37,1.31,4.58,15.76,13.42,29.78,22.76,43.14,11.15,15.96,23.18,31.27,33.94,47.51,3.75,5.66-2.46,11.06-7.91,10.28-2.46-.35-4.93-.76-7.39-1.2,8.01,18.29,16.18,36.5,24.47,54.66,4.9,10.74,9.84,21.46,14.8,32.16,2.35,5.06,4.7,10.11,7.06,15.17,2.12,4.53,3.89,10.07,6.66,14.24,0,.01.01.01.01.02,6.32,9.94,11.79,20.32,17.54,30.59,5.77,10.28,12.45,19.77,19.49,29.21,14.49,19.44,28.91,39.44,46.77,55.98,4.63,4.29.85,11.74-4.94,11.95-6.51.23-13-.12-19.39-1.02,17.7,38.23,35.02,76.63,51.46,115.41.12.22.22.45.32.68,8.99,21.43,19.23,41.9,31.88,61.45,2.13,3.3.42,8.25-2.98,9.95,11.42,29.79,22.13,59.86,31.89,90.23,9.75,30.37,18.56,61.04,26.19,92.04,15.62,50.56,33.16,100.69,41.15,153.2Zm-25.33,102.35c1-34.73-.37-69.49-3.65-104.07-14.59-9.24-26.98-21.58-36.31-36.49-4.8-7.67,7.32-14.69,12.09-7.06,9.21,14.73,22.14,26.98,37.36,35.27-8.68-47.25-24.35-92.76-38.54-138.6-.1-.28-.19-.57-.27-.88,0-.02-.01-.05-.02-.07-.07-.25-.14-.51-.19-.75-15.71-63.66-36.39-125.97-60.05-187.09-22.84-6.81-41.11-24.88-55.84-43.23-2.35-2.93-2.94-7.02,0-9.9,2.5-2.44,7.52-2.97,9.9,0,11.51,14.33,26.04,30.47,43.77,37.83-7.93-13.78-14.82-27.98-21.19-42.6-.15-.29-.3-.58-.43-.89-18.48-43.94-38.22-87.33-58.33-130.55-17.56-5.32-33.8-14.86-46.98-27.9-6.42-6.35,3.48-16.24,9.9-9.9,12.04,11.91,26.84,20.39,42.84,24.9.99-.01,1.96.23,2.84.76,3.37.84,6.79,1.51,10.24,2-12.77-14.02-24.02-29.53-35.3-44.67-7.2-9.66-14.16-19.33-20.08-29.84-5.89-10.45-11.43-21.05-17.87-31.18,0-.01-.01-.01-.01-.02-2.97-4.45-4.84-10.31-7.11-15.18-2.35-5.05-4.7-10.11-7.05-15.16-4.83-10.41-9.63-20.83-14.39-31.27-9.66-21.17-19.17-42.41-28.44-63.75-.22-.51-.4-1.03-.53-1.56-8.34-2.14-16.55-4.74-24.55-7.81-15.73-6.02-32.36-13.91-43.29-27.17-5.69-6.91,4.16-16.86,9.9-9.9,10,12.13,25.26,19.25,39.73,24.56,9.3,3.41,18.87,6.23,28.57,8.41-18.82-25.73-40.64-51.02-49.06-81.88-.01-.02-.01-.03-.01-.04-3.54-9.18-7.02-18.39-10.41-27.63-21.15-57.55-39.35-116.59-67.88-171.09-28.09-53.63-67.07-100.68-121.99-128.14-57.49-28.76-123.85-34.76-187.21-31.66-59.39,2.91-119.87,12.65-175.05,35.49-25.95,10.74-50.97,24.91-72.34,43.23-22.67,19.43-40.37,43.08-52.74,70.22-.14.39-.31.78-.54,1.17-.02.03-.03.06-.05.09-.16.36-.35.68-.55.99-6.59,11.67-12.27,23.85-17.37,36.24-18.64,45.32-31.26,92.73-46.36,139.28,10.02-4.95,18.6-12.59,26.34-20.79,11.54-12.25,21.4-25.92,32.18-38.82,5.79-6.92,15.65,3.04,9.9,9.9-14.83,17.74-29.42,39.74-48.64,54.12-6.75,22.89-14.99,45.28-24.32,67.25-35,82.41-84.75,157.29-129.51,234.49-.37.64-.79,1.16-1.25,1.61-15.71,19.75-28.03,41.88-44.47,61.1-12.73,14.88-26.61,28.82-38.95,44.02,5.72-1.7,11.31-3.88,16.69-6.49.98-1.08,2.2-1.64,3.47-1.76,5.58-2.96,10.91-6.4,15.86-10.28,2.95-2.32,6.99-2.97,9.89,0,2.42,2.47,3,7.54,0,9.9-6.01,4.71-12.32,8.82-18.9,12.33-15.7,34.37-29.66,69.5-41.89,105.25-.12.36-.27.68-.42.99-.09.23-.18.45-.29.68-28.87,60.01-43.27,125.31-65.32,187.88,2.28-2.38,4.52-4.79,6.72-7.24.27-.39.59-.74.95-1.06,8.15-9.15,15.74-18.8,22.7-28.94,5.08-7.38,17.2-.37,12.09,7.07-7.18,10.45-14.95,20.44-23.28,29.93-8.4,53.85-12.74,108.33-12.81,162.84-.05,44.94,1.65,90.75,9.46,135.1,6.5,36.9,18.33,74.83,44.05,103.08,20.63,22.67,49.44,34.69,80.09,33.77,5.04-.19,10.05-.72,14.99-1.64.06-.02.12-.03.18-.04.41-.08.81-.16,1.22-.24,21.01-4.42,39.73-16.35,49.18-36.52,1.17-31.02,2.16-62.04,3.01-93.07-1.97,1.18-3.98,2.33-6.02,3.41-6.48,3.41-12.53-3.32-9.58-9.58,16.9-35.88,16.01-76.73,18.26-115.45v-.02c.33-19.81.61-39.62.85-59.43.41-34.39.09-68.83,1.43-103.19,1.16-29.9,3.64-59.74,7.28-89.45-4.5,2.31-9.15,4.37-13.93,6.15-6.2,2.32-10.34-5.35-7.91-10.28,8.79-17.85,17.69-35.7,25.03-54.21,6.3-15.91,11.29-32.24,15.18-48.88.5-2.25,1-4.49,1.52-6.74.13-.61.27-1.22.4-1.83.05-.26.12-.52.2-.76,10.74-46.55,24.24-92.41,40.52-137.34,3.05-8.42,16.58-4.76,13.5,3.72-16.58,45.78-30.3,92.53-41.14,139.99-.48,2.23-.98,4.47-1.5,6.7-.21.94-.42,1.87-.63,2.81-.07.35-.17.67-.28.98-3.88,15.82-8.77,31.35-14.84,46.51-5.14,12.81-10.92,25.34-16.91,37.77,9.36-5.53,17.86-12.44,25.32-20.49,6.14-6.63,16.02,3.3,9.9,9.9-5.85,6.32-12.3,11.94-19.25,16.84-2.38,18.16-4.35,36.38-5.83,54.65-2.76,34.21-3.29,68.42-3.6,102.73-.31,34.53-.74,69.06-1.3,103.58-.01.09,0,.18-.01.27-1.97,34.03-2.13,68.87-12.1,101.48,9.6-7.58,17.91-16.69,24.6-27.14,4.85-7.57,16.96-.54,12.09,7.07-7.36,11.5-16.46,21.71-26.97,30.24-.92,34.87-2.03,69.74-3.35,104.6-.01,5.2-.13,10.4-.32,15.6-1.76,47.79-8.77,96.47-1.17,144.08,3.4,21.31,9.89,43.39,23.98,60.23,6.81,8.15,15.21,15.65,25.21,19.59,10.02,3.95,20.91,4.35,31.55,4.47,27.81.3,55.61.38,83.42.95,30.28.62,60.55.79,90.81-.4,27.83-1.1,56.07.84,82.18-8.44,13.38-4.75,26.03-13.32,34.35-25.55,11.76-17.28,15.03-38.48,15.2-58.98-.02-.29-.02-.57.01-.86,0-.57.06-1.1.17-1.6,1.15-10.86,2.18-21.73,3.06-32.61-11.07-12.35-20.5-26.11-27.99-40.94-4.06-8.03,8.02-15.11,12.09-7.07,6.58,13.04,14.62,25.1,24.07,36.07.56-37.17.94-74.35.18-111.52-.04-.29-.05-.58-.02-.86v-.02c-.01-.75.08-1.43.24-2.05.14-1.13.27-2.25.4-3.38.84-10.57,1.91-21.12,3.37-31.62,2.62-18.76,6.81-37.28,13.46-55.05,6.18-16.51,13.23-32.49,27.82-43.21,12.15-8.93,28.07-12.25,42.69-8.37,16.98,4.5,30.19,17.99,38.05,33.26,8.86,17.24,11.77,36.63,13.56,55.71,2.18,23.18,3.68,46.44,5.49,69.65,3.6,46.35,6.54,92.81,10.89,139.1,3.08,32.75,10.13,70.78,42.53,86.81,19.11,9.46,40.18,8.54,60.9,8.93,22.6.43,45.2.98,67.8,1.47,22.61.48,45.23.9,67.86,1.03,20.81.12,41.91.72,62.68-.69,14.45-.98,32.96-3.31,42.69-15.25,10.28-12.61,13.48-31.24,16.18-46.89,5.77-33.49,6.37-67.93,6.98-101.82.6-32.92.13-65.9,1.89-98.79v-.02c2.52-47.2,2.91-94.48,1.49-141.73-13.67-7.14-24.97-19.72-34.82-32.05-2.35-2.93-2.95-7.01,0-9.9,2.49-2.43,7.52-2.97,9.9,0,8.94,11.2,20.22,25.49,34.26,31.4.22.08.44.17.65.26,3.18,1.28,6.5,2.11,9.97,2.38-14.72-44.53-22.21-90.38-29.82-136.65,0-.03-.01-.06-.02-.09-2.14-12.84-2.91-26.04-4.51-38.96-1.59-12.8-3.28-25.59-5.1-38.35-3.61-25.41-7.79-50.73-11.95-76.06-6.33-6.98-12.13-14.45-17.32-22.38-4.96-7.56,7.16-14.57,12.08-7.06,4.69,7.14,9.92,13.86,15.61,20.14,1.01.52,1.84,1.38,2.39,2.59,6.32,6.67,13.2,12.8,20.56,18.33-8.81-23.22-19.85-45.55-29.15-68.59-11.4-28.25-18.75-57.92-28.13-86.86-.22-.48-.39-1.01-.52-1.6v-.01c-.19-.58-.3-1.15-.35-1.68-7.82-38.05-18.37-77.27-38.25-110.91-4.6-7.78,7.5-14.81,12.09-7.06,10.39,17.57,18.37,36.62,24.76,56.24,6.4,19.63,11.21,39.82,15.25,59.69,9.64,29.45,17.06,59.69,28.65,88.47,11.8,29.29,26.46,57.38,35.73,87.66,1.82,5.93-5.12,10.88-10.28,7.9-9.37-5.4-18.17-11.64-26.34-18.59,3.04,18.66,6.01,37.33,8.67,56.06,1.85,13.04,3.6,26.1,5.24,39.17,1.57,12.59,2.28,25.52,4.35,38.02.01.02.01.04.02.06,8.08,49.19,16.03,97.92,32.66,145.08,1.16,3.29-1.33,8.02-4.89,8.61-6.11,1.02-11.84.85-17.25-.21,1.23,45.3.8,90.63-1.59,135.88,2.49,8.95,5.21,18.12,8.97,25.65,5.61,11.23,13.3,18.02,24.33,22.3,9.7,3.31,19.68,5.33,29.88,6.29.99-.07,2,.09,2.96.47.21.06.41.13.61.22,9.71.96,19.56,1.27,29.33,1.36.53-.13,1.09-.2,1.67-.18,1.89.06,3.81.13,5.74.21,4.97,0,9.91-.02,14.78-.02,17.54-.1,34.3-4.88,48.55-14.51,6.68-4.65,12.58-10.2,18.05-16.38,15.44-17.95,24.76-40.55,29.82-63.38.46-2.06.98-4.16,1.23-6.26,1.82-15.64,2.32-31.71,2.77-47.47Z"/>
  <path class="c" d="m1545.02228,1349.24359c3.28,34.58,4.65,69.34,3.65,104.07-.45,15.76-.95,31.83-2.77,47.47-.25,2.1-.77,4.2-1.23,6.26-5.06,22.83-14.38,45.43-29.82,63.38-5.47,6.18-11.37,11.73-18.05,16.38-14.25,9.63-31.01,14.41-48.55,14.51-4.87,0-9.81.02-14.78.02-1.93-.08-3.85-.15-5.74-.21-.58-.02-1.14.05-1.67.18-9.77-.09-19.62-.4-29.33-1.36-.2-.09-.4-.16-.61-.22-.96-.38-1.97-.54-2.96-.47-10.2-.96-20.18-2.98-29.88-6.29-11.03-4.28-18.72-11.07-24.33-22.3-3.76-7.53-6.48-16.7-8.97-25.65,2.39-45.25,2.82-90.58,1.59-135.88,5.41,1.06,11.14,1.23,17.25.21,3.56-.59,6.05-5.32,4.89-8.61-16.63-47.16-24.58-95.89-32.66-145.08-.01-.02-.01-.04-.02-.06-2.07-12.5-2.78-25.43-4.35-38.02-1.64-13.07-3.39-26.13-5.24-39.17-2.66-18.73-5.63-37.4-8.67-56.06,8.17,6.95,16.97,13.19,26.34,18.59,5.16,2.98,12.1-1.97,10.28-7.9-9.27-30.28-23.93-58.37-35.73-87.66-11.59-28.78-19.01-59.02-28.65-88.47-4.04-19.87-8.85-40.06-15.25-59.69-6.39-19.62-14.37-38.67-24.76-56.24-4.59-7.75-16.69-.72-12.09,7.06,19.88,33.64,30.43,72.86,38.25,110.91.05.53.16,1.1.35,1.68v.01c.13.59.3,1.12.52,1.6,9.38,28.94,16.73,58.61,28.13,86.86,9.3,23.04,20.34,45.37,29.15,68.59-7.36-5.53-14.24-11.66-20.56-18.33-.55-1.21-1.38-2.07-2.39-2.59-5.69-6.28-10.92-13-15.61-20.14-4.92-7.51-17.04-.5-12.08,7.06,5.19,7.93,10.99,15.4,17.32,22.38,4.16,25.33,8.34,50.65,11.95,76.06,1.82,12.76,3.51,25.55,5.1,38.35,1.6,12.92,2.37,26.12,4.51,38.96.01.03.02.06.02.09,7.61,46.27,15.1,92.12,29.82,136.65-3.47-.27-6.79-1.1-9.97-2.38-.21-.09-.43-.18-.65-.26-14.04-5.91-25.32-20.2-34.26-31.4-2.38-2.97-7.41-2.43-9.9,0-2.95,2.89-2.35,6.97,0,9.9,9.85,12.33,21.15,24.91,34.82,32.05,1.42,47.25,1.03,94.53-1.49,141.73v.02c-1.76,32.89-1.29,65.87-1.89,98.79-.61,33.89-1.21,68.33-6.98,101.82-2.7,15.65-5.9,34.28-16.18,46.89-9.73,11.94-28.24,14.27-42.69,15.25-20.77,1.41-41.87.81-62.68.69-22.63-.13-45.25-.55-67.86-1.03-22.6-.49-45.2-1.04-67.8-1.47-20.72-.39-41.79.53-60.9-8.93-32.4-16.03-39.45-54.06-42.53-86.81-4.35-46.29-7.29-92.75-10.89-139.1-1.81-23.21-3.31-46.47-5.49-69.65-1.79-19.08-4.7-38.47-13.56-55.71-7.86-15.27-21.07-28.76-38.05-33.26-14.62-3.88-30.54-.56-42.69,8.37-14.59,10.72-21.64,26.7-27.82,43.21-6.65,17.77-10.84,36.29-13.46,55.05-1.46,10.5-2.53,21.05-3.37,31.62-.13,1.13-.26,2.25-.4,3.38-.16.62-.25,1.3-.24,2.05v.02c-.03.28-.02.57.02.86.76,37.17.38,74.35-.18,111.52-9.45-10.97-17.49-23.03-24.07-36.07-4.07-8.04-16.15-.96-12.09,7.07,7.49,14.83,16.92,28.59,27.99,40.94-.88,10.88-1.91,21.75-3.06,32.61-.11.5-.17,1.03-.17,1.6-.03.29-.03.57-.01.86-.17,20.5-3.44,41.7-15.2,58.98-8.32,12.23-20.97,20.8-34.35,25.55-26.11,9.28-54.35,7.34-82.18,8.44-30.26,1.19-60.53,1.02-90.81.4-27.81-.57-55.61-.65-83.42-.95-10.64-.12-21.53-.52-31.55-4.47-10-3.94-18.4-11.44-25.21-19.59-14.09-16.84-20.58-38.92-23.98-60.23-7.6-47.61-.59-96.29,1.17-144.08.19-5.2.31-10.4.32-15.6,1.32-34.86,2.43-69.73,3.35-104.6,10.51-8.53,19.61-18.74,26.97-30.24,4.87-7.61-7.24-14.64-12.09-7.07-6.69,10.45-15,19.56-24.6,27.14,9.97-32.61,10.13-67.45,12.1-101.48.01-.09,0-.18.01-.27.56-34.52.99-69.05,1.3-103.58.31-34.31.84-68.52,3.6-102.73,1.48-18.27,3.45-36.49,5.83-54.65,6.95-4.9,13.4-10.52,19.25-16.84,6.12-6.6-3.76-16.53-9.9-9.9-7.46,8.05-15.96,14.96-25.32,20.49,5.99-12.43,11.77-24.96,16.91-37.77,6.07-15.16,10.96-30.69,14.84-46.51.11-.31.21-.63.28-.98.21-.94.42-1.87.63-2.81.52-2.23,1.02-4.47,1.5-6.7,10.84-47.46,24.56-94.21,41.14-139.99,3.08-8.48-10.45-12.14-13.5-3.72-16.28,44.93-29.78,90.79-40.52,137.34-.08.24-.15.5-.2.76-.13.61-.27,1.22-.4,1.83-.52,2.25-1.02,4.49-1.52,6.74-3.89,16.64-8.88,32.97-15.18,48.88-7.34,18.51-16.24,36.36-25.03,54.21-2.43,4.93,1.71,12.6,7.91,10.28,4.78-1.78,9.43-3.84,13.93-6.15-3.64,29.71-6.12,59.55-7.28,89.45-1.34,34.36-1.02,68.8-1.43,103.19-.24,19.81-.52,39.62-.85,59.43v.02c-2.25,38.72-1.36,79.57-18.26,115.45-2.95,6.26,3.1,12.99,9.58,9.58,2.04-1.08,4.05-2.23,6.02-3.41-.85,31.03-1.84,62.05-3.01,93.07-9.45,20.17-28.17,32.1-49.18,36.52-.41.08-.81.16-1.22.24-.06.01-.12.02-.18.04-4.94.92-9.95,1.45-14.99,1.64-30.65.92-59.46-11.1-80.09-33.77-25.72-28.25-37.55-66.18-44.05-103.08-7.81-44.35-9.51-90.16-9.46-135.1.07-54.51,4.41-108.99,12.81-162.84,8.33-9.49,16.1-19.48,23.28-29.93,5.11-7.44-7.01-14.45-12.09-7.07-6.96,10.14-14.55,19.79-22.7,28.94-.36.32-.68.67-.95,1.06-2.2,2.45-4.44,4.86-6.72,7.24,22.05-62.57,36.45-127.87,65.32-187.88.11-.23.2-.45.29-.68.15-.31.3-.63.42-.99,12.23-35.75,26.19-70.88,41.89-105.25,6.58-3.51,12.89-7.62,18.9-12.33,3-2.36,2.42-7.43,0-9.9-2.9-2.97-6.94-2.32-9.89,0-4.95,3.88-10.28,7.32-15.86,10.28-1.27.12-2.49.68-3.47,1.76-5.38,2.61-10.97,4.79-16.69,6.49,12.34-15.2,26.22-29.14,38.95-44.02,16.44-19.22,28.76-41.35,44.47-61.1.46-.45.88-.97,1.25-1.61,44.76-77.2,94.51-152.08,129.51-234.49,9.33-21.97,17.57-44.36,24.32-67.25,19.22-14.38,33.81-36.38,48.64-54.12,5.75-6.86-4.11-16.82-9.9-9.9-10.78,12.9-20.64,26.57-32.18,38.82-7.74,8.2-16.32,15.84-26.34,20.79,15.1-46.55,27.72-93.96,46.36-139.28,5.1-12.39,10.78-24.57,17.37-36.24.2-.31.39-.63.55-.99.02-.03.03-.06.05-.09.23-.39.4-.78.54-1.17,12.37-27.14,30.07-50.79,52.74-70.22,21.37-18.32,46.39-32.49,72.34-43.23,55.18-22.84,115.66-32.58,175.05-35.49,63.36-3.1,129.72,2.9,187.21,31.66,54.92,27.46,93.9,74.51,121.99,128.14,28.53,54.5,46.73,113.54,67.88,171.09,3.39,9.24,6.87,18.45,10.41,27.63,0,.01,0,.02.01.04,8.42,30.86,30.24,56.15,49.06,81.88-9.7-2.18-19.27-5-28.57-8.41-14.47-5.31-29.73-12.43-39.73-24.56-5.74-6.96-15.59,2.99-9.9,9.9,10.93,13.26,27.56,21.15,43.29,27.17,8,3.07,16.21,5.67,24.55,7.81.13.53.31,1.05.53,1.56,9.27,21.34,18.78,42.58,28.44,63.75,4.76,10.44,9.56,20.86,14.39,31.27,2.35,5.05,4.7,10.11,7.05,15.16,2.27,4.87,4.14,10.73,7.11,15.18,0,.01.01.01.01.02,6.44,10.13,11.98,20.73,17.87,31.18,5.92,10.51,12.88,20.18,20.08,29.84,11.28,15.14,22.53,30.65,35.3,44.67-3.45-.49-6.87-1.16-10.24-2-.88-.53-1.85-.77-2.84-.76-16-4.51-30.8-12.99-42.84-24.9-6.42-6.34-16.32,3.55-9.9,9.9,13.18,13.04,29.42,22.58,46.98,27.9,20.11,43.22,39.85,86.61,58.33,130.55.13.31.28.6.43.89,6.37,14.62,13.26,28.82,21.19,42.6-17.73-7.36-32.26-23.5-43.77-37.83-2.38-2.97-7.4-2.44-9.9,0-2.94,2.88-2.35,6.97,0,9.9,14.73,18.35,33,36.42,55.84,43.23,23.66,61.12,44.34,123.43,60.05,187.09.05.24.12.5.19.75.01.02.02.05.02.07.08.31.17.6.27.88,14.19,45.84,29.86,91.35,38.54,138.6-15.22-8.29-28.15-20.54-37.36-35.27-4.77-7.63-16.89-.61-12.09,7.06,9.33,14.91,21.72,27.25,36.31,36.49Zm-143.19-125.06c2.97,6.55,13.07,2.99,13.04-3.54-.12-27.24-.24-54.48-.36-81.72-.04-9-14.04-9.02-14,0,.07,16.36.15,32.71.22,49.06-8.61-19.01-17.22-38.02-25.82-57.04-3.71-8.19-15.78-1.08-12.09,7.07,13,28.72,26.01,57.44,39.01,86.17Zm-229.27-440.27c.26-6.28.21-12.57-.08-18.85-.41-8.97-14.41-9.02-14,0,.39,8.52,1.04,17.93-.37,26.38-.02.11-.14.61-.29,1.18-.03-.02-.05-.04-.07-.06-3.47-2.61-6.79-5.46-10.05-8.33-12.42-10.91-23.65-23.16-33.37-36.54-5.24-7.22-17.39-.24-12.08,7.06,13.17,18.16,28.57,34.46,46.29,48.25,3.91,3.04,8.19,5.78,13.38,4.45,4.39-1.12,7.31-4.9,8.78-8.97,1.66-4.59,1.66-9.74,1.86-14.57Zm-5.82,873.13c1.43-35.62,1.74-71.28.96-106.92-.2-9-14.2-9.03-14,0,.55,24.99.55,49.98.01,74.97-8.08-19.01-16.16-38.02-24.23-57.03-2.13-5-9.7-4.11-12.09,0-6.03,10.36-12.05,20.73-18.08,31.09-3.95-11.7-7.23-23.6-9.78-35.7-1.86-8.81-15.36-5.09-13.5,3.72,3.62,17.16,8.66,33.93,15.09,50.24,2.11,5.35,9.54,7.28,12.8,1.67,6.19-10.64,12.38-21.29,18.57-31.94,10.4,24.48,20.81,48.96,31.21,73.44,2.91,6.84,12.79,2.73,13.04-3.54Zm-20.35-472.71c.64-8.99-13.37-8.95-14,0-1.82,25.84-9.43,50.86-21.98,73.4-13.78-19.29-27.56-38.59-41.34-57.89-5.19-7.27-17.34-.28-12.09,7.07,15.98,22.37,31.95,44.75,47.93,67.12,3.07,4.3,9.1,4.7,12.09,0,17.18-26.98,27.14-57.82,29.39-89.7Zm-98.38-644.67c.68,8.93,14.68,9,14,0-.57-7.52-5.34-25.33-16.24-21.43-4.85,1.73-7.75,8.05-10.55,12.02-.99,1.39-1.97,2.79-2.95,4.18-.28-.76-.55-1.51-.84-2.27-1.79-4.69-3.48-9.74-9.28-10.19-5.5-.42-8.32,3.87-10.78,8.08l-.33.54c-.19-.86-.36-1.73-.57-2.58-1.48-6.06-9.7-6.59-12.8-1.68-1.3,2.07-2.78,3.94-4.41,5.63-1.09-2.25-2.5-4.2-4.55-5.26-5.18-2.68-10.63,1.44-15.14,3.74-8.03,4.09-.95,16.18,7.07,12.09.42-.21.83-.43,1.25-.64.43,1.16.87,2.31,1.3,3.47,1.54,4.08,6.14,6.74,10.28,4.18,2.08-1.28,4.02-2.69,5.85-4.21.04.44.1.87.14,1.31.53,6.16,7.21,9.09,11.95,4.95,2.9-2.53,5.46-5.26,7.81-8.3.32-.41.63-.83.95-1.25,1.1,3.16,2.12,6.34,3.1,9.54,1.85,6.08,9.37,6.53,12.79,1.67,2.81-3.98,5.62-7.96,8.43-11.95,1.04-1.47,2.08-2.94,3.12-4.42.2.92.33,1.85.4,2.78Zm7-113.94c0-33.18-19.86-60.09-44.36-60.09-24.51,0-44.37,26.91-44.37,60.09s19.86,60.09,44.37,60.09c24.5,0,44.36-26.91,44.36-60.09Zm-24.28,490.98c2.22-8.73-11.27-12.46-13.5-3.72-3.53,13.88-8.85,27.09-16.12,39.44-1.85,3.14-3.8,6.22-5.87,9.22-1.38,2.01-3.99,4.49-5.35,6.82-.91-1.17-2.31-2.32-3.2-3.33-3.01-3.4-6.01-6.81-9.02-10.22-5.97-6.77-15.84,3.16-9.9,9.9,3.44,3.9,6.87,7.79,10.3,11.68,3.11,3.52,6.1,7.9,11.17,8.34,8.67.76,14.91-11.38,19.03-17.52,10.34-15.38,17.89-32.65,22.46-50.61Zm-64.49-316.9c2.77-2.69,2.85-7.12.16-9.9s-7.12-2.85-9.9-.17c-21.32,20.62-46.19,34.15-73.93,40.22-23.04,5.04-48.06,4.99-74.37-.14-48.12-9.39-85.42-33.02-92.86-40.11-2.8-2.67-7.23-2.56-9.89.23-2.67,2.8-2.56,7.23.24,9.9,4.4,4.2,14.44,11.25,28.61,18.68v47.95c0,8.05,9.51,12.31,15.51,6.95l38.09-33.97c5.69,1.54,11.57,2.93,17.61,4.11,12.41,2.42,26.38,4.1,41.25,4.1,16.14,0,33.34-1.99,50.74-7.17l34.06,33.05c6.95,6.74,18.5.79,17.04-8.79l-6.87-45.09c8.33-5.58,16.53-12.14,24.51-19.85Zm-160.25,502.06c3.82-8.11-8.24-15.22-12.08-7.07-11.94,25.31-25.44,49.86-40.52,73.44-1.84,2.88-3.71,5.75-5.6,8.6-.86,1.29-1.71,2.6-2.59,3.87-.01.02-.02.03-.03.05-1.45-1.92-3.52-4.27-3.96-4.92-1.78-2.64-3.49-5.33-5.1-8.07-6.78-11.5-11.92-23.74-15.54-36.59-2.44-8.66-15.95-4.98-13.5,3.73,4.24,15.05,10.49,29.6,18.75,42.9,3.48,5.6,7.65,13.84,13.37,17.44,7.16,4.49,13.62-.96,17.58-6.7,18.86-27.33,35.08-56.67,49.22-86.68Zm-76.33-676.14c0-33.18-19.86-60.09-44.36-60.09-24.51,0-44.37,26.91-44.37,60.09s19.86,60.09,44.37,60.09c24.5,0,44.36-26.91,44.36-60.09Zm-17.76,1029.85c4.62-7.76-7.48-14.81-12.08-7.07-8.98,15.11-18.5,29.88-28.61,44.26-2.52,3.59-5.08,7.16-7.68,10.7-.06.09-.13.17-.19.26-.62-1.18-1.22-2.26-1.33-2.51-3.65-8.23-7.3-16.46-10.95-24.69-3.65-8.21-15.71-1.1-12.09,7.07,2.35,5.29,4.69,10.58,7.04,15.87,2.07,4.67,3.78,9.79,6.41,14.16,2.49,4.14,6.39,7.04,11.4,6.59,5.35-.47,8.35-4.98,11.24-8.92,13.19-17.96,25.46-36.57,36.84-55.72Zm-7.34-913.04c8.01,4.08,15.1-7.99,7.07-12.09-4.53-2.31-9.95-6.42-15.14-3.74-2.04,1.06-3.45,3.01-4.54,5.27-1.64-1.7-3.12-3.56-4.42-5.64-3.1-4.9-11.32-4.38-12.8,1.68-.21.86-.39,1.73-.58,2.6-2.62-4.35-5.23-9.09-11.1-8.64-5.42.42-7.23,4.88-8.95,9.33-.4,1.04-.78,2.09-1.17,3.13-.79-1.13-1.59-2.25-2.38-3.38-2.94-4.16-6.06-11.01-11.12-12.82-10.9-3.9-15.68,13.92-16.24,21.43-.68,8.98,13.32,8.94,14,0,.07-.93.2-1.86.4-2.78,1.04,1.48,2.08,2.95,3.11,4.42,2.82,3.99,5.63,7.97,8.44,11.95,3.42,4.86,10.95,4.39,12.79-1.67.98-3.2,2-6.38,3.1-9.54.32.42.63.84.95,1.25,2.35,3.04,4.92,5.78,7.81,8.3,4.75,4.15,11.42,1.19,11.95-4.95.04-.44.09-.87.14-1.31,1.83,1.52,3.77,2.93,5.84,4.21,4.15,2.56,8.75-.1,10.29-4.18.43-1.16.87-2.31,1.3-3.47.42.21.83.43,1.25.64Zm-31.92,265.87c6.08-6.63-3.8-16.56-9.9-9.9-11.83,12.92-24.87,24.73-39.16,34.89-.42.29-.84.59-1.26.88-.58-1.17-1.29-2.48-1.38-2.68-1.91-4.46-3.52-9.05-4.94-13.68-2.64-8.69-4.48-17.6-5.41-26.64-.61-6-7.21-9.27-11.95-4.95-5.33,4.87-10.9,9.4-16.85,13.48-2.73,1.86-5.5,3.64-8.33,5.34-.11.07-.23.13-.35.2v-41.73c0-9.01-14-9.02-14,0v30.82c0,5.14-.04,10.28,0,15.41.02,3.89.26,7.68,3.51,10.31,7.27,5.87,17.11-2.26,23.24-6.26,4.35-2.84,8.56-5.9,12.63-9.12,1.24,6.87,2.9,13.66,5.12,20.32,2.81,8.47,6.75,25.51,18.4,24.59,4.87-.39,9.14-4.51,12.89-7.3,4.46-3.31,8.84-6.75,13.11-10.32,8.74-7.33,16.93-15.25,24.63-23.66Zm-128.3,297.74c2.85-8.56-10.67-12.24-13.5-3.72-.85,2.53-2.01,4.8-3.43,6.88-4.31-10.54-7.49-21.49-9.61-32.71-1.67-8.84-15.16-5.1-13.5,3.72,2.95,15.61,8.04,30.58,14.93,44.88,2.17,4.5,7.76,3.93,11,1.42,6.78-5.26,11.41-12.36,14.11-20.47Zm-32.36,526.75c5.87-6.78-3.99-16.73-9.9-9.9-4.69,5.42-9.38,10.85-14.07,16.27-1.07,1.24-3.23,2.93-4.42,4.46-.17-.22-.32-.45-.44-.71-.7-1.01-1.2-2.16-1.75-3.25-6.44-12.68-12.72-25.44-19.09-38.15-4.03-8.06-16.11-.98-12.08,7.06,4.14,8.29,8.28,16.57,12.42,24.85,3.5,6.99,6.51,16.2,12.51,21.51,5.98,5.29,13.49,3.76,18.85-1.45,6.47-6.28,12.07-13.87,17.97-20.69Zm-5.15-999.52c7.3-5.15.32-17.3-7.07-12.09-6.12,4.31-12.24,8.63-18.35,12.94-5.36-9.31-8.6-19.58-9.27-30.46-.55-8.96-14.55-9.02-14,0,.97,15.82,6.04,30.97,15.28,43.9,2.05,2.87,6.26,4.85,9.57,2.51,7.95-5.6,15.89-11.2,23.84-16.8Zm-126.64,605.1c.47-3.78-3.55-6.96-7-7-4.16-.04-6.54,3.27-7,7-3.12,25.27-8.89,50.28-17.09,74.42-1.19-25.53-2.38-51.05-3.57-76.58-.41-8.97-14.42-9.02-14,0,1.71,36.59,3.41,73.19,5.11,109.78.29,6.28,10.05,10.37,13.04,3.54,15.55-35.5,25.75-72.7,30.51-111.16Z"/>
  <path class="d" d="m1414.87228,1220.64359c.03,6.53-10.07,10.09-13.04,3.54-13-28.73-26.01-57.45-39.01-86.17-3.69-8.15,8.38-15.26,12.09-7.07,8.6,19.02,17.21,38.03,25.82,57.04-.07-16.35-.15-32.7-.22-49.06-.04-9.02,13.96-9,14,0,.12,27.24.24,54.48.36,81.72Z"/>
  <path class="d" d="m1172.48228,765.06359c.29,6.28.34,12.57.08,18.85-.2,4.83-.2,9.98-1.86,14.57-1.47,4.07-4.39,7.85-8.78,8.97-5.19,1.33-9.47-1.41-13.38-4.45-17.72-13.79-33.12-30.09-46.29-48.25-5.31-7.3,6.84-14.28,12.08-7.06,9.72,13.38,20.95,25.63,33.37,36.54,3.26,2.87,6.58,5.72,10.05,8.33.02.02.04.04.07.06.15-.57.27-1.07.29-1.18,1.41-8.45.76-17.86.37-26.38-.41-9.02,13.59-8.97,14,0Z"/>
  <path class="d" d="m1167.70228,1550.12359c.78,35.64.47,71.3-.96,106.92-.25,6.27-10.13,10.38-13.04,3.54-10.4-24.48-20.81-48.96-31.21-73.44-6.19,10.65-12.38,21.3-18.57,31.94-3.26,5.61-10.69,3.68-12.8-1.67-6.43-16.31-11.47-33.08-15.09-50.24-1.86-8.81,11.64-12.53,13.5-3.72,2.55,12.1,5.83,24,9.78,35.7,6.03-10.36,12.05-20.73,18.08-31.09,2.39-4.11,9.96-5,12.09,0,8.07,19.01,16.15,38.02,24.23,57.03.54-24.99.54-49.98-.01-74.97-.2-9.03,13.8-9,14,0Z"/>
  <path class="d" d="m1132.39228,1184.33359c.63-8.95,14.64-8.99,14,0-2.25,31.88-12.21,62.72-29.39,89.7-2.99,4.7-9.02,4.3-12.09,0-15.98-22.37-31.95-44.75-47.93-67.12-5.25-7.35,6.9-14.34,12.09-7.07,13.78,19.3,27.56,38.6,41.34,57.89,12.55-22.54,20.16-47.56,21.98-73.4Z"/>
  <path class="b" d="m1062.01228,539.66359c.68,9-13.32,8.93-14,0-.07-.93-.2-1.86-.4-2.78-1.04,1.48-2.08,2.95-3.12,4.42-2.81,3.99-5.62,7.97-8.43,11.95-3.42,4.86-10.94,4.41-12.79-1.67-.98-3.2-2-6.38-3.1-9.54-.32.42-.63.84-.95,1.25-2.35,3.04-4.91,5.77-7.81,8.3-4.74,4.14-11.42,1.21-11.95-4.95-.04-.44-.1-.87-.14-1.31-1.83,1.52-3.77,2.93-5.85,4.21-4.14,2.56-8.74-.1-10.28-4.18-.43-1.16-.87-2.31-1.3-3.47-.42.21-.83.43-1.25.64-8.02,4.09-15.1-8-7.07-12.09,4.51-2.3,9.96-6.42,15.14-3.74,2.05,1.06,3.46,3.01,4.55,5.26,1.63-1.69,3.11-3.56,4.41-5.63,3.1-4.91,11.32-4.38,12.8,1.68.21.85.38,1.72.57,2.58l.33-.54c2.46-4.21,5.28-8.5,10.78-8.08,5.8.45,7.49,5.5,9.28,10.19.29.76.56,1.51.84,2.27.98-1.39,1.96-2.79,2.95-4.18,2.8-3.97,5.7-10.29,10.55-12.02,10.9-3.9,15.67,13.91,16.24,21.43Z"/>
  <path class="d" d="m1010.65228,365.63359c24.5,0,44.36,26.91,44.36,60.09s-19.86,60.09-44.36,60.09c-24.51,0-44.37-26.91-44.37-60.09s19.86-60.09,44.37-60.09Z"/>
  <path class="d" d="m1017.23228,912.98359c2.23-8.74,15.72-5.01,13.5,3.72-4.57,17.96-12.12,35.23-22.46,50.61-4.12,6.14-10.36,18.28-19.03,17.52-5.07-.44-8.06-4.82-11.17-8.34-3.43-3.89-6.86-7.78-10.3-11.68-5.94-6.74,3.93-16.67,9.9-9.9,3.01,3.41,6.01,6.82,9.02,10.22.89,1.01,2.29,2.16,3.2,3.33,1.36-2.33,3.97-4.81,5.35-6.82,2.07-3,4.02-6.08,5.87-9.22,7.27-12.35,12.59-25.56,16.12-39.44Z"/>
  <path class="d" d="m966.40228,589.90359c2.69,2.78,2.61,7.21-.16,9.9-7.98,7.71-16.18,14.27-24.51,19.85l6.87,45.09c1.46,9.58-10.09,15.53-17.04,8.79l-34.06-33.05c-17.4,5.18-34.6,7.17-50.74,7.17-14.87,0-28.84-1.68-41.25-4.1-6.04-1.18-11.92-2.57-17.61-4.11l-38.09,33.97c-6,5.36-15.51,1.1-15.51-6.95v-47.95c-14.17-7.43-24.21-14.48-28.61-18.68-2.8-2.67-2.91-7.1-.24-9.9,2.66-2.79,7.09-2.9,9.89-.23,7.44,7.09,44.74,30.72,92.86,40.11,26.31,5.13,51.33,5.18,74.37.14,27.74-6.07,52.61-19.6,73.93-40.22,2.78-2.68,7.21-2.61,9.9.17Z"/>
  <path class="d" d="m793.91228,1094.79359c3.84-8.15,15.9-1.04,12.08,7.07-14.14,30.01-30.36,59.35-49.22,86.68-3.96,5.74-10.42,11.19-17.58,6.7-5.72-3.6-9.89-11.84-13.37-17.44-8.26-13.3-14.51-27.85-18.75-42.9-2.45-8.71,11.06-12.39,13.5-3.73,3.62,12.85,8.76,25.09,15.54,36.59,1.61,2.74,3.32,5.43,5.1,8.07.44.65,2.51,3,3.96,4.92.01-.02.02-.03.03-.05.88-1.27,1.73-2.58,2.59-3.87,1.89-2.85,3.76-5.72,5.6-8.6,15.08-23.58,28.58-48.13,40.52-73.44Z"/>
  <path class="d" d="m685.30228,365.63359c24.5,0,44.36,26.91,44.36,60.09s-19.86,60.09-44.36,60.09c-24.51,0-44.37-26.91-44.37-60.09s19.86-60.09,44.37-60.09Z"/>
  <path class="d" d="m699.82228,1448.50359c4.6-7.74,16.7-.69,12.08,7.07-11.38,19.15-23.65,37.76-36.84,55.72-2.89,3.94-5.89,8.45-11.24,8.92-5.01.45-8.91-2.45-11.4-6.59-2.63-4.37-4.34-9.49-6.41-14.16-2.35-5.29-4.69-10.58-7.04-15.87-3.62-8.17,8.44-15.28,12.09-7.07,3.65,8.23,7.3,16.46,10.95,24.69.11.25.71,1.33,1.33,2.51.06-.09.13-.17.19-.26,2.6-3.54,5.16-7.11,7.68-10.7,10.11-14.38,19.63-29.15,28.61-44.26Z"/>
  <path class="b" d="m711.63228,530.44359c8.03,4.1.94,16.17-7.07,12.09-.42-.21-.83-.43-1.25-.64-.43,1.16-.87,2.31-1.3,3.47-1.54,4.08-6.14,6.74-10.29,4.18-2.07-1.28-4.01-2.69-5.84-4.21-.05.44-.1.87-.14,1.31-.53,6.14-7.2,9.1-11.95,4.95-2.89-2.52-5.46-5.26-7.81-8.3-.32-.41-.63-.83-.95-1.25-1.1,3.16-2.12,6.34-3.1,9.54-1.84,6.06-9.37,6.53-12.79,1.67-2.81-3.98-5.62-7.96-8.44-11.95-1.03-1.47-2.07-2.94-3.11-4.42-.2.92-.33,1.85-.4,2.78-.68,8.94-14.68,8.98-14,0,.56-7.51,5.34-25.33,16.24-21.43,5.06,1.81,8.18,8.66,11.12,12.82.79,1.13,1.59,2.25,2.38,3.38.39-1.04.77-2.09,1.17-3.13,1.72-4.45,3.53-8.91,8.95-9.33,5.87-.45,8.48,4.29,11.1,8.64.19-.87.37-1.74.58-2.6,1.48-6.06,9.7-6.58,12.8-1.68,1.3,2.08,2.78,3.94,4.42,5.64,1.09-2.26,2.5-4.21,4.54-5.27,5.19-2.68,10.61,1.43,15.14,3.74Z"/>
  <path class="d" d="m662.74228,798.50359c6.1-6.66,15.98,3.27,9.9,9.9-7.7,8.41-15.89,16.33-24.63,23.66-4.27,3.57-8.65,7.01-13.11,10.32-3.75,2.79-8.02,6.91-12.89,7.3-11.65.92-15.59-16.12-18.4-24.59-2.22-6.66-3.88-13.45-5.12-20.32-4.07,3.22-8.28,6.28-12.63,9.12-6.13,4-15.97,12.13-23.24,6.26-3.25-2.63-3.49-6.42-3.51-10.31-.04-5.13,0-10.27,0-15.41v-30.82c0-9.02,14-9.01,14,0v41.73c.12-.07.24-.13.35-.2,2.83-1.7,5.6-3.48,8.33-5.34,5.95-4.08,11.52-8.61,16.85-13.48,4.74-4.32,11.34-1.05,11.95,4.95.93,9.04,2.77,17.95,5.41,26.64,1.42,4.63,3.03,9.22,4.94,13.68.09.2.8,1.51,1.38,2.68.42-.29.84-.59,1.26-.88,14.29-10.16,27.33-21.97,39.16-34.89Z"/>
  <path class="d" d="m530.84228,1102.42359c2.83-8.52,16.35-4.84,13.5,3.72-2.7,8.11-7.33,15.21-14.11,20.47-3.24,2.51-8.83,3.08-11-1.42-6.89-14.3-11.98-29.27-14.93-44.88-1.66-8.82,11.83-12.56,13.5-3.72,2.12,11.22,5.3,22.17,9.61,32.71,1.42-2.08,2.58-4.35,3.43-6.88Z"/>
  <path class="d" d="m502.08228,1622.99359c5.91-6.83,15.77,3.12,9.9,9.9-5.9,6.82-11.5,14.41-17.97,20.69-5.36,5.21-12.87,6.74-18.85,1.45-6-5.31-9.01-14.52-12.51-21.51-4.14-8.28-8.28-16.56-12.42-24.85-4.03-8.04,8.05-15.12,12.08-7.06,6.37,12.71,12.65,25.47,19.09,38.15.55,1.09,1.05,2.24,1.75,3.25.12.26.27.49.44.71,1.19-1.53,3.35-3.22,4.42-4.46,4.69-5.42,9.38-10.85,14.07-16.27Z"/>
  <path class="d" d="m499.76228,621.28359c7.39-5.21,14.37,6.94,7.07,12.09-7.95,5.6-15.89,11.2-23.84,16.8-3.31,2.34-7.52.36-9.57-2.51-9.24-12.93-14.31-28.08-15.28-43.9-.55-9.02,13.45-8.96,14,0,.67,10.88,3.91,21.15,9.27,30.46,6.11-4.31,12.23-8.63,18.35-12.94Z"/>
  <path class="d" d="m373.19228,1231.47359c3.45.04,7.47,3.22,7,7-4.76,38.46-14.96,75.66-30.51,111.16-2.99,6.83-12.75,2.74-13.04-3.54-1.7-36.59-3.4-73.19-5.11-109.78-.42-9.02,13.59-8.97,14,0,1.19,25.53,2.38,51.05,3.57,76.58,8.2-24.14,13.97-49.15,17.09-74.42.46-3.73,2.84-7.04,7-7Z"/>
</svg>