<svg width="980" height="46" viewBox="0 0 980 46" fill="none" xmlns="http://www.w3.org/2000/svg">
<path opacity="0.2" fill-rule="evenodd" clip-rule="evenodd" d="M490.562 3.75017C493.129 -0.422053 499.161 -0.534276 502.084 3.16515C508.294 11.0261 518.293 20.4302 530.23 27.8537C542.178 35.2839 555.867 40.6062 569.496 40.6072C569.497 40.6072 569.499 40.6072 569.5 40.6072L977.5 40.6072C978.881 40.6072 980 41.7265 980 43.1072C980 44.4879 978.881 45.6072 977.5 45.6072H569.504C569.503 45.6072 569.501 45.6072 569.5 45.6072C554.615 45.6072 540.006 39.8211 527.589 32.0996C515.161 24.3706 504.728 14.5785 498.16 6.26468C497.276 5.1457 495.471 5.31259 494.82 6.37033C491.392 11.9425 486.946 18.3155 482.559 22.7303C480.385 24.9172 478.053 26.803 475.716 27.7828C473.285 28.802 470.489 28.9478 468.129 26.9736C466.159 25.3262 464.54 23.7498 463.22 22.2865C462.617 21.6179 461.257 20.9534 459.596 20.7825C457.899 20.608 456.736 21.0243 456.272 21.4812C445.749 31.8452 427.038 45.5938 406.53 45.6072L406.5 45.6072L2.5 45.6074C1.11929 45.6074 0 44.4881 0 43.1074C0 41.7267 1.11929 40.6074 2.5 40.6074L406.471 40.6074L406.5 40.6072C424.989 40.6072 442.491 28.0364 452.763 17.9189C454.746 15.9655 457.712 15.5624 460.107 15.8088C462.538 16.0588 465.234 17.0553 466.932 18.937C468.088 20.2176 469.536 21.6326 471.337 23.1382C471.802 23.5274 472.44 23.7345 473.783 23.1716C475.22 22.5692 477.001 21.2294 479.012 19.2057C482.994 15.1993 487.202 9.21125 490.562 3.75017Z" fill="#9BB2DC"/>
</svg>
