<svg width="1440" height="440" viewBox="0 0 1440 440" fill="none" xmlns="http://www.w3.org/2000/svg">
<path d="M344.622 5.60769C357.4 21.7825 385.485 44 414 44V50H251V44C270.504 44 288.617 30.8361 299.017 20.5928C301.465 18.1824 307.275 18.9542 309.576 21.5046C310.814 22.8764 312.348 24.3722 314.233 25.9487C319.884 30.6753 330.402 16.9862 337.191 5.95303C338.8 3.33804 342.719 3.19849 344.622 5.60769Z" fill="#A9D3EA"/>
<rect y="44" width="1440" height="396" fill="#A9D3EA"/>
<path d="M458.73 206L459.412 201.909C459.616 200.795 460.037 199.676 460.673 198.551C461.31 197.426 462.054 196.386 462.906 195.432C463.759 194.477 464.594 193.705 465.412 193.114L468.957 195.091C468.196 196.08 467.56 197.114 467.048 198.193C466.548 199.273 466.185 200.511 465.957 201.909L465.276 206H458.73ZM467.253 206L467.935 201.909C468.139 200.795 468.56 199.676 469.196 198.551C469.832 197.426 470.577 196.386 471.429 195.432C472.281 194.477 473.116 193.705 473.935 193.114L477.48 195.091C476.719 196.08 476.082 197.114 475.571 198.193C475.071 199.273 474.707 200.511 474.48 201.909L473.798 206H467.253ZM479.27 202.727L480.565 195.091H510.906L509.611 202.727H499.111L494.611 230H485.27L489.77 202.727H479.27ZM508.678 230L514.473 195.091H523.95L521.7 208.727H534.246L536.496 195.091H545.973L540.178 230H530.7L532.95 216.364H520.405L518.155 230H508.678ZM544.678 230L550.473 195.091H575.632L574.337 202.727H558.655L557.7 208.727H572.087L570.791 216.364H556.405L555.45 222.364H571.064L569.768 230H544.678ZM574.537 230L580.332 195.091H595.401C597.991 195.091 600.179 195.562 601.963 196.506C603.747 197.449 605.031 198.807 605.815 200.58C606.599 202.352 606.787 204.477 606.378 206.955C605.969 209.455 605.065 211.562 603.668 213.278C602.281 214.983 600.514 216.278 598.366 217.165C596.23 218.04 593.832 218.477 591.173 218.477H582.173L583.401 211.114H590.491C591.605 211.114 592.582 210.977 593.423 210.705C594.264 210.42 594.946 209.977 595.469 209.375C595.991 208.761 596.332 207.955 596.491 206.955C596.651 205.955 596.571 205.142 596.253 204.517C595.935 203.881 595.406 203.415 594.668 203.119C593.929 202.812 593.014 202.659 591.923 202.659H588.582L584.014 230H574.537ZM597.651 213.977L603.719 230H593.423L587.56 213.977H597.651ZM607.068 230L612.864 195.091H638.023L636.727 202.727H621.045L620.091 208.727H634.477L633.182 216.364H618.795L617.841 222.364H633.455L632.159 230H607.068ZM655.558 230H645.331L662.649 195.091H675.604L681.331 230H671.104L667.695 204.705H667.422L655.558 230ZM655.967 216.227H675.195L673.967 223.318H654.74L655.967 216.227ZM684.693 230L690.489 195.091H705.557C708.148 195.091 710.335 195.562 712.119 196.506C713.903 197.449 715.188 198.807 715.972 200.58C716.756 202.352 716.943 204.477 716.534 206.955C716.125 209.455 715.222 211.562 713.824 213.278C712.438 214.983 710.67 216.278 708.523 217.165C706.386 218.04 703.989 218.477 701.33 218.477H692.33L693.557 211.114H700.648C701.761 211.114 702.739 210.977 703.58 210.705C704.42 210.42 705.102 209.977 705.625 209.375C706.148 208.761 706.489 207.955 706.648 206.955C706.807 205.955 706.727 205.142 706.409 204.517C706.091 203.881 705.563 203.415 704.824 203.119C704.085 202.812 703.17 202.659 702.08 202.659H698.739L694.17 230H684.693ZM707.807 213.977L713.875 230H703.58L697.716 213.977H707.807ZM717.224 230L723.02 195.091H748.179L746.884 202.727H731.202L730.247 208.727H744.634L743.338 216.364H728.952L727.997 222.364H743.611L742.315 230H717.224ZM792.646 195.091L786.851 230H778.942L769.396 211.659H769.192L766.124 230H756.646L762.442 195.091H770.487L779.896 213.364H780.169L783.169 195.091H792.646ZM827.947 213.159C827.311 216.955 826.05 220.136 824.163 222.705C822.277 225.273 819.987 227.21 817.294 228.517C814.601 229.824 811.72 230.477 808.652 230.477C805.379 230.477 802.538 229.767 800.129 228.347C797.72 226.926 795.964 224.847 794.862 222.108C793.76 219.369 793.538 216.023 794.197 212.068C794.811 208.273 796.061 205.08 797.947 202.489C799.834 199.898 802.135 197.938 804.851 196.608C807.567 195.278 810.47 194.614 813.561 194.614C816.811 194.614 819.635 195.33 822.033 196.761C824.442 198.193 826.192 200.29 827.283 203.051C828.385 205.812 828.607 209.182 827.947 213.159ZM818.402 212.068C818.72 210.068 818.743 208.386 818.47 207.023C818.197 205.648 817.624 204.614 816.749 203.92C815.874 203.216 814.697 202.864 813.22 202.864C811.538 202.864 810.05 203.273 808.754 204.091C807.459 204.909 806.385 206.085 805.533 207.619C804.68 209.153 804.084 211 803.743 213.159C803.379 215.182 803.345 216.864 803.641 218.205C803.947 219.545 804.55 220.551 805.447 221.222C806.357 221.892 807.538 222.227 808.993 222.227C810.652 222.227 812.118 221.83 813.391 221.034C814.675 220.239 815.737 219.085 816.578 217.574C817.43 216.062 818.038 214.227 818.402 212.068ZM852.736 230H839.099L844.895 195.091H857.986C861.577 195.091 864.577 195.812 866.986 197.256C869.395 198.699 871.105 200.761 872.116 203.443C873.128 206.125 873.327 209.318 872.713 213.023C872.122 216.591 870.923 219.642 869.116 222.176C867.321 224.71 865.026 226.648 862.23 227.989C859.446 229.33 856.281 230 852.736 230ZM849.906 221.955H853.349C855.077 221.955 856.616 221.653 857.969 221.051C859.332 220.437 860.469 219.415 861.378 217.983C862.298 216.54 862.963 214.568 863.372 212.068C863.759 209.705 863.747 207.881 863.338 206.597C862.929 205.301 862.151 204.403 861.003 203.903C859.855 203.392 858.372 203.136 856.554 203.136H853.043L849.906 221.955ZM881.168 230H870.94L888.259 195.091H901.213L906.94 230H896.713L893.304 204.705H893.031L881.168 230ZM881.577 216.227H900.804L899.577 223.318H880.349L881.577 216.227ZM911.104 195.091H921.672L926.104 209.273H926.445L935.581 195.091H946.149L929.376 219.023L927.536 230H918.126L919.967 219.023L911.104 195.091ZM966.216 206C966.318 204.875 966.045 203.994 965.398 203.358C964.75 202.71 963.659 202.386 962.125 202.386C961.148 202.386 960.33 202.5 959.67 202.727C959.023 202.955 958.517 203.267 958.153 203.665C957.801 204.062 957.58 204.523 957.489 205.045C957.386 205.455 957.392 205.83 957.506 206.17C957.631 206.5 957.864 206.801 958.205 207.074C958.557 207.347 959.017 207.591 959.585 207.807C960.165 208.023 960.852 208.216 961.648 208.386L964.375 209C966.239 209.409 967.801 209.949 969.062 210.619C970.335 211.278 971.335 212.062 972.062 212.972C972.79 213.881 973.267 214.898 973.494 216.023C973.733 217.148 973.739 218.375 973.511 219.705C973.125 222 972.233 223.943 970.835 225.534C969.438 227.125 967.614 228.335 965.364 229.165C963.114 229.994 960.511 230.409 957.557 230.409C954.534 230.409 951.966 229.96 949.852 229.062C947.75 228.153 946.227 226.767 945.284 224.903C944.352 223.028 944.125 220.636 944.602 217.727H953.602C953.466 218.795 953.58 219.693 953.943 220.42C954.307 221.148 954.892 221.699 955.699 222.074C956.506 222.449 957.511 222.636 958.716 222.636C959.739 222.636 960.614 222.511 961.341 222.261C962.068 222.011 962.642 221.665 963.062 221.222C963.483 220.778 963.739 220.273 963.83 219.705C963.92 219.182 963.83 218.716 963.557 218.307C963.284 217.898 962.79 217.528 962.074 217.199C961.358 216.869 960.375 216.568 959.125 216.295L955.784 215.545C952.818 214.864 950.58 213.739 949.068 212.17C947.557 210.602 947.023 208.455 947.466 205.727C947.83 203.5 948.744 201.557 950.21 199.898C951.688 198.227 953.562 196.932 955.835 196.011C958.119 195.08 960.648 194.614 963.42 194.614C966.239 194.614 968.597 195.085 970.494 196.028C972.403 196.972 973.773 198.295 974.602 200C975.443 201.705 975.67 203.705 975.284 206H966.216ZM505.537 288L511.332 253.091H520.81L516.31 280.364H530.423L529.128 288H505.537ZM548.232 253.091L542.436 288H532.959L538.754 253.091H548.232ZM546.928 288L552.723 253.091H562.2L559.882 267.205H560.359L573.178 253.091H584.223L569.905 268.636L578.7 288H567.382L561.791 274.909L557.905 279.068L556.405 288H546.928ZM581.24 288L587.036 253.091H612.195L610.899 260.727H595.217L594.263 266.727H608.649L607.354 274.364H592.967L592.013 280.364H607.626L606.331 288H581.24ZM643.435 264C643.537 262.875 643.264 261.994 642.616 261.358C641.969 260.71 640.878 260.386 639.344 260.386C638.366 260.386 637.548 260.5 636.889 260.727C636.241 260.955 635.736 261.267 635.372 261.665C635.02 262.062 634.798 262.523 634.707 263.045C634.605 263.455 634.611 263.83 634.724 264.17C634.849 264.5 635.082 264.801 635.423 265.074C635.776 265.347 636.236 265.591 636.804 265.807C637.384 266.023 638.071 266.216 638.866 266.386L641.594 267C643.457 267.409 645.02 267.949 646.281 268.619C647.554 269.278 648.554 270.062 649.281 270.972C650.009 271.881 650.486 272.898 650.713 274.023C650.952 275.148 650.957 276.375 650.73 277.705C650.344 280 649.452 281.943 648.054 283.534C646.656 285.125 644.832 286.335 642.582 287.165C640.332 287.994 637.73 288.409 634.776 288.409C631.753 288.409 629.185 287.96 627.071 287.062C624.969 286.153 623.446 284.767 622.503 282.903C621.571 281.028 621.344 278.636 621.821 275.727H630.821C630.685 276.795 630.798 277.693 631.162 278.42C631.526 279.148 632.111 279.699 632.918 280.074C633.724 280.449 634.73 280.636 635.935 280.636C636.957 280.636 637.832 280.511 638.56 280.261C639.287 280.011 639.861 279.665 640.281 279.222C640.702 278.778 640.957 278.273 641.048 277.705C641.139 277.182 641.048 276.716 640.776 276.307C640.503 275.898 640.009 275.528 639.293 275.199C638.577 274.869 637.594 274.568 636.344 274.295L633.003 273.545C630.037 272.864 627.798 271.739 626.287 270.17C624.776 268.602 624.241 266.455 624.685 263.727C625.048 261.5 625.963 259.557 627.429 257.898C628.906 256.227 630.781 254.932 633.054 254.011C635.338 253.08 637.866 252.614 640.639 252.614C643.457 252.614 645.815 253.085 647.713 254.028C649.622 254.972 650.991 256.295 651.821 258C652.662 259.705 652.889 261.705 652.503 264H643.435ZM688.631 253.091L682.835 288H674.926L665.381 269.659H665.176L662.108 288H652.631L658.426 253.091H666.472L675.881 271.364H676.153L679.153 253.091H688.631ZM723.932 271.159C723.295 274.955 722.034 278.136 720.148 280.705C718.261 283.273 715.972 285.21 713.278 286.517C710.585 287.824 707.705 288.477 704.636 288.477C701.364 288.477 698.523 287.767 696.114 286.347C693.705 284.926 691.949 282.847 690.847 280.108C689.744 277.369 689.523 274.023 690.182 270.068C690.795 266.273 692.045 263.08 693.932 260.489C695.818 257.898 698.119 255.938 700.835 254.608C703.551 253.278 706.455 252.614 709.545 252.614C712.795 252.614 715.619 253.33 718.017 254.761C720.426 256.193 722.176 258.29 723.267 261.051C724.369 263.812 724.591 267.182 723.932 271.159ZM714.386 270.068C714.705 268.068 714.727 266.386 714.455 265.023C714.182 263.648 713.608 262.614 712.733 261.92C711.858 261.216 710.682 260.864 709.205 260.864C707.523 260.864 706.034 261.273 704.739 262.091C703.443 262.909 702.369 264.085 701.517 265.619C700.665 267.153 700.068 269 699.727 271.159C699.364 273.182 699.33 274.864 699.625 276.205C699.932 277.545 700.534 278.551 701.432 279.222C702.341 279.892 703.523 280.227 704.977 280.227C706.636 280.227 708.102 279.83 709.375 279.034C710.659 278.239 711.722 277.085 712.562 275.574C713.415 274.062 714.023 272.227 714.386 270.068ZM732.182 288L727.682 253.091H738.25L739.477 274.568H739.75L748.955 253.091H757.273L759.386 274.636H759.659L767.977 253.091H778.545L762.455 288H753.386L750.727 268.5H750.455L741.25 288H732.182ZM789.455 288H775.818L781.614 253.091H794.705C798.295 253.091 801.295 253.812 803.705 255.256C806.114 256.699 807.824 258.761 808.835 261.443C809.847 264.125 810.045 267.318 809.432 271.023C808.841 274.591 807.642 277.642 805.835 280.176C804.04 282.71 801.744 284.648 798.949 285.989C796.165 287.33 793 288 789.455 288ZM786.625 279.955H790.068C791.795 279.955 793.335 279.653 794.688 279.051C796.051 278.437 797.188 277.415 798.097 275.983C799.017 274.54 799.682 272.568 800.091 270.068C800.477 267.705 800.466 265.881 800.057 264.597C799.648 263.301 798.869 262.403 797.722 261.903C796.574 261.392 795.091 261.136 793.273 261.136H789.761L786.625 279.955ZM817.886 288H807.659L824.977 253.091H837.932L843.659 288H833.432L830.023 262.705H829.75L817.886 288ZM818.295 274.227H837.523L836.295 281.318H817.068L818.295 274.227ZM847.822 253.091H858.391L862.822 267.273H863.163L872.3 253.091H882.868L866.095 277.023L864.254 288H854.845L856.686 277.023L847.822 253.091ZM902.935 264C903.037 262.875 902.764 261.994 902.116 261.358C901.469 260.71 900.378 260.386 898.844 260.386C897.866 260.386 897.048 260.5 896.389 260.727C895.741 260.955 895.236 261.267 894.872 261.665C894.52 262.062 894.298 262.523 894.207 263.045C894.105 263.455 894.111 263.83 894.224 264.17C894.349 264.5 894.582 264.801 894.923 265.074C895.276 265.347 895.736 265.591 896.304 265.807C896.884 266.023 897.571 266.216 898.366 266.386L901.094 267C902.957 267.409 904.52 267.949 905.781 268.619C907.054 269.278 908.054 270.062 908.781 270.972C909.509 271.881 909.986 272.898 910.213 274.023C910.452 275.148 910.457 276.375 910.23 277.705C909.844 280 908.952 281.943 907.554 283.534C906.156 285.125 904.332 286.335 902.082 287.165C899.832 287.994 897.23 288.409 894.276 288.409C891.253 288.409 888.685 287.96 886.571 287.062C884.469 286.153 882.946 284.767 882.003 282.903C881.071 281.028 880.844 278.636 881.321 275.727H890.321C890.185 276.795 890.298 277.693 890.662 278.42C891.026 279.148 891.611 279.699 892.418 280.074C893.224 280.449 894.23 280.636 895.435 280.636C896.457 280.636 897.332 280.511 898.06 280.261C898.787 280.011 899.361 279.665 899.781 279.222C900.202 278.778 900.457 278.273 900.548 277.705C900.639 277.182 900.548 276.716 900.276 276.307C900.003 275.898 899.509 275.528 898.793 275.199C898.077 274.869 897.094 274.568 895.844 274.295L892.503 273.545C889.537 272.864 887.298 271.739 885.787 270.17C884.276 268.602 883.741 266.455 884.185 263.727C884.548 261.5 885.463 259.557 886.929 257.898C888.406 256.227 890.281 254.932 892.554 254.011C894.838 253.08 897.366 252.614 900.139 252.614C902.957 252.614 905.315 253.085 907.213 254.028C909.122 254.972 910.491 256.295 911.321 258C912.162 259.705 912.389 261.705 912.003 264H902.935ZM925.835 253.091L925.153 257.182C924.972 258.295 924.563 259.409 923.926 260.523C923.29 261.625 922.551 262.653 921.71 263.608C920.869 264.551 920.04 265.341 919.222 265.977L915.608 264C916.21 263.182 916.795 262.233 917.364 261.153C917.932 260.074 918.347 258.75 918.608 257.182L919.29 253.091H925.835ZM934.29 253.091L933.608 257.182C933.426 258.295 933.017 259.409 932.381 260.523C931.744 261.625 931.006 262.653 930.165 263.608C929.324 264.551 928.494 265.341 927.676 265.977L924.062 264C924.665 263.182 925.25 262.233 925.818 261.153C926.386 260.074 926.801 258.75 927.062 257.182L927.744 253.091H934.29Z" fill="white"/>
<g clip-path="url(#clip0_430_3)">
<path d="M1163.88 159.574C1163.97 159.439 1164.07 159.304 1164.16 159.169C1164.38 158.856 1164.53 158.555 1164.63 158.244" fill="white"/>
<path d="M1164.63 158.244C1164.75 157.847 1164.79 157.433 1164.81 156.956C1164.94 153.444 1165.75 150.116 1168.08 147.339C1168.94 146.311 1169.84 145.306 1170.77 144.337C1172.13 142.912 1173.82 142.03 1175.74 141.626C1179.34 140.871 1182.97 140.725 1186.61 141.195C1187.09 141.256 1187.57 141.27 1188.05 141.306C1188.18 142.168 1188.7 142.884 1188.96 143.684C1189.67 145.785 1190.9 147.544 1192.4 149.104C1195.78 152.606 1201.63 151.556 1203.46 147.164C1203.13 147.114 1202.8 147.065 1202.47 147.015C1202.12 146.621 1202.08 146.074 1201.86 145.549C1201.52 145.726 1201.28 145.87 1201.03 145.983C1199.38 146.723 1197.69 146.225 1196.68 144.703C1196.52 144.47 1196.45 144.171 1196.16 144.048C1196.06 143.443 1196.07 142.836 1195.9 142.223C1195.53 140.825 1196.15 139.538 1197.43 138.736C1198.99 139.5 1200.57 140.241 1202.25 140.713C1203.24 140.991 1204.25 141.365 1205.3 140.909C1205.61 140.951 1205.92 140.992 1206.23 141.034C1206.42 141.857 1206.13 142.647 1206.03 143.433C1206.43 143.698 1206.79 143.504 1207.16 143.435C1210.97 142.724 1214.83 142.346 1218.68 141.88C1220.77 141.627 1222.85 141.308 1224.97 141.29C1227.63 141.267 1229.56 142.414 1230.72 144.813C1232.1 147.666 1233.07 150.658 1233.68 153.767C1232.96 154.053 1232.52 153.383 1231.93 153.231C1229.76 152.676 1228.6 153.746 1229.07 155.923C1229.1 156.062 1229.13 156.2 1229.16 156.339C1228.6 156.724 1228.04 157.109 1227.49 157.494C1227.18 157.082 1226.84 156.832 1226.36 157.253C1225.75 156.663 1225.58 155.839 1225.31 155.092C1224.87 153.915 1224.24 152.864 1223.56 151.82C1223.16 151.204 1222.69 150.996 1222.01 151.09C1221.68 151.136 1221.34 151.147 1221.02 151.215C1216.39 152.188 1211.77 153.188 1207.14 154.125C1206.4 154.275 1206.29 154.625 1206.24 155.277C1206.08 157.383 1205.53 159.408 1204.77 161.376C1200.78 160.373 1196.84 159.188 1193.03 157.627C1190.29 156.506 1187.48 155.509 1185.03 153.768C1184.83 153.625 1184.61 153.485 1184.41 153.729C1184.19 153.988 1184.25 154.285 1184.46 154.513C1185.05 155.172 1185.85 155.526 1186.62 155.905C1191.57 158.34 1196.68 160.343 1202.03 161.738C1203.6 162.148 1205.14 162.686 1206.69 163.151C1207.19 163.3 1207.41 163.551 1207.24 164.096C1206.63 166.062 1206.02 168.03 1205.43 170.006C1205.26 170.603 1204.92 170.736 1204.36 170.61C1202.54 170.199 1200.69 169.908 1198.91 169.38C1195.11 168.252 1191.3 167.149 1187.46 166.149C1184.91 165.485 1182.38 164.753 1179.95 163.745C1177.77 162.845 1176.19 161.403 1175.37 159.097C1174.37 156.288 1173.9 153.47 1174.44 150.51C1174.53 149.997 1174.5 149.46 1174.51 148.933C1174.52 148.622 1174.4 148.347 1174.05 148.327C1173.69 148.306 1173.59 148.607 1173.5 148.885C1173.47 148.976 1173.46 149.072 1173.45 149.168C1173.17 152.421 1173.01 155.618 1174.13 158.826C1174.48 159.814 1174.91 160.691 1175.44 161.463" fill="white"/>
<path d="M1152.59 190.571C1147.01 186.945 1141.29 183.523 1135.68 179.921C1134.27 179.012 1134.1 178.595 1134.84 177.127C1135.42 175.972 1136.04 174.837 1136.71 173.729C1137.42 172.548 1137.69 172.501 1138.89 173.227C1143.11 175.786 1147.21 178.538 1151.33 181.253C1161.46 187.922 1171.46 194.786 1181.66 201.344C1185.81 204.012 1210.81 220.327 1212.58 221.546C1212.01 222.272 1206.7 224.676 1206.23 225.329C1205.86 225.861 1165.57 199.002 1152.59 190.571V190.571Z" fill="white"/>
<path d="M1203.84 211.84C1198.56 208.18 1193.52 204.193 1188.32 200.417C1181.19 195.232 1173.88 190.289 1166.5 185.45C1164.53 184.159 1162.65 182.763 1160.79 181.321C1159.73 180.5 1159.72 180.482 1160.23 179.316C1160.92 177.77 1162.07 176.515 1162.95 175.091C1163.32 174.493 1163.85 174.708 1164.35 174.96C1165.85 175.725 1167.27 176.634 1168.55 177.712C1172.01 180.626 1175.76 183.103 1179.52 185.587C1185.72 189.679 1191.86 193.871 1197.89 198.212C1201.86 201.068 1205.89 203.829 1209.9 206.632C1209.14 207.137 1208.47 207.746 1207.82 208.368C1206.54 209.575 1205.28 210.807 1203.84 211.84H1203.84Z" fill="white"/>
<path d="M1174.8 191.75C1176.24 190.717 1177.5 189.485 1178.78 188.277C1179.43 187.656 1180.1 187.047 1180.86 186.542C1181.33 186.67 1181.7 186.966 1182.07 187.27C1183.93 189.455 1185.79 191.637 1187.64 193.826C1188 194.259 1188.43 194.678 1188.28 195.338C1186.64 196.154 1184.87 196.715 1183.45 197.925C1182.52 198.508 1181.59 199.094 1180.66 199.672C1180.41 199.827 1180.1 199.992 1180.22 200.318C1180.62 201.496 1180.71 202.834 1181.85 203.785C1183.08 202.216 1184.26 200.717 1185.44 199.218C1186.49 198.025 1187.61 196.876 1188.39 195.472C1189.51 194.559 1190.27 193.334 1191.17 192.237C1193.62 189.253 1196.03 186.235 1198.46 183.228C1198.63 183.008 1198.77 182.76 1198.93 182.527C1199.62 181.783 1200.29 181.007 1200.85 180.152C1202.88 177.945 1204.64 175.523 1206.54 173.214C1206.96 172.708 1207.51 172.285 1207.71 171.62C1208.09 171.288 1208.46 170.944 1208.64 170.465C1208.32 170.015 1207.79 170.07 1207.39 169.843C1206.94 169.589 1206.7 169.83 1206.6 170.279C1206.55 170.507 1206.51 170.736 1206.46 170.964C1206.09 171.705 1205.54 171.962 1204.71 171.722C1198.55 169.946 1192.25 168.717 1186.11 166.896C1183.95 166.258 1181.79 165.654 1179.7 164.804C1176.91 163.669 1175.15 161.723 1174.13 158.825C1173.01 155.618 1173.17 152.42 1173.45 149.167C1173.46 149.072 1173.47 148.975 1173.5 148.884C1173.59 148.606 1173.69 148.305 1174.05 148.326C1174.4 148.347 1174.52 148.621 1174.51 148.932C1174.5 149.459 1174.53 149.996 1174.44 150.51C1173.9 153.469 1174.37 156.288 1175.37 159.096C1176.19 161.403 1177.77 162.844 1179.95 163.745C1182.38 164.752 1184.91 165.485 1187.46 166.148C1191.3 167.148 1195.11 168.252 1198.91 169.379C1200.69 169.907 1202.54 170.198 1204.36 170.609C1204.92 170.735 1205.26 170.603 1205.43 170.006C1206.02 168.029 1206.63 166.061 1207.24 164.095C1207.41 163.55 1207.19 163.3 1206.69 163.151C1205.14 162.685 1203.6 162.147 1202.03 161.737C1196.68 160.343 1191.57 158.339 1186.62 155.904C1185.85 155.526 1185.05 155.171 1184.46 154.512C1184.25 154.284 1184.19 153.987 1184.41 153.728C1184.61 153.485 1184.83 153.624 1185.03 153.767C1187.48 155.508 1190.29 156.505 1193.03 157.626C1196.84 159.187 1200.78 160.373 1204.77 161.375C1205.63 161.668 1206.48 161.955 1207.34 162.258C1208.56 162.694 1208.56 162.699 1208.36 163.954C1208.34 164.03 1208.4 164.116 1208.44 164.263C1209.44 164.059 1210.44 163.855 1211.43 163.655C1211.52 163.281 1211.29 163.071 1211.15 162.824C1210.75 162.09 1210.39 161.321 1211.01 160.553C1211.61 159.797 1212.48 159.949 1213.28 160.093C1213.83 160.193 1214.36 160.459 1214.89 160.674C1215.19 160.797 1215.45 161.04 1215.83 161.054C1215.96 160.873 1216.1 160.676 1216.25 160.492C1216.53 160.145 1216.75 159.472 1217.31 159.867C1217.84 160.235 1217.42 160.755 1217.12 161.111C1216.65 161.679 1216.9 162.015 1217.37 162.401C1217.96 162.889 1218.46 163.481 1218.8 164.179C1219.1 164.799 1219.32 165.45 1218.85 166.081C1218.4 166.682 1217.77 166.781 1217.05 166.71C1216.22 166.629 1215.47 166.329 1214.75 165.954C1214.35 165.744 1214.09 165.721 1213.78 166.109C1213.47 166.502 1213.58 166.788 1213.84 167.112C1214.18 167.516 1214.56 167.893 1214.82 168.345C1215.53 169.611 1215.12 170.527 1213.73 170.995C1212.89 171.279 1212.04 171.311 1211.18 171.147C1209.77 170.875 1209.77 170.859 1208.92 172.093C1208.22 172.545 1207.83 173.284 1207.33 173.913C1205.51 176.195 1203.56 178.369 1201.89 180.766C1201.1 181.739 1200.31 182.712 1199.51 183.685C1197.05 186.52 1194.69 189.444 1192.43 192.447C1192.11 192.851 1191.79 193.255 1191.47 193.659C1189.67 195.689 1187.99 197.817 1186.35 199.974C1185.15 201.392 1183.95 202.81 1182.87 204.322C1181.61 205.63 1180.55 207.093 1179.38 208.535C1180.16 209.424 1180.95 210.25 1181.44 211.291C1181.78 213.342 1180.87 214.169 1178.86 213.668C1178.16 213.493 1177.48 213.249 1176.88 212.882C1176.36 212.569 1176 212.614 1175.69 213.114C1175.64 213.194 1175.57 213.27 1175.5 213.335C1175.24 213.587 1175 214.004 1174.56 213.634C1174.14 213.277 1174.42 212.924 1174.69 212.658C1175.28 212.066 1175.11 211.66 1174.51 211.182C1173.8 210.612 1173.22 209.9 1172.82 209.064C1172.15 207.647 1172.46 206.918 1173.97 206.318C1175.36 206.292 1176.61 206.761 1177.74 207.508C1178.31 207.881 1178.66 207.793 1179.04 207.262C1179.5 206.609 1180.02 205.997 1180.6 205.27C1178.83 204.051 1177.18 202.833 1175.45 201.75C1173.71 200.658 1172.06 199.431 1170.39 198.24C1169.4 197.533 1169.38 197.3 1169.9 196.077C1171.46 194.552 1173.29 193.328 1174.8 191.75L1174.8 191.75ZM1212.22 170.154C1212.51 170.124 1212.85 170.127 1213.18 170.051C1214.09 169.835 1214.26 169.419 1213.72 168.63C1213.42 168.199 1213.06 167.809 1212.71 167.423C1211.93 166.566 1211.92 166.574 1212.46 165.483C1212.6 165.179 1212.75 164.704 1212.29 164.679C1210.8 164.597 1209.4 165.049 1208 165.522C1207.96 165.536 1207.92 165.582 1207.9 165.623C1207.54 166.504 1207.05 167.46 1207.18 168.34C1207.29 169.051 1208.43 168.96 1209.08 169.295C1209.36 169.441 1209.59 169.377 1209.86 169.258C1210.13 169.14 1210.42 169.163 1210.57 169.506C1210.9 170.239 1211.59 170.074 1212.22 170.154ZM1175.99 210.985C1176.57 210.265 1177.15 209.552 1177.76 208.794C1176.89 208.219 1176.11 207.752 1175.22 207.557C1174.73 207.449 1174.07 207.207 1173.74 207.674C1173.41 208.137 1173.81 208.673 1174.1 209.107C1174.59 209.812 1175.16 210.439 1175.99 210.985ZM1178.63 209.49C1178.1 210.145 1177.64 210.689 1177.21 211.247C1177.01 211.495 1176.97 211.707 1177.33 211.913C1178.04 212.316 1178.8 212.574 1179.6 212.694C1180.38 212.814 1180.64 212.433 1180.37 211.696C1180.04 210.825 1179.41 210.183 1178.63 209.49V209.49ZM1211.73 161.287C1212.04 162.543 1212.82 163.355 1213.88 164.054C1214.31 163.367 1214.71 162.746 1215.17 162.026C1214.02 161.514 1213.07 160.831 1211.73 161.287ZM1216.06 162.688C1215.64 163.479 1215.08 164.002 1214.84 164.74C1215.83 165.327 1216.79 165.802 1218 165.422C1217.86 164.211 1217.02 163.53 1216.06 162.688Z" fill="white"/>
<path d="M1201.89 180.766C1203.56 178.369 1205.51 176.196 1207.33 173.913C1207.83 173.284 1208.22 172.545 1208.92 172.094C1210.85 173.253 1212.76 174.432 1214.7 175.565C1215.81 176.213 1216.79 177.081 1218 177.557C1218.15 177.993 1218.44 178.213 1218.91 178.114C1219.91 179.091 1221.2 179.671 1222.28 180.533C1223.49 181.488 1224.7 182.427 1225.67 183.625C1226.91 185.143 1227.75 186.814 1227.8 188.84C1227.83 190.318 1227.34 191.538 1226.36 192.621C1224.26 194.942 1221.81 196.853 1219.39 198.813C1218.94 199.175 1218.51 199.549 1218.07 199.919C1215.91 198.568 1213.76 197.216 1211.6 195.864C1212.82 194.728 1214.02 193.574 1215.27 192.465C1215.78 192.009 1215.77 191.641 1215.34 191.15C1214.16 189.835 1212.99 188.525 1211.41 187.667C1211.28 187.336 1210.91 187.323 1210.68 187.114C1210.49 186.636 1210.05 186.408 1209.67 186.132C1207.13 184.267 1204.57 182.429 1201.89 180.766H1201.89Z" fill="white"/>
<path d="M1198.04 207.792C1199.68 205.635 1200.83 203.281 1204.09 202.584C1204.31 202.766 1215.13 210.082 1215.36 210.245C1219.27 212.979 1243.81 230.44 1248.18 233.709C1248.57 234.003 1248.87 234.372 1249.1 234.793C1250.16 236.671 1251.21 238.554 1252.27 240.429C1252.46 240.771 1252.7 241.134 1252.47 241.499C1252.2 241.951 1251.68 241.793 1251.29 241.714C1249.32 241.317 1247.37 240.837 1245.4 240.459C1243.62 240.118 1242.13 239.325 1240.69 238.216C1232.66 232.068 1224.33 226.338 1216.05 220.54C1214.28 219.304 1212.55 218.018 1210.8 216.763C1210.41 216.486 1198.51 207.926 1198.04 207.792Z" fill="white"/>
<path d="M1197.43 138.736C1196.15 139.538 1195.53 140.825 1195.9 142.223C1196.07 142.836 1196.06 143.443 1196.16 144.049C1195.79 145.092 1195.17 145.936 1194.04 146.172C1193.01 146.388 1192.08 145.939 1191.08 145.36C1192.14 147.229 1193.29 148.549 1194.54 149.313C1195.91 150.152 1197.31 150.358 1198.89 149.756C1200.39 149.185 1201.42 148.114 1202.47 147.015C1202.8 147.065 1203.13 147.114 1203.46 147.164C1201.63 151.556 1195.78 152.606 1192.4 149.104C1190.9 147.544 1189.67 145.785 1188.96 143.684C1188.7 142.884 1188.18 142.168 1188.05 141.306C1187.71 138.276 1188.48 135.506 1190.11 132.973C1193.08 128.354 1197.77 126.668 1202.93 128.397C1204.73 128.998 1206.06 130.189 1206.71 132.064C1207.31 133.786 1207.96 135.492 1208.07 137.326C1208.12 138.144 1208.29 139.151 1206.99 139.286C1206.69 139.317 1206.68 139.598 1206.6 139.816C1206.46 140.218 1206.55 140.689 1206.23 141.033C1205.92 140.992 1205.61 140.951 1205.3 140.91C1205.31 140.722 1205.29 140.531 1205.32 140.346C1205.38 139.879 1205.64 139.346 1205.49 138.968C1205.3 138.485 1204.63 138.799 1204.2 138.634C1203.67 138.431 1203.13 138.261 1202.61 138.023C1200.72 137.149 1199.03 137.551 1197.43 138.736Z" fill="white"/>
<path d="M1211.7 208.043C1211.58 209.056 1212.16 209.864 1212.5 210.741C1212.81 211.539 1213.25 212.287 1213.43 213.135C1213.49 213.422 1213.5 213.722 1213.26 213.936C1212.96 214.207 1212.64 214.075 1212.34 213.9C1212.1 213.755 1211.85 213.598 1211.64 213.413C1208.87 211.056 1205.84 209.052 1202.95 206.858C1201.34 205.638 1200.81 204.928 1202.79 203.537C1203.21 203.244 1203.62 202.891 1203.85 202.397C1205.75 200.766 1207.39 198.9 1209.16 196.887C1207.91 196.997 1206.94 196.827 1206.03 196.347C1205.62 196.13 1205.33 196.21 1205.07 196.61C1204.76 197.092 1204.41 197.545 1204.05 197.998C1203.86 198.238 1203.61 198.409 1203.31 198.216C1202.95 197.984 1202.99 197.664 1203.22 197.347C1203.63 196.762 1204.04 196.177 1204.37 195.704C1203.94 195.201 1203.53 194.732 1203.12 194.263C1202.67 193.755 1202.26 193.229 1202.11 192.549C1201.83 191.343 1202.38 190.61 1203.62 190.516C1204.66 190.437 1205.65 190.661 1206.5 191.202C1207.23 191.658 1207.56 191.428 1207.97 190.817C1208.84 189.556 1209.77 188.345 1210.68 187.114C1210.91 187.323 1211.28 187.336 1211.41 187.667C1211.37 188.131 1211.04 188.43 1210.79 188.775C1210.09 189.748 1209.4 190.721 1208.67 191.671C1208.36 192.081 1208.31 192.361 1208.74 192.743C1209.72 193.611 1210.37 194.673 1210.26 196.082C1210.78 195.939 1211.15 195.647 1211.6 195.864C1213.76 197.216 1215.91 198.568 1218.07 199.919C1218.4 200.184 1218.77 200.421 1219.07 200.721C1219.8 201.451 1219.78 201.991 1218.94 202.588C1217.66 203.497 1216.32 204.317 1215.06 205.252C1213.89 206.12 1212.58 206.828 1211.7 208.043L1211.7 208.043ZM1205.21 194.563C1205.62 194.011 1205.99 193.513 1206.36 193.011C1206.54 192.759 1206.65 192.493 1206.3 192.293C1205.55 191.86 1204.73 191.574 1203.87 191.507C1203.21 191.457 1202.96 191.94 1203.25 192.549C1203.67 193.386 1204.29 194.037 1205.21 194.563ZM1206.19 195.175C1206.89 195.625 1207.51 195.789 1208.18 195.821C1208.5 195.836 1208.88 195.904 1209.06 195.556C1209.21 195.242 1209.06 194.915 1208.88 194.624C1208.55 194.107 1208.17 193.645 1207.6 193.273C1207.04 193.847 1206.63 194.459 1206.19 195.175V195.175Z" fill="white"/>
<path d="M1202.69 223.311C1203.94 221.941 1205.88 219.214 1207.21 217.982C1209.28 219.623 1211.56 220.939 1213.85 222.246C1215.35 223.102 1216.83 223.991 1218.26 224.946C1218.93 225.384 1219.44 225.9 1219.82 226.589C1220.67 228.095 1221.51 229.602 1222.55 230.987C1222.8 231.33 1223.11 231.704 1222.83 232.158C1222.54 232.622 1222.04 232.496 1221.65 232.402C1219.51 231.892 1217.38 231.287 1215.23 230.824C1213.92 230.544 1203.41 224.244 1202.69 223.311H1202.69Z" fill="white"/>
<path d="M1218.91 178.114C1218.44 178.214 1218.15 177.993 1218 177.558C1221.48 172.332 1224.95 167.107 1228.52 161.74C1227.06 161.581 1226.71 160.668 1226.6 159.526C1226.54 158.768 1226.32 158.024 1226.36 157.253C1226.84 156.832 1227.18 157.082 1227.49 157.493C1227.47 158.305 1227.62 159.097 1227.78 159.889C1227.88 160.384 1228.03 160.718 1228.61 160.35C1228.77 160.252 1228.96 160.21 1229.15 160.171C1230.03 159.983 1230.23 159.148 1230.57 158.523C1230.78 158.142 1230.16 157.866 1229.95 157.517C1229.7 157.112 1229.42 156.731 1229.16 156.339C1229.13 156.201 1229.1 156.062 1229.07 155.923C1228.6 153.746 1229.76 152.676 1231.93 153.231C1232.52 153.383 1232.96 154.053 1233.68 153.767C1233.96 153.459 1234.31 153.252 1234.68 153.532C1234.92 153.716 1234.89 154.053 1234.72 154.323C1234.49 154.697 1234.7 154.923 1234.96 155.166C1235.54 155.737 1236.05 156.374 1236.36 157.143C1237.03 158.86 1236.48 159.869 1234.67 160.288C1234.53 160.319 1234.4 160.375 1234.23 160.434C1234.23 161.15 1234.37 161.858 1234.22 162.566C1233.83 164.302 1232.18 164.882 1230.84 163.699C1230.38 163.294 1230.06 162.742 1229.58 162.149C1226.02 167.485 1222.47 172.8 1218.91 178.114L1218.91 178.114ZM1232 155.111C1232.12 154.688 1232.03 154.347 1231.55 154.261C1231.1 154.178 1230.58 154.045 1230.21 154.395C1229.77 154.819 1229.99 155.346 1230.19 155.83C1230.49 156.408 1230.75 157.019 1231.38 157.337C1231.96 156.528 1232.17 155.787 1232 155.111V155.111ZM1231.63 159.218C1230.01 161.167 1230.13 160.879 1231.34 162.653C1231.36 162.692 1231.4 162.723 1231.43 162.758C1231.74 163.094 1232.12 163.305 1232.57 163.161C1233.04 163.012 1233.16 162.573 1233.24 162.148C1233.52 160.631 1233.17 160.004 1231.63 159.218L1231.63 159.218ZM1234.68 159.157C1235.37 159.126 1235.7 158.695 1235.49 157.994C1235.27 157.26 1234.87 156.613 1234.33 156.059C1234.2 155.927 1234.07 155.741 1233.86 155.815C1233.62 155.905 1233.49 156.144 1233.54 156.389C1233.71 157.224 1233.92 158.053 1234.11 158.883C1234.19 159.201 1234.45 159.143 1234.68 159.157ZM1232.87 158.52C1232.98 158.163 1232.9 157.88 1232.57 157.698C1232.55 157.687 1232.43 157.806 1232.4 157.883C1232.16 158.375 1232.6 158.373 1232.87 158.52Z" fill="white"/>
<path d="M1116.51 148.314C1115.01 147.609 1114.07 146.543 1113.33 145.314C1112.57 144.051 1112.14 142.696 1112.59 141.199C1113.03 139.766 1114.32 139.048 1115.73 139.471C1118.83 140.404 1120.53 145.126 1118.72 147.793C1118.33 148.357 1117.82 148.778 1117.25 149.157C1112.73 152.207 1108.08 151.916 1103.37 149.661C1102.41 149.203 1101.54 148.614 1100.8 147.844C1100.55 147.581 1100.14 147.316 1100.51 146.886C1100.88 146.46 1101.22 146.773 1101.49 147.031C1103.44 148.884 1105.87 149.729 1108.44 150.173C1111.27 150.663 1113.91 150.063 1116.51 148.314H1116.51ZM1116.79 148.061C1118.25 146.976 1118.81 145.694 1118.41 144.313C1118.03 142.999 1117.27 141.907 1116.24 141.003C1115.66 140.484 1114.96 140.303 1114.25 140.628C1113.61 140.923 1113.53 141.573 1113.52 142.22C1113.48 144.221 1114.57 145.631 1115.99 146.848C1116.37 147.178 1116.86 147.394 1116.79 148.061H1116.79Z" fill="white"/>
<path d="M1142.08 163.854C1141.65 163.757 1141.03 163.662 1140.44 163.482C1133.84 161.464 1127.81 158.328 1122.39 154.051C1121.38 153.254 1120.54 152.252 1119.61 151.353C1119.35 151.1 1119.11 150.782 1119.36 150.484C1119.65 150.13 1120.05 150.285 1120.36 150.576C1120.43 150.641 1120.5 150.709 1120.56 150.78C1123.7 154.248 1127.63 156.582 1131.71 158.727C1135.1 160.506 1138.57 162.07 1142.32 162.892C1142.46 162.922 1142.6 162.961 1142.74 162.996C1142.99 163.059 1143.18 163.182 1143.16 163.477C1143.14 163.878 1142.84 163.886 1142.54 163.885C1142.45 163.884 1142.35 163.873 1142.08 163.854H1142.08Z" fill="white"/>
<path d="M1121.28 168.445C1121.19 168.773 1120.99 168.85 1120.73 168.836C1120.42 168.821 1120.2 168.621 1119.97 168.46C1114.3 164.563 1108.99 160.28 1104.86 154.688C1104.69 154.457 1104.49 154.244 1104.34 154.001C1104.21 153.789 1104.17 153.525 1104.38 153.342C1104.63 153.123 1104.92 153.172 1105.16 153.371C1105.34 153.522 1105.5 153.709 1105.64 153.901C1109.65 159.393 1114.84 163.607 1120.33 167.504C1120.6 167.697 1120.87 167.895 1121.12 168.116C1121.21 168.2 1121.24 168.356 1121.28 168.445V168.445Z" fill="white"/>
<path d="M1199.51 183.685C1200.3 185.933 1199.36 188.617 1197.09 189.995C1195.59 190.912 1194.18 192.002 1192.43 192.448C1194.69 189.444 1197.05 186.52 1199.51 183.685H1199.51Z" fill="white"/>
<path d="M1232 155.111C1231.39 155.35 1230.79 155.59 1230.19 155.83C1229.99 155.346 1229.77 154.819 1230.21 154.394C1230.58 154.044 1231.1 154.178 1231.55 154.26C1232.03 154.346 1232.12 154.688 1232 155.111V155.111Z" fill="white"/>
<path d="M1175.44 161.463C1176.47 162.956 1177.86 164.056 1179.7 164.805C1181.79 165.655 1183.95 166.259 1186.11 166.897C1192.25 168.717 1198.55 169.946 1204.71 171.722C1205.54 171.963 1206.09 171.705 1206.46 170.965C1206.88 171.183 1207.3 171.402 1207.72 171.62C1207.51 172.285 1206.96 172.709 1206.54 173.215C1204.64 175.524 1202.88 177.946 1200.85 180.152C1199.33 178.979 1194.04 175.98 1193.09 175.788C1193.54 176.204 1193.93 176.552 1194.31 176.917C1196.05 178.618 1197.85 180.277 1198.93 182.525C1198.77 182.76 1198.63 183.009 1198.46 183.228C1196.03 186.236 1193.62 189.254 1191.17 192.237C1190.27 193.335 1189.51 194.56 1188.39 195.472C1188.35 195.43 1188.31 195.385 1188.28 195.338C1188.43 194.678 1188 194.26 1187.64 193.827C1185.79 191.638 1183.93 189.456 1182.07 187.271C1183.98 186.098 1185.89 184.925 1187.93 183.672C1187.07 182.924 1186.14 182.724 1185.24 182.562C1181.92 181.958 1178.78 180.769 1175.66 179.531C1172.16 178.139 1169 176.161 1166.21 173.611C1164.99 172.501 1164.02 171.214 1163.27 169.736C1161.46 166.167 1161.76 162.779 1163.88 159.574" fill="white"/>
<path d="M1092.46 132.692C1091.23 132.017 1090.06 131.792 1088.95 131.401C1088.58 131.27 1088.2 131.151 1087.85 130.973C1087.5 130.79 1087.15 130.518 1087.34 130.065C1087.53 129.587 1087.94 129.707 1088.34 129.836C1089.71 130.281 1091.09 130.709 1092.53 131.161C1092.97 130.325 1092.39 129.632 1092.35 128.907C1092.33 128.463 1092.21 128.022 1092.2 127.579C1092.19 127.317 1092.38 127.073 1092.66 127.016C1093.03 126.939 1093.3 127.14 1093.39 127.494C1093.59 128.308 1093.76 129.129 1093.94 129.946C1094.01 130.259 1094.05 130.585 1094.39 130.771C1095 130.821 1095.31 130.359 1095.68 130.016C1096.06 129.662 1096.37 129.228 1096.77 128.897C1097.24 128.505 1097.8 127.723 1098.42 128.337C1099.09 129.008 1098.15 129.423 1097.76 129.857C1097.2 130.467 1096.6 131.03 1095.73 131.89C1097.27 132.034 1098.45 132.027 1099.57 132.334C1099.97 132.446 1100.37 132.571 1100.29 133.062C1100.21 133.557 1099.76 133.538 1099.36 133.542C1098.51 133.549 1097.67 133.234 1096.79 133.478C1096.67 134.474 1097.49 135.003 1097.81 135.743C1097.97 136.095 1098.22 136.407 1098.41 136.745C1098.58 137.047 1098.64 137.379 1098.33 137.615C1097.94 137.91 1097.55 137.765 1097.31 137.415C1096.79 136.665 1096.35 135.871 1095.84 135.117C1095.6 134.757 1095.49 134.263 1094.82 134.099C1094.28 135.392 1094.15 136.785 1093.81 138.128C1093.65 138.761 1093.95 140.034 1092.77 139.793C1091.85 139.606 1092.4 138.572 1092.49 137.936C1092.66 136.801 1092.95 135.686 1093.25 134.317C1091.94 134.64 1091.18 135.432 1090.31 136.022C1089.93 136.279 1089.61 136.611 1089.22 136.854C1089.1 136.931 1088.83 136.88 1088.68 136.798C1088.42 136.653 1088.38 136.362 1088.49 136.119C1088.74 135.57 1089.24 135.232 1089.7 134.862C1090.55 134.17 1091.58 133.684 1092.46 132.692L1092.46 132.692Z" fill="white"/>
<path d="M1088.7 161.882C1087.58 161.219 1086.52 160.999 1085.52 160.615C1085.18 160.486 1084.83 160.369 1084.52 160.195C1084.19 160.016 1083.88 159.748 1084.05 159.304C1084.23 158.835 1084.59 158.953 1084.95 159.079C1086.2 159.516 1087.46 159.935 1088.76 160.38C1089.16 159.56 1088.63 158.88 1088.6 158.168C1088.58 157.732 1088.47 157.3 1088.46 156.865C1088.45 156.608 1088.63 156.368 1088.88 156.313C1089.22 156.237 1089.46 156.434 1089.54 156.782C1089.72 157.58 1089.87 158.385 1090.04 159.188C1090.1 159.494 1090.14 159.815 1090.45 159.997C1091 160.046 1091.29 159.592 1091.62 159.256C1091.97 158.908 1092.25 158.483 1092.61 158.158C1093.04 157.774 1093.54 157.006 1094.1 157.608C1094.71 158.267 1093.86 158.674 1093.5 159.1C1093 159.699 1092.45 160.251 1091.67 161.094C1093.06 161.236 1094.13 161.229 1095.15 161.53C1095.51 161.64 1095.88 161.763 1095.8 162.245C1095.73 162.73 1095.32 162.712 1094.95 162.715C1094.19 162.722 1093.42 162.413 1092.62 162.652C1092.52 163.63 1093.26 164.149 1093.56 164.875C1093.7 165.22 1093.92 165.526 1094.09 165.858C1094.25 166.154 1094.31 166.48 1094.02 166.712C1093.67 167.001 1093.31 166.859 1093.1 166.515C1092.63 165.78 1092.23 165 1091.77 164.261C1091.55 163.907 1091.45 163.422 1090.84 163.262C1090.35 164.53 1090.23 165.897 1089.92 167.215C1089.78 167.836 1090.05 169.085 1088.98 168.849C1088.14 168.665 1088.64 167.65 1088.72 167.026C1088.87 165.913 1089.14 164.819 1089.41 163.476C1088.22 163.793 1087.53 164.569 1086.75 165.149C1086.4 165.401 1086.11 165.727 1085.76 165.965C1085.65 166.04 1085.4 165.99 1085.27 165.909C1085.03 165.767 1085 165.482 1085.1 165.244C1085.32 164.705 1085.78 164.374 1086.19 164.011C1086.97 163.331 1087.9 162.855 1088.7 161.882H1088.7Z" fill="white"/>
</g>
<g clip-path="url(#clip1_430_3)">
<path d="M274.684 274.574C274.594 274.439 274.502 274.304 274.406 274.169C274.182 273.856 274.036 273.555 273.94 273.244" fill="white"/>
<path d="M273.94 273.244C273.817 272.847 273.776 272.433 273.758 271.956C273.626 268.444 272.816 265.116 270.485 262.339C269.622 261.311 268.729 260.306 267.801 259.337C266.435 257.912 264.745 257.03 262.823 256.626C259.226 255.871 255.601 255.725 251.952 256.195C251.477 256.256 250.996 256.27 250.519 256.306C250.387 257.168 249.87 257.884 249.602 258.684C248.898 260.785 247.667 262.544 246.164 264.104C242.791 267.606 236.94 266.556 235.108 262.164C235.438 262.114 235.768 262.065 236.098 262.015C236.444 261.621 236.484 261.074 236.71 260.549C237.046 260.726 237.285 260.87 237.538 260.983C239.191 261.723 240.872 261.225 241.889 259.703C242.045 259.47 242.117 259.171 242.411 259.048C242.508 258.443 242.498 257.836 242.663 257.223C243.039 255.825 242.418 254.538 241.139 253.736C239.573 254.5 237.995 255.241 236.315 255.713C235.323 255.991 234.313 256.365 233.264 255.909C232.957 255.951 232.649 255.992 232.341 256.034C232.147 256.857 232.432 257.647 232.539 258.433C232.137 258.698 231.775 258.504 231.407 258.435C227.594 257.724 223.734 257.346 219.887 256.88C217.798 256.627 215.715 256.308 213.601 256.29C210.94 256.267 209.002 257.414 207.842 259.813C206.462 262.666 205.492 265.658 204.884 268.767C205.606 269.053 206.042 268.383 206.639 268.231C208.809 267.676 209.971 268.746 209.494 270.923C209.464 271.062 209.436 271.2 209.407 271.339C209.965 271.724 210.523 272.109 211.08 272.494C211.384 272.082 211.722 271.832 212.203 272.253C212.819 271.663 212.984 270.839 213.261 270.092C213.698 268.915 214.326 267.864 215.006 266.82C215.407 266.204 215.879 265.996 216.556 266.09C216.887 266.136 217.225 266.147 217.55 266.215C222.175 267.188 226.793 268.188 231.424 269.125C232.17 269.275 232.275 269.625 232.325 270.277C232.487 272.383 233.037 274.408 233.795 276.376C237.789 275.373 241.731 274.188 245.541 272.627C248.277 271.506 251.089 270.509 253.532 268.768C253.734 268.625 253.957 268.485 254.16 268.729C254.376 268.988 254.314 269.285 254.11 269.513C253.52 270.172 252.72 270.526 251.95 270.905C247 273.34 241.887 275.343 236.54 276.738C234.969 277.148 233.43 277.686 231.873 278.151C231.373 278.3 231.153 278.551 231.323 279.096C231.94 281.062 232.551 283.03 233.133 285.006C233.309 285.603 233.651 285.736 234.208 285.61C236.024 285.199 237.875 284.908 239.656 284.38C243.46 283.252 247.268 282.149 251.108 281.149C253.654 280.485 256.182 279.753 258.618 278.745C260.797 277.845 262.372 276.403 263.196 274.097C264.201 271.288 264.668 268.47 264.13 265.51C264.037 264.997 264.067 264.46 264.057 263.933C264.052 263.622 264.165 263.347 264.519 263.327C264.879 263.306 264.978 263.607 265.066 263.885C265.095 263.976 265.111 264.072 265.119 264.168C265.394 267.421 265.552 270.618 264.432 273.826C264.087 274.814 263.654 275.691 263.123 276.463" fill="white"/>
<path d="M285.975 305.571C291.56 301.945 297.279 298.523 302.882 294.921C304.296 294.012 304.462 293.595 303.727 292.127C303.149 290.972 302.523 289.837 301.856 288.729C301.145 287.548 300.873 287.501 299.674 288.227C295.452 290.786 291.355 293.538 287.233 296.253C277.107 302.922 267.111 309.786 256.911 316.344C252.76 319.012 227.754 335.327 225.985 336.546C226.557 337.272 231.871 339.676 232.334 340.329C232.712 340.861 272.992 314.002 285.975 305.571V305.571Z" fill="white"/>
<path d="M234.722 326.84C240.004 323.18 245.047 319.193 250.243 315.417C257.381 310.232 264.69 305.289 272.067 300.45C274.035 299.159 275.921 297.763 277.777 296.321C278.834 295.5 278.849 295.482 278.332 294.316C277.647 292.77 276.498 291.515 275.616 290.091C275.246 289.493 274.716 289.708 274.221 289.96C272.72 290.725 271.297 291.634 270.017 292.712C266.561 295.626 262.81 298.103 259.045 300.587C252.844 304.679 246.708 308.871 240.676 313.212C236.709 316.068 232.675 318.829 228.67 321.632C229.425 322.137 230.092 322.746 230.751 323.368C232.03 324.575 233.29 325.807 234.722 326.84H234.722Z" fill="white"/>
<path d="M263.763 306.75C262.33 305.717 261.071 304.485 259.791 303.277C259.132 302.656 258.466 302.047 257.711 301.542C257.237 301.67 256.864 301.966 256.495 302.27C254.638 304.455 252.78 306.637 250.929 308.826C250.563 309.259 250.132 309.678 250.287 310.338C251.923 311.154 253.694 311.715 255.119 312.925C256.049 313.508 256.977 314.094 257.91 314.672C258.159 314.827 258.462 314.992 258.351 315.318C257.95 316.496 257.86 317.834 256.718 318.785C255.483 317.216 254.305 315.717 253.126 314.218C252.072 313.025 250.962 311.876 250.175 310.472C249.056 309.559 248.297 308.334 247.395 307.237C244.943 304.253 242.532 301.235 240.109 298.228C239.933 298.008 239.793 297.76 239.638 297.527C238.943 296.783 238.28 296.007 237.717 295.152C235.69 292.945 233.925 290.523 232.022 288.214C231.606 287.708 231.058 287.285 230.852 286.62C230.473 286.288 230.111 285.944 229.923 285.465C230.242 285.015 230.777 285.07 231.175 284.843C231.623 284.589 231.869 284.83 231.965 285.279C232.013 285.507 232.059 285.736 232.106 285.964C232.479 286.705 233.026 286.962 233.859 286.722C240.015 284.946 246.314 283.717 252.459 281.896C254.614 281.258 256.779 280.654 258.866 279.804C261.653 278.669 263.42 276.723 264.432 273.825C265.552 270.618 265.394 267.42 265.119 264.167C265.111 264.072 265.095 263.975 265.066 263.884C264.978 263.606 264.879 263.305 264.519 263.326C264.165 263.347 264.052 263.621 264.057 263.932C264.067 264.459 264.037 264.996 264.13 265.51C264.668 268.469 264.201 271.288 263.197 274.096C262.372 276.403 260.797 277.844 258.618 278.745C256.182 279.752 253.654 280.485 251.108 281.148C247.268 282.148 243.46 283.252 239.656 284.379C237.875 284.907 236.024 285.198 234.208 285.609C233.651 285.735 233.309 285.603 233.133 285.006C232.551 283.029 231.94 281.061 231.323 279.095C231.153 278.55 231.373 278.3 231.873 278.151C233.43 277.685 234.969 277.147 236.54 276.737C241.887 275.343 247 273.339 251.95 270.904C252.72 270.526 253.521 270.171 254.11 269.512C254.314 269.284 254.377 268.987 254.16 268.728C253.957 268.485 253.734 268.624 253.533 268.767C251.089 270.508 248.277 271.505 245.541 272.626C241.731 274.187 237.789 275.373 233.796 276.375C232.941 276.668 232.082 276.955 231.229 277.258C230.003 277.694 230.006 277.699 230.212 278.954C230.224 279.03 230.171 279.116 230.13 279.263C229.129 279.059 228.124 278.855 227.14 278.655C227.05 278.281 227.277 278.071 227.412 277.824C227.813 277.09 228.172 276.321 227.561 275.553C226.96 274.797 226.085 274.949 225.29 275.093C224.736 275.193 224.209 275.459 223.679 275.674C223.374 275.797 223.118 276.04 222.737 276.054C222.604 275.873 222.471 275.676 222.321 275.492C222.039 275.145 221.816 274.472 221.254 274.867C220.729 275.235 221.145 275.755 221.443 276.111C221.918 276.679 221.669 277.015 221.197 277.401C220.602 277.889 220.104 278.481 219.764 279.179C219.462 279.799 219.251 280.45 219.72 281.081C220.167 281.682 220.801 281.781 221.513 281.71C222.342 281.629 223.094 281.329 223.813 280.954C224.216 280.744 224.472 280.721 224.782 281.109C225.097 281.502 224.989 281.788 224.722 282.112C224.389 282.516 224.002 282.893 223.749 283.345C223.038 284.611 223.449 285.527 224.838 285.995C225.681 286.279 226.531 286.311 227.385 286.147C228.798 285.875 228.795 285.859 229.642 287.093C230.349 287.545 230.738 288.284 231.238 288.913C233.053 291.195 235.006 293.369 236.676 295.766C237.468 296.739 238.26 297.712 239.052 298.685C241.519 301.52 243.876 304.444 246.135 307.447C246.456 307.851 246.777 308.255 247.098 308.659C248.897 310.689 250.575 312.817 252.218 314.974C253.419 316.392 254.619 317.81 255.701 319.322C256.956 320.63 258.019 322.093 259.189 323.535C258.407 324.424 257.618 325.25 257.124 326.291C256.791 328.342 257.701 329.169 259.706 328.668C260.407 328.493 261.082 328.249 261.691 327.882C262.21 327.569 262.564 327.614 262.881 328.114C262.931 328.194 262.994 328.27 263.063 328.335C263.328 328.587 263.566 329.004 264.002 328.634C264.425 328.277 264.149 327.924 263.88 327.658C263.284 327.066 263.462 326.66 264.057 326.182C264.767 325.612 265.346 324.9 265.743 324.064C266.416 322.647 266.109 321.918 264.593 321.318C263.204 321.292 261.962 321.761 260.827 322.508C260.261 322.881 259.904 322.793 259.527 322.262C259.063 321.609 258.542 320.997 257.97 320.27C259.739 319.051 261.385 317.833 263.115 316.75C264.859 315.658 266.503 314.431 268.174 313.24C269.166 312.533 269.187 312.3 268.671 311.077C267.108 309.552 265.279 308.328 263.763 306.75L263.763 306.75ZM226.351 285.154C226.052 285.124 225.712 285.127 225.391 285.051C224.476 284.835 224.311 284.419 224.851 283.63C225.145 283.199 225.502 282.809 225.855 282.423C226.641 281.566 226.643 281.574 226.11 280.483C225.962 280.179 225.819 279.704 226.275 279.679C227.762 279.597 229.172 280.049 230.564 280.522C230.604 280.536 230.645 280.582 230.662 280.623C231.023 281.504 231.517 282.46 231.385 283.34C231.279 284.051 230.137 283.96 229.488 284.295C229.205 284.441 228.976 284.377 228.703 284.258C228.433 284.14 228.148 284.163 227.995 284.506C227.669 285.239 226.98 285.074 226.351 285.154ZM262.577 325.985C261.996 325.265 261.42 324.552 260.808 323.794C261.681 323.219 262.458 322.752 263.346 322.557C263.839 322.449 264.496 322.207 264.829 322.674C265.158 323.137 264.762 323.673 264.462 324.107C263.974 324.812 263.403 325.439 262.577 325.985ZM259.939 324.49C260.469 325.145 260.922 325.689 261.358 326.247C261.552 326.495 261.601 326.707 261.237 326.913C260.525 327.316 259.764 327.574 258.972 327.694C258.19 327.814 257.923 327.433 258.199 326.696C258.525 325.825 259.152 325.183 259.939 324.49V324.49ZM226.835 276.287C226.524 277.543 225.745 278.355 224.692 279.054C224.253 278.367 223.856 277.746 223.397 277.026C224.543 276.514 225.494 275.831 226.835 276.287ZM222.508 277.688C222.931 278.479 223.485 279.002 223.722 279.74C222.735 280.327 221.78 280.802 220.571 280.422C220.711 279.211 221.547 278.53 222.508 277.688Z" fill="white"/>
<path d="M236.676 295.766C235.006 293.369 233.053 291.196 231.238 288.913C230.738 288.284 230.349 287.545 229.642 287.094C227.717 288.253 225.803 289.432 223.862 290.565C222.752 291.213 221.775 292.081 220.562 292.557C220.412 292.993 220.131 293.213 219.653 293.114C218.653 294.091 217.369 294.671 216.283 295.533C215.08 296.488 213.868 297.427 212.894 298.625C211.658 300.143 210.814 301.814 210.771 303.84C210.739 305.318 211.228 306.538 212.206 307.621C214.304 309.942 216.761 311.853 219.178 313.813C219.623 314.175 220.058 314.549 220.497 314.919C222.652 313.568 224.808 312.216 226.964 310.864C225.746 309.728 224.542 308.574 223.3 307.465C222.79 307.009 222.792 306.641 223.229 306.15C224.402 304.835 225.575 303.525 227.152 302.667C227.287 302.336 227.661 302.323 227.887 302.114C228.076 301.636 228.521 301.408 228.897 301.132C231.437 299.267 233.996 297.429 236.676 295.766H236.676Z" fill="white"/>
<path d="M240.528 322.792C238.885 320.635 237.732 318.281 234.476 317.584C234.257 317.766 223.437 325.082 223.204 325.245C219.299 327.979 194.759 345.44 190.387 348.709C189.994 349.003 189.698 349.372 189.462 349.793C188.406 351.671 187.357 353.554 186.297 355.429C186.104 355.771 185.866 356.134 186.092 356.499C186.371 356.951 186.883 356.793 187.275 356.714C189.245 356.317 191.198 355.837 193.172 355.459C194.948 355.118 196.434 354.325 197.881 353.216C205.907 347.068 214.236 341.338 222.516 335.54C224.282 334.304 226.013 333.018 227.766 331.763C228.153 331.486 240.052 322.926 240.528 322.792Z" fill="white"/>
<path d="M241.139 253.736C242.418 254.538 243.039 255.825 242.663 257.223C242.498 257.836 242.508 258.443 242.411 259.049C242.78 260.092 243.392 260.936 244.524 261.172C245.556 261.388 246.489 260.939 247.483 260.36C246.429 262.229 245.282 263.549 244.029 264.313C242.656 265.152 241.256 265.358 239.676 264.756C238.178 264.185 237.147 263.114 236.098 262.015C235.768 262.065 235.438 262.114 235.108 262.164C236.94 266.556 242.791 267.606 246.164 264.104C247.667 262.544 248.898 260.785 249.602 258.684C249.87 257.884 250.387 257.168 250.519 256.306C250.853 253.276 250.084 250.506 248.457 247.973C245.491 243.354 240.794 241.668 235.633 243.397C233.841 243.998 232.509 245.189 231.858 247.064C231.261 248.786 230.607 250.492 230.496 252.326C230.446 253.144 230.275 254.151 231.576 254.286C231.88 254.317 231.888 254.598 231.964 254.816C232.102 255.218 232.018 255.689 232.341 256.033C232.649 255.992 232.957 255.951 233.264 255.91C233.26 255.722 233.275 255.531 233.25 255.346C233.186 254.879 232.927 254.346 233.075 253.968C233.264 253.485 233.934 253.799 234.366 253.634C234.896 253.431 235.441 253.261 235.955 253.023C237.842 252.149 239.541 252.551 241.139 253.736Z" fill="white"/>
<path d="M226.87 323.043C226.986 324.056 226.405 324.864 226.065 325.741C225.755 326.539 225.316 327.287 225.135 328.135C225.074 328.422 225.063 328.722 225.302 328.936C225.607 329.207 225.931 329.075 226.226 328.9C226.471 328.755 226.714 328.598 226.93 328.413C229.695 326.056 232.726 324.052 235.615 321.858C237.222 320.638 237.756 319.928 235.777 318.537C235.361 318.244 234.947 317.891 234.717 317.397C232.821 315.766 231.178 313.9 229.404 311.887C230.652 311.997 231.629 311.827 232.538 311.347C232.95 311.13 233.234 311.21 233.492 311.61C233.803 312.092 234.161 312.545 234.515 312.998C234.702 313.238 234.96 313.409 235.258 313.216C235.614 312.984 235.573 312.664 235.35 312.347C234.938 311.762 234.525 311.177 234.192 310.704C234.631 310.201 235.04 309.732 235.449 309.263C235.892 308.755 236.302 308.229 236.46 307.549C236.741 306.343 236.188 305.61 234.95 305.516C233.909 305.437 232.921 305.661 232.064 306.202C231.34 306.658 231.011 306.428 230.593 305.817C229.73 304.556 228.794 303.345 227.887 302.114C227.661 302.323 227.287 302.336 227.152 302.667C227.192 303.131 227.531 303.43 227.778 303.775C228.474 304.748 229.17 305.721 229.896 306.671C230.21 307.081 230.254 307.361 229.825 307.743C228.847 308.611 228.198 309.673 228.303 311.082C227.791 310.939 227.414 310.647 226.965 310.864C224.808 312.216 222.652 313.568 220.497 314.919C220.163 315.184 219.8 315.421 219.498 315.721C218.765 316.451 218.788 316.991 219.627 317.588C220.904 318.497 222.246 319.317 223.505 320.252C224.673 321.12 225.986 321.828 226.87 323.043L226.87 323.043ZM233.354 309.563C232.945 309.011 232.573 308.513 232.207 308.011C232.023 307.759 231.917 307.493 232.266 307.293C233.02 306.86 233.839 306.574 234.698 306.507C235.353 306.457 235.611 306.94 235.312 307.549C234.9 308.386 234.28 309.037 233.354 309.563ZM232.372 310.175C231.68 310.625 231.053 310.789 230.389 310.821C230.069 310.836 229.684 310.904 229.511 310.556C229.356 310.242 229.502 309.915 229.686 309.624C230.015 309.107 230.397 308.645 230.968 308.273C231.529 308.847 231.933 309.459 232.372 310.175V310.175Z" fill="white"/>
<path d="M235.881 338.311C234.627 336.941 232.689 334.214 231.358 332.982C229.284 334.623 227.002 335.939 224.715 337.246C223.217 338.102 221.741 338.991 220.302 339.946C219.641 340.384 219.127 340.9 218.743 341.589C217.901 343.095 217.058 344.602 216.019 345.987C215.762 346.33 215.458 346.704 215.738 347.158C216.024 347.622 216.523 347.496 216.918 347.402C219.061 346.892 221.183 346.287 223.336 345.824C224.643 345.544 235.153 339.244 235.881 338.311H235.881Z" fill="white"/>
<path d="M219.653 293.114C220.131 293.214 220.412 292.993 220.562 292.558C217.09 287.332 213.617 282.107 210.05 276.74C211.511 276.581 211.861 275.668 211.964 274.526C212.032 273.768 212.244 273.024 212.204 272.253C211.722 271.832 211.384 272.082 211.08 272.493C211.096 273.305 210.951 274.097 210.792 274.889C210.692 275.384 210.536 275.718 209.956 275.35C209.8 275.252 209.603 275.21 209.418 275.171C208.532 274.983 208.337 274.148 207.997 273.523C207.79 273.142 208.411 272.866 208.62 272.517C208.862 272.112 209.143 271.731 209.407 271.339C209.436 271.201 209.464 271.062 209.494 270.923C209.971 268.746 208.809 267.676 206.639 268.231C206.042 268.383 205.606 269.053 204.884 268.767C204.603 268.459 204.255 268.252 203.886 268.532C203.645 268.716 203.679 269.053 203.847 269.323C204.081 269.697 203.862 269.923 203.612 270.166C203.023 270.737 202.512 271.374 202.21 272.143C201.538 273.86 202.09 274.869 203.902 275.288C204.036 275.319 204.165 275.375 204.339 275.434C204.332 276.15 204.193 276.858 204.351 277.566C204.739 279.302 206.385 279.882 207.725 278.699C208.182 278.294 208.51 277.742 208.983 277.149C212.55 282.485 216.101 287.8 219.653 293.114L219.653 293.114ZM206.57 270.111C206.45 269.688 206.535 269.347 207.012 269.261C207.467 269.178 207.989 269.045 208.356 269.395C208.801 269.819 208.576 270.346 208.374 270.83C208.075 271.408 207.819 272.019 207.188 272.337C206.606 271.528 206.4 270.787 206.57 270.111V270.111ZM206.936 274.218C208.554 276.167 208.434 275.879 207.23 277.653C207.204 277.692 207.166 277.723 207.134 277.758C206.825 278.094 206.45 278.305 205.996 278.161C205.529 278.012 205.41 277.573 205.33 277.148C205.045 275.631 205.393 275.004 206.936 274.218L206.936 274.218ZM203.889 274.157C203.195 274.126 202.863 273.695 203.075 272.994C203.296 272.26 203.701 271.613 204.242 271.059C204.371 270.927 204.5 270.741 204.704 270.815C204.95 270.905 205.078 271.144 205.027 271.389C204.854 272.224 204.65 273.053 204.454 273.883C204.38 274.201 204.115 274.143 203.889 274.157ZM205.701 273.52C205.59 273.163 205.666 272.88 205.994 272.698C206.014 272.687 206.134 272.806 206.171 272.883C206.409 273.375 205.963 273.373 205.701 273.52Z" fill="white"/>
<path d="M322.053 263.314C323.557 262.609 324.497 261.543 325.237 260.314C325.998 259.051 326.426 257.696 325.974 256.199C325.541 254.766 324.243 254.048 322.838 254.471C319.735 255.404 318.039 260.126 319.851 262.793C320.234 263.357 320.75 263.778 321.312 264.157C325.838 267.207 330.483 266.916 335.198 264.661C336.156 264.203 337.028 263.614 337.765 262.844C338.017 262.581 338.422 262.316 338.053 261.886C337.686 261.46 337.35 261.773 337.077 262.031C335.123 263.884 332.693 264.729 330.127 265.173C327.299 265.663 324.661 265.063 322.053 263.314H322.053ZM321.777 263.061C320.321 261.976 319.757 260.694 320.155 259.313C320.534 257.999 321.297 256.907 322.322 256.003C322.91 255.484 323.602 255.303 324.312 255.628C324.959 255.923 325.041 256.573 325.051 257.22C325.082 259.221 323.997 260.631 322.58 261.848C322.196 262.178 321.711 262.394 321.777 263.061H321.777Z" fill="white"/>
<path d="M296.487 278.854C296.92 278.757 297.537 278.662 298.128 278.482C304.73 276.464 310.757 273.328 316.175 269.051C317.184 268.254 318.03 267.252 318.96 266.353C319.221 266.1 319.461 265.782 319.21 265.484C318.913 265.13 318.521 265.285 318.208 265.576C318.138 265.641 318.07 265.709 318.006 265.78C314.871 269.248 310.935 271.582 306.852 273.727C303.465 275.506 300.001 277.07 296.242 277.892C296.102 277.922 295.964 277.961 295.825 277.996C295.573 278.059 295.382 278.182 295.403 278.477C295.431 278.878 295.727 278.886 296.023 278.885C296.119 278.884 296.214 278.873 296.487 278.854H296.487Z" fill="white"/>
<path d="M317.282 283.445C317.372 283.773 317.578 283.85 317.837 283.836C318.144 283.821 318.363 283.621 318.596 283.46C324.265 279.563 329.581 275.28 333.705 269.688C333.876 269.457 334.073 269.244 334.223 269.001C334.354 268.789 334.393 268.525 334.188 268.342C333.941 268.123 333.648 268.172 333.409 268.371C333.227 268.522 333.068 268.709 332.927 268.901C328.917 274.393 323.725 278.607 318.239 282.504C317.967 282.697 317.696 282.895 317.448 283.116C317.354 283.2 317.324 283.356 317.282 283.445V283.445Z" fill="white"/>
<path d="M239.052 298.685C238.263 300.933 239.207 303.617 241.473 304.995C242.98 305.912 244.385 307.002 246.136 307.448C243.876 304.444 241.519 301.52 239.052 298.685H239.052Z" fill="white"/>
<path d="M206.57 270.111C207.172 270.35 207.773 270.59 208.374 270.83C208.576 270.346 208.801 269.819 208.356 269.394C207.989 269.044 207.467 269.178 207.012 269.26C206.535 269.346 206.45 269.688 206.57 270.111V270.111Z" fill="white"/>
<path d="M263.123 276.463C262.097 277.956 260.703 279.056 258.866 279.805C256.779 280.655 254.614 281.259 252.459 281.897C246.314 283.717 240.015 284.946 233.859 286.722C233.026 286.963 232.479 286.705 232.106 285.965C231.688 286.183 231.27 286.402 230.852 286.62C231.058 287.285 231.606 287.709 232.022 288.215C233.925 290.524 235.69 292.946 237.717 295.152C239.237 293.979 244.524 290.98 245.477 290.788C245.027 291.204 244.635 291.552 244.26 291.917C242.514 293.618 240.717 295.277 239.636 297.525C239.793 297.76 239.933 298.009 240.109 298.228C242.532 301.236 244.943 304.254 247.395 307.237C248.297 308.335 249.056 309.56 250.175 310.472C250.215 310.43 250.253 310.385 250.288 310.338C250.132 309.678 250.563 309.26 250.929 308.827C252.78 306.638 254.638 304.456 256.494 302.271C254.583 301.098 252.672 299.925 250.632 298.672C251.495 297.924 252.429 297.724 253.324 297.562C256.649 296.958 259.787 295.769 262.903 294.531C266.407 293.139 269.571 291.161 272.361 288.611C273.576 287.501 274.548 286.214 275.297 284.736C277.105 281.167 276.805 277.779 274.684 274.574" fill="white"/>
<path d="M346.108 247.692C347.338 247.017 348.507 246.792 349.612 246.401C349.983 246.27 350.364 246.151 350.712 245.973C351.069 245.79 351.417 245.518 351.23 245.065C351.032 244.587 350.628 244.707 350.23 244.836C348.855 245.281 347.474 245.709 346.036 246.161C345.595 245.325 346.181 244.632 346.215 243.907C346.236 243.463 346.358 243.022 346.369 242.579C346.375 242.317 346.184 242.073 345.908 242.016C345.532 241.939 345.264 242.14 345.177 242.494C344.979 243.308 344.81 244.129 344.628 244.946C344.558 245.259 344.514 245.585 344.172 245.771C343.566 245.821 343.252 245.359 342.883 245.016C342.502 244.662 342.193 244.228 341.794 243.897C341.322 243.505 340.766 242.723 340.15 243.337C339.474 244.008 340.416 244.423 340.81 244.857C341.363 245.467 341.971 246.03 342.833 246.89C341.293 247.034 340.119 247.027 339 247.334C338.593 247.446 338.194 247.571 338.276 248.062C338.359 248.557 338.811 248.538 339.21 248.542C340.054 248.549 340.896 248.234 341.781 248.478C341.896 249.474 341.074 250.003 340.752 250.743C340.598 251.095 340.349 251.407 340.158 251.745C339.987 252.047 339.925 252.379 340.237 252.615C340.628 252.91 341.019 252.765 341.259 252.415C341.772 251.665 342.216 250.871 342.723 250.117C342.966 249.757 343.076 249.263 343.747 249.099C344.283 250.392 344.415 251.785 344.754 253.128C344.914 253.761 344.616 255.034 345.797 254.793C346.718 254.606 346.168 253.572 346.076 252.936C345.911 251.801 345.614 250.686 345.319 249.317C346.627 249.64 347.388 250.432 348.256 251.022C348.633 251.279 348.958 251.611 349.343 251.854C349.464 251.931 349.734 251.88 349.884 251.798C350.146 251.653 350.183 251.362 350.073 251.119C349.823 250.57 349.322 250.232 348.866 249.862C348.013 249.17 346.987 248.684 346.108 247.692L346.108 247.692Z" fill="white"/>
<path d="M349.871 276.882C350.987 276.219 352.049 275.999 353.051 275.615C353.388 275.486 353.734 275.369 354.05 275.195C354.373 275.016 354.689 274.748 354.519 274.304C354.34 273.835 353.973 273.953 353.612 274.079C352.364 274.516 351.111 274.935 349.806 275.38C349.406 274.56 349.937 273.88 349.968 273.168C349.988 272.732 350.099 272.3 350.108 271.865C350.114 271.608 349.94 271.368 349.69 271.313C349.349 271.237 349.105 271.434 349.027 271.782C348.847 272.58 348.694 273.385 348.528 274.188C348.465 274.494 348.425 274.815 348.115 274.997C347.564 275.046 347.28 274.592 346.945 274.256C346.599 273.908 346.319 273.483 345.957 273.158C345.529 272.774 345.024 272.006 344.464 272.608C343.852 273.267 344.707 273.674 345.064 274.1C345.565 274.699 346.117 275.251 346.9 276.094C345.502 276.236 344.436 276.229 343.421 276.53C343.052 276.64 342.69 276.763 342.764 277.245C342.839 277.73 343.249 277.712 343.612 277.715C344.378 277.722 345.142 277.413 345.945 277.652C346.05 278.63 345.304 279.149 345.011 279.875C344.871 280.22 344.645 280.526 344.472 280.858C344.317 281.154 344.26 281.48 344.544 281.712C344.898 282.001 345.254 281.859 345.472 281.515C345.937 280.78 346.34 280 346.8 279.261C347.02 278.907 347.12 278.422 347.729 278.262C348.215 279.53 348.335 280.897 348.643 282.215C348.788 282.836 348.517 284.085 349.59 283.849C350.425 283.665 349.926 282.65 349.843 282.026C349.693 280.913 349.423 279.819 349.155 278.476C350.342 278.793 351.033 279.569 351.821 280.149C352.163 280.401 352.458 280.727 352.807 280.965C352.917 281.04 353.162 280.99 353.298 280.909C353.536 280.767 353.57 280.482 353.469 280.244C353.243 279.705 352.788 279.374 352.374 279.011C351.6 278.331 350.67 277.855 349.872 276.882H349.871Z" fill="white"/>
</g>
<defs>
<clipPath id="clip0_430_3">
<rect width="168.567" height="114.806" fill="white" transform="translate(1084 127)"/>
</clipPath>
<clipPath id="clip1_430_3">
<rect width="168.567" height="114.806" fill="white" transform="matrix(-1 0 0 1 354.567 242)"/>
</clipPath>
</defs>
</svg>
