<svg width="41" height="39" viewBox="0 0 41 39" fill="none" xmlns="http://www.w3.org/2000/svg">
<path d="M15.8783 11.4383C14.9253 11.2403 12.3974 10.8765 10.2398 11.9862C10.1938 12.0096 10.1632 12.056 10.1593 12.1086C10.1552 12.1611 10.1777 12.2122 10.2189 12.2438L11.54 13.237C11.5752 13.263 11.6195 13.2722 11.6617 13.2621C13.9016 12.717 15.8439 12.8618 17.2818 13.6777C17.9719 14.8422 18.7017 16.3299 19.5073 18.2232C19.5331 18.283 19.5932 18.3193 19.6567 18.3133C19.6711 18.3118 19.6851 18.3084 19.6986 18.303C19.7815 18.2679 19.8679 18.2418 19.9562 18.2253C20.0364 18.2104 20.0896 18.1317 20.0749 18.0493C20.0746 18.0474 20.0742 18.0455 20.0738 18.0436C19.6181 15.9159 18.9038 13.8547 17.9476 11.9085C18.0838 11.0573 18.3251 10.2275 18.6656 9.4391C19.3198 7.91258 20.3712 6.46919 21.7049 5.26345C21.7331 5.23832 21.751 5.2031 21.7549 5.16492L21.9223 3.41815C21.9314 3.33538 21.8733 3.26057 21.7926 3.25105C21.756 3.24674 21.7192 3.25665 21.6895 3.27885C20.2901 4.27475 19.1287 5.45162 18.2386 6.78168C17.6113 7.71179 17.1245 8.73385 16.7946 9.81344C16.109 8.73768 13.6502 5.16921 9.33242 1.82227C9.28089 1.78293 9.21066 1.78183 9.15816 1.81953L7.66214 2.9003C7.6215 2.92956 7.59798 2.97787 7.59956 3.02883C7.60198 3.07964 7.62881 3.12596 7.67117 3.15248C11.6593 5.74384 14.9999 10.2064 15.8783 11.4383L15.8783 11.4383Z" fill="#70C6DF"/>
<path d="M21.2348 6.82602C21.1665 6.78004 21.075 6.79941 21.0303 6.86928C21.0176 6.8892 21.0096 6.91193 21.0071 6.93562L20.8344 8.60345C20.8303 8.64676 20.8444 8.68985 20.8733 8.72181C22.457 10.4419 23.3098 12.2387 23.3408 13.9235C22.7023 15.122 21.8123 16.5089 20.6225 18.1654C20.5751 18.2315 20.5876 18.3245 20.6507 18.3753C20.7231 18.431 20.7892 18.4947 20.8479 18.5652C20.8744 18.5953 20.9112 18.6136 20.9506 18.6161C20.9585 18.6158 20.9664 18.615 20.9742 18.6137C21.0057 18.6106 21.0353 18.5971 21.0587 18.5753C22.6255 17.1103 24.007 15.4494 25.1709 13.6315C25.9576 13.3271 26.7792 13.1276 27.6158 13.0377C29.2312 12.8601 30.9754 13.0749 32.6655 13.6595C32.7009 13.6717 32.7395 13.6696 32.7734 13.6536L34.3318 12.9327C34.406 12.898 34.4385 12.8082 34.4045 12.7321C34.3902 12.7 34.3654 12.674 34.3344 12.6586C32.7909 11.909 31.2133 11.4654 29.6463 11.3373C28.5451 11.2444 27.4369 11.3229 26.3594 11.5704C26.9227 10.4203 28.7039 6.44519 29.3598 0.95844C29.3674 0.89312 29.3335 0.830004 29.2754 0.801829L27.6102 0.0136403C27.5362 -0.0209352 27.449 0.0124866 27.4155 0.0882884C27.4081 0.104842 27.4038 0.122625 27.4026 0.140778C27.2177 4.97948 25.1274 10.1697 24.5289 11.5641C24.2159 10.6191 23.2535 8.19136 21.2348 6.82602V6.82602Z" fill="#70C6DF"/>
<path d="M40.0401 16.1792C39.9969 16.1551 39.9449 16.1544 39.9011 16.1772C35.7256 18.4242 30.2953 19.1517 28.8184 19.3142C29.4607 18.5665 31.0261 16.5019 31.1646 14.0281C31.1693 13.945 31.1074 13.8735 31.0263 13.8684C31.0026 13.867 30.9789 13.8714 30.9572 13.8814L29.4604 14.5612C29.421 14.5794 29.3912 14.6139 29.3784 14.6562C28.7238 16.9194 27.6343 18.572 26.2278 19.4397C24.8899 19.4684 23.272 19.3687 21.2824 19.1369C21.2026 19.1278 21.1304 19.1858 21.12 19.2675C21.1088 19.3588 21.088 19.4487 21.0578 19.5353C21.0443 19.5741 21.0468 19.6169 21.0646 19.6539C21.0822 19.6906 21.1138 19.7184 21.1519 19.7307C23.1759 20.3922 25.2722 20.7911 27.3917 20.9181C28.0422 21.466 28.6221 22.0965 29.1175 22.7944C30.0783 24.1391 30.774 25.7965 31.1278 27.5901C31.1352 27.6274 31.1561 27.6604 31.1862 27.6827L32.5781 28.711C32.6072 28.7323 32.6429 28.7422 32.6785 28.7388C32.6987 28.7362 32.7183 28.7299 32.7363 28.7202C32.7857 28.6908 32.8143 28.635 32.8099 28.5765C32.6693 26.8361 32.2528 25.2126 31.5724 23.7487C31.1008 22.724 30.4802 21.7783 29.7319 20.9443C30.9812 20.8748 35.2016 20.4866 40.1956 18.3234C40.2545 18.2976 40.2904 18.2357 40.2844 18.1702L40.1164 16.2957C40.1113 16.2463 40.0828 16.2027 40.0401 16.1792V16.1792Z" fill="#70C6DF"/>
<path d="M33.3883 35.4442L32.3046 37.1883C32.2234 37.319 32.052 37.3641 31.9185 37.2866C29.5565 35.9148 26.6733 33.1771 23.5135 28.626C23.1845 29.7065 22.6992 30.731 22.0702 31.6603C21.1788 32.9912 20.0166 34.1689 18.6191 35.1645C18.592 35.1831 18.5566 35.1935 18.5212 35.1893C18.4399 35.181 18.3816 35.1065 18.39 35.0237L18.5566 33.2748C18.5607 33.2354 18.5774 33.2003 18.6066 33.1754C19.9416 31.9708 20.9934 30.5261 21.6453 29.0007C21.9869 28.2142 22.2264 27.3842 22.3639 26.5335C21.4079 24.5879 20.6935 22.5264 20.2374 20.3987C20.229 20.3573 20.2374 20.3159 20.2582 20.2828C20.2811 20.2497 20.3144 20.2248 20.354 20.2165C20.4436 20.2 20.5289 20.1731 20.6143 20.1379C20.6872 20.111 20.7685 20.1462 20.7997 20.2207C21.6099 22.1125 22.3389 23.5986 23.0303 24.7638C24.4674 25.5814 26.4106 25.7263 28.6496 25.1799C28.6913 25.1716 28.7371 25.1799 28.7725 25.2068L30.093 26.2003C30.1346 26.2313 30.1575 26.281 30.1534 26.3348C30.1492 26.3865 30.118 26.4321 30.0721 26.4569C27.9144 27.5663 25.3859 27.202 24.432 27.0054C26.9379 30.5592 29.9388 33.143 33.2861 35.0483C33.4268 35.1284 33.4735 35.3071 33.3883 35.4442V35.4442Z" fill="#70C6DF"/>
<path d="M19.0508 31.63C19.0937 31.6588 19.148 31.6629 19.1943 31.6407C19.2406 31.6181 19.2724 31.5727 19.2785 31.5204L19.4512 29.8526C19.455 29.8091 19.4404 29.7661 19.4111 29.7343C17.8275 28.0143 16.9757 26.2161 16.9449 24.5326C17.5848 23.3315 18.4735 21.9429 19.6615 20.2871C19.7085 20.2205 19.6952 20.1276 19.6316 20.0774C19.561 20.0208 19.4961 19.957 19.4379 19.8871C19.4115 19.8569 19.3746 19.8386 19.3352 19.8362C19.2955 19.8336 19.2564 19.8477 19.227 19.8752C17.6596 21.3393 16.2784 23.0003 15.116 24.8189C14.3291 25.1224 13.5074 25.3214 12.6709 25.4109C11.0609 25.5898 9.31323 25.3753 7.62132 24.7909C7.58595 24.7788 7.54752 24.7805 7.51333 24.7956L5.95378 25.5172C5.87975 25.5513 5.84683 25.6406 5.88025 25.7166C5.89468 25.7494 5.92007 25.7759 5.95183 25.7912C7.49228 26.54 9.07044 26.9841 10.6399 27.1125C11.7398 27.2065 12.8469 27.1295 13.9236 26.8841C13.3596 28.0262 11.5872 31.9638 10.9257 37.4964C10.9177 37.5618 10.9518 37.6251 11.0101 37.653L12.6745 38.4449C12.6984 38.4559 12.7248 38.4602 12.7508 38.4575C12.773 38.4552 12.7945 38.448 12.8137 38.4365C12.8557 38.4101 12.8818 38.3639 12.8834 38.3134C13.0682 33.4735 15.1572 28.2822 15.7552 26.8891C16.0673 27.8371 17.0317 30.2665 19.0508 31.63L19.0508 31.63Z" fill="#70C6DF"/>
<path d="M9.12244 24.4303C9.11835 24.5135 9.1808 24.5845 9.26193 24.5889C9.26863 24.5893 9.27535 24.5892 9.28204 24.5886C9.29765 24.5868 9.3129 24.5826 9.3273 24.5761L10.824 23.9012C10.8638 23.8836 10.8938 23.8488 10.906 23.8062C11.5612 21.5429 12.6501 19.8904 14.0566 19.0227C15.3945 18.994 17.0124 19.0937 19.002 19.3255C19.0818 19.3358 19.1545 19.2779 19.1646 19.1961C19.1761 19.1048 19.1969 19.0151 19.2267 18.9283C19.2542 18.8506 19.215 18.7647 19.1393 18.7364C19.1371 18.7356 19.1349 18.7348 19.1327 18.7341C17.1104 18.0697 15.0149 17.6692 12.896 17.5422C12.245 16.9944 11.6644 16.3639 11.1685 15.666C10.207 14.3207 9.51182 12.6621 9.15934 10.8696C9.1517 10.8324 9.13086 10.7994 9.10088 10.777L7.70797 9.75006C7.66118 9.7156 7.59915 9.71225 7.54923 9.74149C7.49912 9.77019 7.47027 9.82651 7.47561 9.88518C7.61484 11.5988 8.04277 13.2664 8.7127 14.7081C9.18508 15.733 9.80564 16.6791 10.5533 17.5144C9.30517 17.5837 5.07832 17.9725 0.089402 20.1328C0.0306188 20.1588 -0.005191 20.2206 0.000613747 20.286L0.167426 22.1607C0.175761 22.2446 0.24882 22.3058 0.330609 22.2975C0.349083 22.2956 0.367042 22.2902 0.383558 22.2815C4.5602 20.0344 9.99061 19.3075 11.4674 19.1444C10.8257 19.8926 9.25856 21.9574 9.12245 24.4303H9.12244Z" fill="#70C6DF"/>
</svg>
