<svg width="1440" height="440" viewBox="0 0 1440 440" fill="none" xmlns="http://www.w3.org/2000/svg">
<path d="M344.622 5.60769C357.4 21.7825 385.485 44 414 44V50H251V44C270.504 44 288.617 30.8361 299.017 20.5928C301.465 18.1824 307.275 18.9542 309.576 21.5046C310.814 22.8764 312.348 24.3722 314.233 25.9487C319.884 30.6753 330.402 16.9862 337.191 5.95303C338.8 3.33804 342.719 3.19849 344.622 5.60769Z" fill="#70C6DF"/>
<rect y="44" width="1440" height="396" fill="#70C6DF"/>
<path d="M460.159 191.104C459.647 191.328 459.119 191.552 458.575 191.776C458.063 192 457.535 192.224 456.991 192.448C456.223 191.52 455.727 190.432 455.503 189.184C455.279 187.904 455.375 186.576 455.791 185.2C456.367 185.232 456.943 185.28 457.519 185.344C458.095 185.408 458.655 185.472 459.199 185.536C458.847 186.656 458.767 187.712 458.959 188.704C459.151 189.664 459.551 190.464 460.159 191.104ZM465.247 191.104C464.735 191.328 464.207 191.552 463.663 191.776C463.151 192 462.623 192.224 462.079 192.448C461.311 191.52 460.815 190.432 460.591 189.184C460.367 187.904 460.463 186.576 460.879 185.2C461.455 185.232 462.031 185.28 462.607 185.344C463.183 185.408 463.743 185.472 464.287 185.536C463.935 186.656 463.855 187.712 464.047 188.704C464.239 189.664 464.639 190.464 465.247 191.104ZM467.212 184.672H491.02L490.156 191.536H481.708L478.204 220H471.004L474.508 191.536H466.348L467.212 184.672ZM527.449 184.672L523.129 220H515.929L517.705 205.648H502.393L500.617 220H493.417L497.737 184.672H504.937L503.209 198.832H518.521L520.249 184.672H527.449ZM536.596 184.672H560.692L559.924 191.152H543.028L542.068 199.024H556.996L556.18 205.648H541.252L540.292 213.328H557.86L557.044 220H532.276L536.596 184.672ZM579.316 184.672C581.524 184.672 583.444 184.96 585.076 185.536C586.74 186.08 588.1 186.88 589.156 187.936C590.212 188.96 590.948 190.208 591.364 191.68C591.812 193.12 591.924 194.752 591.7 196.576C591.508 198.016 591.108 199.456 590.5 200.896C589.892 202.336 589.028 203.648 587.908 204.832C586.788 206.016 585.38 206.976 583.684 207.712C582.02 208.416 580.004 208.768 577.636 208.768H572.644L571.252 220H564.292L568.612 184.672H579.316ZM578.404 202.048C579.812 202.048 580.948 201.76 581.812 201.184C582.676 200.576 583.316 199.872 583.732 199.072C584.148 198.24 584.388 197.488 584.452 196.816C584.516 196.432 584.516 195.952 584.452 195.376C584.42 194.768 584.26 194.16 583.972 193.552C583.716 192.944 583.252 192.432 582.58 192.016C581.908 191.6 580.964 191.392 579.748 191.392H574.756L573.46 202.048H578.404ZM584.404 206.368L591.46 220H583.348L576.052 206.56L584.404 206.368ZM601.565 184.672H625.661L624.893 191.152H607.997L607.037 199.024H621.965L621.149 205.648H606.221L605.261 213.328H622.829L622.013 220H597.245L601.565 184.672ZM646.483 220H639.619L660.067 183.28H660.451L671.875 220H663.811L656.803 194.176L662.275 190.72L646.483 220ZM652.099 207.232H662.707L664.435 213.088H649.219L652.099 207.232ZM692.097 184.672C694.305 184.672 696.225 184.96 697.857 185.536C699.521 186.08 700.881 186.88 701.937 187.936C702.993 188.96 703.729 190.208 704.145 191.68C704.593 193.12 704.705 194.752 704.481 196.576C704.289 198.016 703.889 199.456 703.281 200.896C702.673 202.336 701.809 203.648 700.689 204.832C699.569 206.016 698.161 206.976 696.465 207.712C694.801 208.416 692.785 208.768 690.417 208.768H685.425L684.033 220H677.073L681.393 184.672H692.097ZM691.185 202.048C692.593 202.048 693.729 201.76 694.593 201.184C695.457 200.576 696.097 199.872 696.513 199.072C696.929 198.24 697.169 197.488 697.233 196.816C697.297 196.432 697.297 195.952 697.233 195.376C697.201 194.768 697.041 194.16 696.753 193.552C696.497 192.944 696.033 192.432 695.361 192.016C694.689 191.6 693.745 191.392 692.529 191.392H687.537L686.241 202.048H691.185ZM697.185 206.368L704.241 220H696.129L688.833 206.56L697.185 206.368ZM714.346 184.672H738.442L737.674 191.152H720.778L719.818 199.024H734.746L733.93 205.648H719.002L718.042 213.328H735.61L734.794 220H710.026L714.346 184.672ZM788.017 221.44H787.825L764.017 197.248L765.937 198.4L763.441 220H756.385L760.897 183.28H761.185L784.417 207.376L782.977 206.704L785.521 184.672H792.529L788.017 221.44ZM814.442 220.336C812.426 220.336 810.41 220.016 808.394 219.376C806.41 218.736 804.586 217.744 802.922 216.4C801.29 215.024 799.978 213.28 798.986 211.168C797.994 209.024 797.498 206.48 797.498 203.536C797.498 201.424 797.882 199.248 798.65 197.008C799.45 194.736 800.634 192.656 802.202 190.768C803.802 188.848 805.802 187.296 808.202 186.112C810.634 184.928 813.466 184.336 816.698 184.336C818.714 184.336 820.714 184.656 822.698 185.296C824.714 185.936 826.538 186.944 828.17 188.32C829.834 189.664 831.162 191.408 832.154 193.552C833.146 195.664 833.642 198.192 833.642 201.136C833.642 203.248 833.242 205.44 832.442 207.712C831.674 209.952 830.49 212.032 828.89 213.952C827.322 215.84 825.322 217.376 822.89 218.56C820.49 219.744 817.674 220.336 814.442 220.336ZM814.538 213.616C816.714 213.616 818.554 213.248 820.058 212.512C821.594 211.744 822.826 210.752 823.754 209.536C824.682 208.32 825.354 207.008 825.77 205.6C826.218 204.192 826.442 202.832 826.442 201.52C826.442 200.112 826.186 198.784 825.674 197.536C825.194 196.288 824.506 195.184 823.61 194.224C822.714 193.232 821.658 192.464 820.442 191.92C819.226 191.344 817.882 191.056 816.41 191.056C814.234 191.056 812.394 191.44 810.89 192.208C809.386 192.944 808.17 193.92 807.242 195.136C806.346 196.352 805.69 197.664 805.274 199.072C804.89 200.48 804.698 201.84 804.698 203.152C804.698 204.528 804.938 205.856 805.418 207.136C805.898 208.384 806.57 209.504 807.434 210.496C808.298 211.456 809.322 212.224 810.506 212.8C811.722 213.344 813.066 213.616 814.538 213.616ZM852.62 220L856.94 184.672H869.42C872.588 184.672 875.212 185.2 877.292 186.256C879.404 187.312 881.036 188.72 882.188 190.48C883.34 192.24 884.108 194.208 884.492 196.384C884.908 198.56 884.988 200.752 884.732 202.96C884.444 205.584 883.74 207.952 882.62 210.064C881.532 212.144 880.14 213.936 878.444 215.44C876.78 216.912 874.908 218.048 872.828 218.848C870.78 219.616 868.652 220 866.444 220H852.62ZM860.396 213.28H866.06C867.628 213.28 869.068 213.056 870.38 212.608C871.724 212.128 872.892 211.44 873.884 210.544C874.908 209.648 875.74 208.528 876.38 207.184C877.02 205.808 877.436 204.24 877.628 202.48C877.916 200.176 877.772 198.304 877.196 196.864C876.62 195.392 875.82 194.256 874.796 193.456C873.772 192.656 872.7 192.112 871.58 191.824C870.492 191.504 869.548 191.344 868.748 191.344H863.084L860.396 213.28ZM889.811 220H882.947L903.395 183.28H903.779L915.203 220H907.139L900.131 194.176L905.603 190.72L889.811 220ZM895.427 207.232H906.035L907.763 213.088H892.547L895.427 207.232ZM926.277 209.008L916.245 184.672H924.837L931.701 203.008L929.637 203.152L940.869 184.672H949.461L933.237 209.008L931.893 220H924.933L926.277 209.008ZM970.894 193.84C969.646 193.008 968.35 192.32 967.006 191.776C965.694 191.2 964.43 190.88 963.214 190.816C962.446 190.784 961.758 190.832 961.15 190.96C960.542 191.056 959.998 191.248 959.518 191.536C959.07 191.792 958.702 192.144 958.414 192.592C958.158 193.04 957.998 193.568 957.934 194.176C957.838 195.008 958.062 195.776 958.606 196.48C959.182 197.152 959.95 197.776 960.91 198.352C961.902 198.928 962.942 199.456 964.03 199.936C965.342 200.512 966.59 201.232 967.774 202.096C968.958 202.96 969.886 204.096 970.558 205.504C971.23 206.88 971.422 208.688 971.134 210.928C970.974 212.272 970.558 213.536 969.886 214.72C969.214 215.904 968.302 216.944 967.15 217.84C966.03 218.704 964.686 219.36 963.118 219.808C961.55 220.256 959.774 220.416 957.79 220.288C956.446 220.192 955.102 219.968 953.758 219.616C952.414 219.264 951.102 218.784 949.822 218.176C948.542 217.536 947.326 216.736 946.174 215.776L949.918 210.544C950.654 211.184 951.486 211.776 952.414 212.32C953.342 212.832 954.286 213.248 955.246 213.568C956.206 213.888 957.102 214.08 957.934 214.144C958.766 214.176 959.614 214.112 960.478 213.952C961.342 213.76 962.094 213.392 962.734 212.848C963.374 212.304 963.758 211.52 963.886 210.496C963.982 209.792 963.822 209.136 963.406 208.528C962.99 207.92 962.43 207.36 961.726 206.848C961.022 206.336 960.222 205.872 959.326 205.456C958.302 204.976 957.246 204.432 956.158 203.824C955.07 203.216 954.062 202.496 953.134 201.664C952.238 200.832 951.55 199.808 951.07 198.592C950.59 197.376 950.462 195.936 950.686 194.272C950.942 192.224 951.614 190.48 952.702 189.04C953.79 187.568 955.214 186.464 956.974 185.728C958.734 184.96 960.718 184.592 962.926 184.624C964.814 184.72 966.43 184.976 967.774 185.392C969.15 185.776 970.35 186.256 971.374 186.832C972.398 187.408 973.342 188.032 974.206 188.704L970.894 193.84ZM516.51 232.672H523.47L519.966 261.28H536.574L535.758 268H512.19L516.51 232.672ZM547.12 232.672H554.32L550 268H542.8L547.12 232.672ZM568.999 245.248L568.567 247.024L569.815 245.68L582.919 232.672H591.943L575.431 248.512L587.671 268H578.839L569.767 252.928L567.847 254.656L566.215 268H559.159L563.479 232.672H570.535L568.999 245.248ZM597.135 232.672H621.231L620.463 239.152H603.567L602.607 247.024H617.535L616.719 253.648H601.791L600.831 261.328H618.399L617.583 268H592.815L597.135 232.672ZM661.59 241.84C660.342 241.008 659.046 240.32 657.702 239.776C656.39 239.2 655.126 238.88 653.91 238.816C653.142 238.784 652.454 238.832 651.846 238.96C651.238 239.056 650.694 239.248 650.214 239.536C649.766 239.792 649.398 240.144 649.11 240.592C648.854 241.04 648.694 241.568 648.63 242.176C648.534 243.008 648.758 243.776 649.302 244.48C649.878 245.152 650.646 245.776 651.606 246.352C652.598 246.928 653.638 247.456 654.726 247.936C656.038 248.512 657.286 249.232 658.47 250.096C659.654 250.96 660.582 252.096 661.254 253.504C661.926 254.88 662.118 256.688 661.83 258.928C661.67 260.272 661.254 261.536 660.582 262.72C659.91 263.904 658.998 264.944 657.846 265.84C656.726 266.704 655.382 267.36 653.814 267.808C652.246 268.256 650.47 268.416 648.486 268.288C647.142 268.192 645.798 267.968 644.454 267.616C643.11 267.264 641.798 266.784 640.518 266.176C639.238 265.536 638.022 264.736 636.87 263.776L640.614 258.544C641.35 259.184 642.182 259.776 643.11 260.32C644.038 260.832 644.982 261.248 645.942 261.568C646.902 261.888 647.798 262.08 648.63 262.144C649.462 262.176 650.31 262.112 651.174 261.952C652.038 261.76 652.79 261.392 653.43 260.848C654.07 260.304 654.454 259.52 654.582 258.496C654.678 257.792 654.518 257.136 654.102 256.528C653.686 255.92 653.126 255.36 652.422 254.848C651.718 254.336 650.918 253.872 650.022 253.456C648.998 252.976 647.942 252.432 646.854 251.824C645.766 251.216 644.758 250.496 643.83 249.664C642.934 248.832 642.246 247.808 641.766 246.592C641.286 245.376 641.158 243.936 641.382 242.272C641.638 240.224 642.31 238.48 643.398 237.04C644.486 235.568 645.91 234.464 647.67 233.728C649.43 232.96 651.414 232.592 653.622 232.624C655.51 232.72 657.126 232.976 658.47 233.392C659.846 233.776 661.046 234.256 662.07 234.832C663.094 235.408 664.038 236.032 664.902 236.704L661.59 241.84ZM698.977 269.44H698.785L674.977 245.248L676.897 246.4L674.401 268H667.345L671.857 231.28H672.145L695.377 255.376L693.937 254.704L696.481 232.672H703.489L698.977 269.44ZM725.403 268.336C723.387 268.336 721.371 268.016 719.355 267.376C717.371 266.736 715.547 265.744 713.883 264.4C712.251 263.024 710.939 261.28 709.947 259.168C708.955 257.024 708.459 254.48 708.459 251.536C708.459 249.424 708.843 247.248 709.611 245.008C710.411 242.736 711.595 240.656 713.163 238.768C714.763 236.848 716.763 235.296 719.163 234.112C721.595 232.928 724.427 232.336 727.659 232.336C729.675 232.336 731.675 232.656 733.659 233.296C735.675 233.936 737.499 234.944 739.131 236.32C740.795 237.664 742.123 239.408 743.115 241.552C744.107 243.664 744.603 246.192 744.603 249.136C744.603 251.248 744.203 253.44 743.403 255.712C742.635 257.952 741.451 260.032 739.851 261.952C738.283 263.84 736.283 265.376 733.851 266.56C731.451 267.744 728.635 268.336 725.403 268.336ZM725.499 261.616C727.675 261.616 729.515 261.248 731.019 260.512C732.555 259.744 733.787 258.752 734.715 257.536C735.643 256.32 736.315 255.008 736.731 253.6C737.179 252.192 737.403 250.832 737.403 249.52C737.403 248.112 737.147 246.784 736.635 245.536C736.155 244.288 735.467 243.184 734.571 242.224C733.675 241.232 732.619 240.464 731.403 239.92C730.187 239.344 728.843 239.056 727.371 239.056C725.195 239.056 723.355 239.44 721.851 240.208C720.347 240.944 719.131 241.92 718.203 243.136C717.307 244.352 716.651 245.664 716.235 247.072C715.851 248.48 715.659 249.84 715.659 251.152C715.659 252.528 715.899 253.856 716.379 255.136C716.859 256.384 717.531 257.504 718.395 258.496C719.259 259.456 720.283 260.224 721.467 260.8C722.683 261.344 724.027 261.616 725.499 261.616ZM747.963 232.912H756.123L760.923 255.088L759.867 254.608L768.459 238.24L770.523 247.792L757.659 269.632L747.963 232.912ZM765.675 232.912H772.587L778.635 254.368L777.435 254.176L786.507 232.912H793.995L775.851 269.536L765.675 232.912ZM795.831 268L800.151 232.672H812.631C815.799 232.672 818.423 233.2 820.503 234.256C822.615 235.312 824.247 236.72 825.399 238.48C826.551 240.24 827.319 242.208 827.703 244.384C828.119 246.56 828.199 248.752 827.943 250.96C827.655 253.584 826.951 255.952 825.831 258.064C824.743 260.144 823.351 261.936 821.655 263.44C819.991 264.912 818.119 266.048 816.039 266.848C813.991 267.616 811.863 268 809.655 268H795.831ZM803.607 261.28H809.271C810.839 261.28 812.279 261.056 813.591 260.608C814.935 260.128 816.103 259.44 817.095 258.544C818.119 257.648 818.951 256.528 819.591 255.184C820.231 253.808 820.647 252.24 820.839 250.48C821.127 248.176 820.983 246.304 820.407 244.864C819.831 243.392 819.031 242.256 818.007 241.456C816.983 240.656 815.911 240.112 814.791 239.824C813.703 239.504 812.759 239.344 811.959 239.344H806.295L803.607 261.28ZM833.022 268H826.158L846.606 231.28H846.99L858.414 268H850.35L843.342 242.176L848.814 238.72L833.022 268ZM838.638 255.232H849.246L850.974 261.088H835.758L838.638 255.232ZM869.488 257.008L859.456 232.672H868.048L874.912 251.008L872.848 251.152L884.08 232.672H892.672L876.448 257.008L875.104 268H868.144L869.488 257.008ZM914.105 241.84C912.857 241.008 911.561 240.32 910.217 239.776C908.905 239.2 907.641 238.88 906.425 238.816C905.657 238.784 904.969 238.832 904.361 238.96C903.753 239.056 903.209 239.248 902.729 239.536C902.281 239.792 901.913 240.144 901.625 240.592C901.369 241.04 901.209 241.568 901.145 242.176C901.049 243.008 901.273 243.776 901.817 244.48C902.393 245.152 903.161 245.776 904.121 246.352C905.113 246.928 906.153 247.456 907.241 247.936C908.553 248.512 909.801 249.232 910.985 250.096C912.169 250.96 913.097 252.096 913.769 253.504C914.441 254.88 914.633 256.688 914.345 258.928C914.185 260.272 913.769 261.536 913.097 262.72C912.425 263.904 911.513 264.944 910.361 265.84C909.241 266.704 907.897 267.36 906.329 267.808C904.761 268.256 902.985 268.416 901.001 268.288C899.657 268.192 898.313 267.968 896.969 267.616C895.625 267.264 894.313 266.784 893.033 266.176C891.753 265.536 890.537 264.736 889.385 263.776L893.129 258.544C893.865 259.184 894.697 259.776 895.625 260.32C896.553 260.832 897.497 261.248 898.457 261.568C899.417 261.888 900.313 262.08 901.145 262.144C901.977 262.176 902.825 262.112 903.689 261.952C904.553 261.76 905.305 261.392 905.945 260.848C906.585 260.304 906.969 259.52 907.097 258.496C907.193 257.792 907.033 257.136 906.617 256.528C906.201 255.92 905.641 255.36 904.937 254.848C904.233 254.336 903.433 253.872 902.537 253.456C901.513 252.976 900.457 252.432 899.369 251.824C898.281 251.216 897.273 250.496 896.345 249.664C895.449 248.832 894.761 247.808 894.281 246.592C893.801 245.376 893.673 243.936 893.897 242.272C894.153 240.224 894.825 238.48 895.913 237.04C897.001 235.568 898.425 234.464 900.185 233.728C901.945 232.96 903.929 232.592 906.137 232.624C908.025 232.72 909.641 232.976 910.985 233.392C912.361 233.776 913.561 234.256 914.585 234.832C915.609 235.408 916.553 236.032 917.417 236.704L914.105 241.84ZM922.741 240.448C922.293 240.224 921.829 240 921.349 239.776C920.901 239.552 920.437 239.328 919.957 239.104C920.725 238.464 921.317 237.664 921.733 236.704C922.149 235.712 922.325 234.656 922.261 233.536C922.805 233.472 923.381 233.408 923.989 233.344C924.597 233.28 925.189 233.232 925.765 233.2C925.861 234.576 925.637 235.904 925.093 237.184C924.549 238.432 923.765 239.52 922.741 240.448ZM927.829 240.448C927.381 240.224 926.917 240 926.437 239.776C925.989 239.552 925.525 239.328 925.045 239.104C925.813 238.464 926.405 237.664 926.821 236.704C927.237 235.712 927.413 234.656 927.349 233.536C927.893 233.472 928.469 233.408 929.077 233.344C929.685 233.28 930.277 233.232 930.853 233.2C930.949 234.576 930.725 235.904 930.181 237.184C929.637 238.432 928.853 239.52 927.829 240.448Z" fill="white"/>
<g clip-path="url(#clip0_559_158)">
<path d="M1163.88 159.574C1163.97 159.439 1164.07 159.304 1164.16 159.169C1164.38 158.856 1164.53 158.555 1164.63 158.244" fill="white"/>
<path d="M1164.63 158.244C1164.75 157.847 1164.79 157.433 1164.81 156.956C1164.94 153.444 1165.75 150.116 1168.08 147.339C1168.94 146.311 1169.84 145.306 1170.77 144.337C1172.13 142.912 1173.82 142.03 1175.74 141.626C1179.34 140.871 1182.97 140.725 1186.61 141.195C1187.09 141.256 1187.57 141.27 1188.05 141.306C1188.18 142.168 1188.7 142.884 1188.96 143.684C1189.67 145.785 1190.9 147.544 1192.4 149.104C1195.78 152.606 1201.63 151.556 1203.46 147.164C1203.13 147.114 1202.8 147.065 1202.47 147.015C1202.12 146.621 1202.08 146.074 1201.86 145.549C1201.52 145.726 1201.28 145.87 1201.03 145.983C1199.38 146.723 1197.69 146.225 1196.68 144.703C1196.52 144.47 1196.45 144.171 1196.16 144.048C1196.06 143.443 1196.07 142.836 1195.9 142.223C1195.53 140.825 1196.15 139.538 1197.43 138.736C1198.99 139.5 1200.57 140.241 1202.25 140.713C1203.24 140.991 1204.25 141.365 1205.3 140.909C1205.61 140.951 1205.92 140.992 1206.23 141.034C1206.42 141.857 1206.13 142.647 1206.03 143.433C1206.43 143.698 1206.79 143.504 1207.16 143.435C1210.97 142.724 1214.83 142.346 1218.68 141.88C1220.77 141.627 1222.85 141.308 1224.97 141.29C1227.63 141.267 1229.56 142.414 1230.72 144.813C1232.1 147.666 1233.07 150.658 1233.68 153.767C1232.96 154.053 1232.52 153.383 1231.93 153.231C1229.76 152.676 1228.6 153.746 1229.07 155.923C1229.1 156.062 1229.13 156.2 1229.16 156.339C1228.6 156.724 1228.04 157.109 1227.49 157.494C1227.18 157.082 1226.84 156.832 1226.36 157.253C1225.75 156.663 1225.58 155.839 1225.31 155.092C1224.87 153.915 1224.24 152.864 1223.56 151.82C1223.16 151.204 1222.69 150.996 1222.01 151.09C1221.68 151.136 1221.34 151.147 1221.02 151.215C1216.39 152.188 1211.77 153.188 1207.14 154.125C1206.4 154.275 1206.29 154.625 1206.24 155.277C1206.08 157.383 1205.53 159.408 1204.77 161.376C1200.78 160.373 1196.84 159.188 1193.03 157.627C1190.29 156.506 1187.48 155.509 1185.03 153.768C1184.83 153.625 1184.61 153.485 1184.41 153.729C1184.19 153.988 1184.25 154.285 1184.46 154.513C1185.05 155.172 1185.85 155.526 1186.62 155.905C1191.57 158.34 1196.68 160.343 1202.03 161.738C1203.6 162.148 1205.14 162.686 1206.69 163.151C1207.19 163.3 1207.41 163.551 1207.24 164.096C1206.63 166.062 1206.02 168.03 1205.43 170.006C1205.26 170.603 1204.92 170.736 1204.36 170.61C1202.54 170.199 1200.69 169.908 1198.91 169.38C1195.11 168.252 1191.3 167.149 1187.46 166.149C1184.91 165.485 1182.38 164.753 1179.95 163.745C1177.77 162.845 1176.19 161.403 1175.37 159.097C1174.37 156.288 1173.9 153.47 1174.44 150.51C1174.53 149.997 1174.5 149.46 1174.51 148.933C1174.52 148.622 1174.4 148.347 1174.05 148.327C1173.69 148.306 1173.59 148.607 1173.5 148.885C1173.47 148.976 1173.46 149.072 1173.45 149.168C1173.17 152.421 1173.01 155.618 1174.13 158.826C1174.48 159.814 1174.91 160.691 1175.44 161.463" fill="white"/>
<path d="M1152.59 190.571C1147.01 186.945 1141.29 183.523 1135.68 179.921C1134.27 179.012 1134.1 178.595 1134.84 177.127C1135.42 175.972 1136.04 174.837 1136.71 173.729C1137.42 172.548 1137.69 172.501 1138.89 173.227C1143.11 175.786 1147.21 178.538 1151.33 181.253C1161.46 187.922 1171.46 194.786 1181.66 201.344C1185.81 204.012 1210.81 220.327 1212.58 221.546C1212.01 222.272 1206.7 224.676 1206.23 225.329C1205.86 225.861 1165.57 199.002 1152.59 190.571V190.571Z" fill="white"/>
<path d="M1203.84 211.84C1198.56 208.18 1193.52 204.193 1188.32 200.417C1181.19 195.232 1173.88 190.289 1166.5 185.45C1164.53 184.159 1162.65 182.763 1160.79 181.321C1159.73 180.5 1159.72 180.482 1160.23 179.316C1160.92 177.77 1162.07 176.515 1162.95 175.091C1163.32 174.493 1163.85 174.708 1164.35 174.96C1165.85 175.725 1167.27 176.634 1168.55 177.712C1172.01 180.626 1175.76 183.103 1179.52 185.587C1185.72 189.679 1191.86 193.871 1197.89 198.212C1201.86 201.068 1205.89 203.829 1209.9 206.632C1209.14 207.137 1208.47 207.746 1207.82 208.368C1206.54 209.575 1205.28 210.807 1203.84 211.84H1203.84Z" fill="white"/>
<path d="M1174.8 191.75C1176.24 190.717 1177.5 189.485 1178.78 188.277C1179.43 187.656 1180.1 187.047 1180.86 186.542C1181.33 186.67 1181.7 186.966 1182.07 187.27C1183.93 189.455 1185.79 191.637 1187.64 193.826C1188 194.259 1188.43 194.678 1188.28 195.338C1186.64 196.154 1184.87 196.715 1183.45 197.925C1182.52 198.508 1181.59 199.094 1180.66 199.672C1180.41 199.827 1180.11 199.992 1180.22 200.318C1180.62 201.496 1180.71 202.834 1181.85 203.785C1183.08 202.216 1184.26 200.717 1185.44 199.218C1186.5 198.025 1187.61 196.876 1188.39 195.472C1189.51 194.559 1190.27 193.334 1191.17 192.237C1193.62 189.253 1196.03 186.235 1198.46 183.228C1198.63 183.008 1198.77 182.76 1198.93 182.527C1199.62 181.783 1200.29 181.007 1200.85 180.152C1202.88 177.945 1204.64 175.523 1206.54 173.214C1206.96 172.708 1207.51 172.285 1207.72 171.62C1208.09 171.288 1208.46 170.944 1208.64 170.465C1208.32 170.015 1207.79 170.07 1207.39 169.843C1206.94 169.589 1206.7 169.83 1206.6 170.279C1206.55 170.507 1206.51 170.736 1206.46 170.964C1206.09 171.705 1205.54 171.962 1204.71 171.722C1198.55 169.946 1192.25 168.717 1186.11 166.896C1183.95 166.258 1181.79 165.654 1179.7 164.804C1176.91 163.669 1175.15 161.723 1174.13 158.825C1173.01 155.618 1173.17 152.42 1173.45 149.167C1173.46 149.072 1173.47 148.975 1173.5 148.884C1173.59 148.606 1173.69 148.305 1174.05 148.326C1174.4 148.347 1174.52 148.621 1174.51 148.932C1174.5 149.459 1174.53 149.996 1174.44 150.51C1173.9 153.469 1174.37 156.288 1175.37 159.096C1176.2 161.403 1177.77 162.844 1179.95 163.745C1182.38 164.752 1184.91 165.485 1187.46 166.148C1191.3 167.148 1195.11 168.252 1198.91 169.379C1200.69 169.907 1202.54 170.198 1204.36 170.609C1204.92 170.735 1205.26 170.603 1205.43 170.006C1206.02 168.029 1206.63 166.061 1207.24 164.095C1207.41 163.55 1207.19 163.3 1206.69 163.151C1205.14 162.685 1203.6 162.147 1202.03 161.737C1196.68 160.343 1191.57 158.339 1186.62 155.904C1185.85 155.526 1185.05 155.171 1184.46 154.512C1184.25 154.284 1184.19 153.987 1184.41 153.728C1184.61 153.485 1184.83 153.624 1185.03 153.767C1187.48 155.508 1190.29 156.505 1193.03 157.626C1196.84 159.187 1200.78 160.373 1204.77 161.375C1205.63 161.668 1206.49 161.955 1207.34 162.258C1208.56 162.694 1208.56 162.699 1208.36 163.954C1208.34 164.03 1208.4 164.116 1208.44 164.263C1209.44 164.059 1210.44 163.855 1211.43 163.655C1211.52 163.281 1211.29 163.071 1211.15 162.824C1210.75 162.09 1210.4 161.321 1211.01 160.553C1211.61 159.797 1212.48 159.949 1213.28 160.093C1213.83 160.193 1214.36 160.459 1214.89 160.674C1215.19 160.797 1215.45 161.04 1215.83 161.054C1215.96 160.873 1216.1 160.676 1216.25 160.492C1216.53 160.145 1216.75 159.472 1217.31 159.867C1217.84 160.235 1217.42 160.755 1217.12 161.111C1216.65 161.679 1216.9 162.015 1217.37 162.401C1217.96 162.889 1218.46 163.481 1218.8 164.179C1219.1 164.799 1219.32 165.45 1218.85 166.081C1218.4 166.682 1217.77 166.781 1217.05 166.71C1216.22 166.629 1215.47 166.329 1214.75 165.954C1214.35 165.744 1214.09 165.721 1213.78 166.109C1213.47 166.502 1213.58 166.788 1213.84 167.112C1214.18 167.516 1214.56 167.893 1214.82 168.345C1215.53 169.611 1215.12 170.527 1213.73 170.995C1212.89 171.279 1212.04 171.311 1211.18 171.147C1209.77 170.875 1209.77 170.859 1208.93 172.093C1208.22 172.545 1207.83 173.284 1207.33 173.913C1205.51 176.195 1203.56 178.369 1201.89 180.766C1201.1 181.739 1200.31 182.712 1199.51 183.685C1197.05 186.52 1194.69 189.444 1192.43 192.447C1192.11 192.851 1191.79 193.255 1191.47 193.659C1189.67 195.689 1187.99 197.817 1186.35 199.974C1185.15 201.392 1183.95 202.81 1182.87 204.322C1181.61 205.63 1180.55 207.093 1179.38 208.535C1180.16 209.424 1180.95 210.25 1181.44 211.291C1181.78 213.342 1180.87 214.169 1178.86 213.668C1178.16 213.493 1177.48 213.249 1176.88 212.882C1176.36 212.569 1176 212.614 1175.69 213.114C1175.64 213.194 1175.57 213.27 1175.5 213.335C1175.24 213.587 1175 214.004 1174.56 213.634C1174.14 213.277 1174.42 212.924 1174.69 212.658C1175.28 212.066 1175.11 211.66 1174.51 211.182C1173.8 210.612 1173.22 209.9 1172.82 209.064C1172.15 207.647 1172.46 206.918 1173.97 206.318C1175.36 206.292 1176.61 206.761 1177.74 207.508C1178.31 207.881 1178.66 207.793 1179.04 207.262C1179.5 206.609 1180.02 205.997 1180.6 205.27C1178.83 204.051 1177.18 202.833 1175.45 201.75C1173.71 200.658 1172.06 199.431 1170.39 198.24C1169.4 197.533 1169.38 197.3 1169.9 196.077C1171.46 194.552 1173.29 193.328 1174.8 191.75L1174.8 191.75ZM1212.22 170.154C1212.51 170.124 1212.85 170.127 1213.18 170.051C1214.09 169.835 1214.26 169.419 1213.72 168.63C1213.42 168.199 1213.07 167.809 1212.71 167.423C1211.93 166.566 1211.92 166.574 1212.46 165.483C1212.6 165.179 1212.75 164.704 1212.29 164.679C1210.8 164.597 1209.4 165.049 1208 165.522C1207.96 165.536 1207.92 165.582 1207.9 165.623C1207.54 166.504 1207.05 167.46 1207.18 168.34C1207.29 169.051 1208.43 168.96 1209.08 169.295C1209.36 169.441 1209.59 169.377 1209.86 169.258C1210.13 169.14 1210.42 169.163 1210.57 169.506C1210.9 170.239 1211.59 170.074 1212.22 170.154ZM1175.99 210.985C1176.57 210.265 1177.15 209.552 1177.76 208.794C1176.89 208.219 1176.11 207.752 1175.22 207.557C1174.73 207.449 1174.07 207.207 1173.74 207.674C1173.41 208.137 1173.81 208.673 1174.1 209.107C1174.59 209.812 1175.16 210.439 1175.99 210.985ZM1178.63 209.49C1178.1 210.145 1177.64 210.689 1177.21 211.247C1177.02 211.495 1176.97 211.707 1177.33 211.913C1178.04 212.316 1178.8 212.574 1179.6 212.694C1180.38 212.814 1180.64 212.433 1180.37 211.696C1180.04 210.825 1179.41 210.183 1178.63 209.49V209.49ZM1211.73 161.287C1212.04 162.543 1212.82 163.355 1213.88 164.054C1214.31 163.367 1214.71 162.746 1215.17 162.026C1214.02 161.514 1213.07 160.831 1211.73 161.287ZM1216.06 162.688C1215.64 163.479 1215.08 164.002 1214.84 164.74C1215.83 165.327 1216.79 165.802 1218 165.422C1217.86 164.211 1217.02 163.53 1216.06 162.688Z" fill="white"/>
<path d="M1201.89 180.766C1203.56 178.369 1205.51 176.196 1207.33 173.913C1207.83 173.284 1208.22 172.545 1208.93 172.094C1210.85 173.253 1212.76 174.432 1214.7 175.565C1215.81 176.213 1216.79 177.081 1218 177.557C1218.15 177.993 1218.44 178.213 1218.91 178.114C1219.91 179.091 1221.2 179.671 1222.28 180.533C1223.49 181.488 1224.7 182.427 1225.67 183.625C1226.91 185.143 1227.75 186.814 1227.8 188.84C1227.83 190.318 1227.34 191.538 1226.36 192.621C1224.26 194.942 1221.81 196.853 1219.39 198.813C1218.94 199.175 1218.51 199.549 1218.07 199.919C1215.91 198.568 1213.76 197.216 1211.6 195.864C1212.82 194.728 1214.02 193.574 1215.27 192.465C1215.78 192.009 1215.77 191.641 1215.34 191.15C1214.16 189.835 1212.99 188.525 1211.41 187.667C1211.28 187.336 1210.91 187.323 1210.68 187.114C1210.49 186.636 1210.05 186.408 1209.67 186.132C1207.13 184.267 1204.57 182.429 1201.89 180.766H1201.89Z" fill="white"/>
<path d="M1198.04 207.792C1199.68 205.635 1200.83 203.281 1204.09 202.584C1204.31 202.766 1215.13 210.082 1215.36 210.245C1219.27 212.979 1243.81 230.44 1248.18 233.709C1248.57 234.003 1248.87 234.372 1249.1 234.793C1250.16 236.671 1251.21 238.554 1252.27 240.429C1252.46 240.771 1252.7 241.134 1252.47 241.499C1252.2 241.951 1251.68 241.793 1251.29 241.714C1249.32 241.317 1247.37 240.837 1245.39 240.459C1243.62 240.118 1242.13 239.325 1240.69 238.216C1232.66 232.068 1224.33 226.338 1216.05 220.54C1214.28 219.304 1212.55 218.018 1210.8 216.763C1210.41 216.486 1198.51 207.926 1198.04 207.792Z" fill="white"/>
<path d="M1197.43 138.736C1196.15 139.538 1195.53 140.825 1195.9 142.223C1196.07 142.836 1196.06 143.443 1196.16 144.049C1195.79 145.092 1195.17 145.936 1194.04 146.172C1193.01 146.388 1192.08 145.939 1191.08 145.36C1192.14 147.229 1193.28 148.549 1194.54 149.313C1195.91 150.152 1197.31 150.358 1198.89 149.756C1200.39 149.185 1201.42 148.114 1202.47 147.015C1202.8 147.065 1203.13 147.114 1203.46 147.164C1201.63 151.556 1195.78 152.606 1192.4 149.104C1190.9 147.544 1189.67 145.785 1188.96 143.684C1188.7 142.884 1188.18 142.168 1188.05 141.306C1187.71 138.276 1188.48 135.506 1190.11 132.973C1193.08 128.354 1197.77 126.668 1202.93 128.397C1204.73 128.998 1206.06 130.189 1206.71 132.064C1207.31 133.786 1207.96 135.492 1208.07 137.326C1208.12 138.144 1208.29 139.151 1206.99 139.286C1206.69 139.317 1206.68 139.598 1206.6 139.816C1206.46 140.218 1206.55 140.689 1206.23 141.033C1205.92 140.992 1205.61 140.951 1205.3 140.91C1205.31 140.722 1205.29 140.531 1205.32 140.346C1205.38 139.879 1205.64 139.346 1205.49 138.968C1205.3 138.485 1204.63 138.799 1204.2 138.634C1203.67 138.431 1203.13 138.261 1202.61 138.023C1200.72 137.149 1199.03 137.551 1197.43 138.736Z" fill="white"/>
<path d="M1211.7 208.043C1211.58 209.056 1212.16 209.864 1212.5 210.741C1212.81 211.539 1213.25 212.287 1213.43 213.135C1213.49 213.422 1213.5 213.722 1213.26 213.936C1212.96 214.207 1212.64 214.075 1212.34 213.9C1212.1 213.755 1211.85 213.598 1211.64 213.413C1208.87 211.056 1205.84 209.052 1202.95 206.858C1201.34 205.638 1200.81 204.928 1202.79 203.537C1203.21 203.244 1203.62 202.891 1203.85 202.397C1205.75 200.766 1207.39 198.9 1209.16 196.887C1207.92 196.997 1206.94 196.827 1206.03 196.347C1205.62 196.13 1205.33 196.21 1205.07 196.61C1204.76 197.092 1204.41 197.545 1204.05 197.998C1203.86 198.238 1203.61 198.409 1203.31 198.216C1202.95 197.984 1202.99 197.664 1203.22 197.347C1203.63 196.762 1204.04 196.177 1204.38 195.704C1203.94 195.201 1203.53 194.732 1203.12 194.263C1202.67 193.755 1202.26 193.229 1202.11 192.549C1201.83 191.343 1202.38 190.61 1203.62 190.516C1204.66 190.437 1205.65 190.661 1206.5 191.202C1207.23 191.658 1207.56 191.428 1207.97 190.817C1208.84 189.556 1209.77 188.345 1210.68 187.114C1210.91 187.323 1211.28 187.336 1211.41 187.667C1211.37 188.131 1211.04 188.43 1210.79 188.775C1210.09 189.748 1209.4 190.721 1208.67 191.671C1208.36 192.081 1208.31 192.361 1208.74 192.743C1209.72 193.611 1210.37 194.673 1210.26 196.082C1210.78 195.939 1211.15 195.647 1211.6 195.864C1213.76 197.216 1215.91 198.568 1218.07 199.919C1218.4 200.184 1218.77 200.421 1219.07 200.721C1219.8 201.451 1219.78 201.991 1218.94 202.588C1217.66 203.497 1216.32 204.317 1215.06 205.252C1213.89 206.12 1212.58 206.828 1211.7 208.043L1211.7 208.043ZM1205.21 194.563C1205.62 194.011 1205.99 193.513 1206.36 193.011C1206.54 192.759 1206.65 192.493 1206.3 192.293C1205.55 191.86 1204.73 191.574 1203.87 191.507C1203.21 191.457 1202.96 191.94 1203.26 192.549C1203.67 193.386 1204.29 194.037 1205.21 194.563ZM1206.19 195.175C1206.89 195.625 1207.51 195.789 1208.18 195.821C1208.5 195.836 1208.88 195.904 1209.06 195.556C1209.21 195.242 1209.06 194.915 1208.88 194.624C1208.55 194.107 1208.17 193.645 1207.6 193.273C1207.04 193.847 1206.63 194.459 1206.19 195.175V195.175Z" fill="white"/>
<path d="M1202.69 223.311C1203.94 221.941 1205.88 219.214 1207.21 217.982C1209.28 219.623 1211.56 220.939 1213.85 222.246C1215.35 223.102 1216.83 223.991 1218.26 224.946C1218.93 225.384 1219.44 225.9 1219.82 226.589C1220.67 228.095 1221.51 229.602 1222.55 230.987C1222.8 231.33 1223.11 231.704 1222.83 232.158C1222.54 232.622 1222.04 232.496 1221.65 232.402C1219.51 231.892 1217.38 231.287 1215.23 230.824C1213.92 230.544 1203.41 224.244 1202.69 223.311H1202.69Z" fill="white"/>
<path d="M1218.91 178.114C1218.44 178.214 1218.15 177.993 1218 177.558C1221.48 172.332 1224.95 167.107 1228.52 161.74C1227.06 161.581 1226.71 160.668 1226.6 159.526C1226.54 158.768 1226.32 158.024 1226.36 157.253C1226.84 156.832 1227.18 157.082 1227.49 157.493C1227.47 158.305 1227.62 159.097 1227.78 159.889C1227.88 160.384 1228.03 160.718 1228.61 160.35C1228.77 160.252 1228.96 160.21 1229.15 160.171C1230.03 159.983 1230.23 159.148 1230.57 158.523C1230.78 158.142 1230.16 157.866 1229.95 157.517C1229.7 157.112 1229.42 156.731 1229.16 156.339C1229.13 156.201 1229.1 156.062 1229.07 155.923C1228.6 153.746 1229.76 152.676 1231.93 153.231C1232.52 153.383 1232.96 154.053 1233.68 153.767C1233.96 153.459 1234.31 153.252 1234.68 153.532C1234.92 153.716 1234.89 154.053 1234.72 154.323C1234.49 154.697 1234.7 154.923 1234.96 155.166C1235.54 155.737 1236.05 156.374 1236.36 157.143C1237.03 158.86 1236.48 159.869 1234.67 160.288C1234.53 160.319 1234.4 160.375 1234.23 160.434C1234.23 161.15 1234.37 161.858 1234.22 162.566C1233.83 164.302 1232.18 164.882 1230.84 163.699C1230.38 163.294 1230.06 162.742 1229.58 162.149C1226.02 167.485 1222.47 172.8 1218.91 178.114L1218.91 178.114ZM1232 155.111C1232.12 154.688 1232.03 154.347 1231.55 154.261C1231.1 154.178 1230.58 154.045 1230.21 154.395C1229.77 154.819 1229.99 155.346 1230.19 155.83C1230.49 156.408 1230.75 157.019 1231.38 157.337C1231.96 156.528 1232.17 155.787 1232 155.111V155.111ZM1231.63 159.218C1230.01 161.167 1230.13 160.879 1231.34 162.653C1231.36 162.692 1231.4 162.723 1231.43 162.758C1231.74 163.094 1232.12 163.305 1232.57 163.161C1233.04 163.012 1233.16 162.573 1233.24 162.148C1233.52 160.631 1233.17 160.004 1231.63 159.218L1231.63 159.218ZM1234.68 159.157C1235.37 159.126 1235.7 158.695 1235.49 157.994C1235.27 157.26 1234.87 156.613 1234.33 156.059C1234.2 155.927 1234.07 155.741 1233.86 155.815C1233.62 155.905 1233.49 156.144 1233.54 156.389C1233.71 157.224 1233.92 158.053 1234.11 158.883C1234.19 159.201 1234.45 159.143 1234.68 159.157ZM1232.87 158.52C1232.98 158.163 1232.9 157.88 1232.57 157.698C1232.55 157.687 1232.43 157.806 1232.4 157.883C1232.16 158.375 1232.6 158.373 1232.87 158.52Z" fill="white"/>
<path d="M1116.51 148.314C1115.01 147.609 1114.07 146.543 1113.33 145.314C1112.57 144.051 1112.14 142.696 1112.59 141.199C1113.03 139.766 1114.32 139.048 1115.73 139.471C1118.83 140.404 1120.53 145.126 1118.72 147.793C1118.33 148.357 1117.82 148.778 1117.25 149.157C1112.73 152.207 1108.08 151.916 1103.37 149.661C1102.41 149.203 1101.54 148.614 1100.8 147.844C1100.55 147.581 1100.14 147.316 1100.51 146.886C1100.88 146.46 1101.22 146.773 1101.49 147.031C1103.44 148.884 1105.87 149.729 1108.44 150.173C1111.27 150.663 1113.91 150.063 1116.51 148.314H1116.51ZM1116.79 148.061C1118.25 146.976 1118.81 145.694 1118.41 144.313C1118.03 142.999 1117.27 141.907 1116.24 141.003C1115.66 140.484 1114.96 140.303 1114.25 140.628C1113.61 140.923 1113.53 141.573 1113.52 142.22C1113.48 144.221 1114.57 145.631 1115.99 146.848C1116.37 147.178 1116.86 147.394 1116.79 148.061H1116.79Z" fill="white"/>
<path d="M1142.08 163.854C1141.65 163.757 1141.03 163.662 1140.44 163.482C1133.84 161.464 1127.81 158.328 1122.39 154.051C1121.38 153.254 1120.54 152.252 1119.61 151.353C1119.35 151.1 1119.11 150.782 1119.36 150.484C1119.65 150.13 1120.05 150.285 1120.36 150.576C1120.43 150.641 1120.5 150.709 1120.56 150.78C1123.7 154.248 1127.63 156.582 1131.71 158.727C1135.1 160.506 1138.57 162.07 1142.32 162.892C1142.46 162.922 1142.6 162.961 1142.74 162.996C1142.99 163.059 1143.18 163.182 1143.16 163.477C1143.14 163.878 1142.84 163.886 1142.54 163.885C1142.45 163.884 1142.35 163.873 1142.08 163.854H1142.08Z" fill="white"/>
<path d="M1121.28 168.445C1121.19 168.773 1120.99 168.85 1120.73 168.836C1120.42 168.821 1120.2 168.621 1119.97 168.46C1114.3 164.563 1108.99 160.28 1104.86 154.688C1104.69 154.457 1104.49 154.244 1104.34 154.001C1104.21 153.789 1104.17 153.525 1104.38 153.342C1104.63 153.123 1104.92 153.172 1105.16 153.371C1105.34 153.522 1105.5 153.709 1105.64 153.901C1109.65 159.393 1114.84 163.607 1120.33 167.504C1120.6 167.697 1120.87 167.895 1121.12 168.116C1121.21 168.2 1121.24 168.356 1121.28 168.445V168.445Z" fill="white"/>
<path d="M1199.51 183.685C1200.3 185.933 1199.36 188.617 1197.09 189.995C1195.59 190.912 1194.18 192.002 1192.43 192.448C1194.69 189.444 1197.05 186.52 1199.51 183.685H1199.51Z" fill="white"/>
<path d="M1232 155.111C1231.39 155.35 1230.79 155.59 1230.19 155.83C1229.99 155.346 1229.77 154.819 1230.21 154.394C1230.58 154.044 1231.1 154.178 1231.55 154.26C1232.03 154.346 1232.12 154.688 1232 155.111V155.111Z" fill="white"/>
<path d="M1175.44 161.463C1176.47 162.956 1177.86 164.056 1179.7 164.805C1181.79 165.655 1183.95 166.259 1186.11 166.897C1192.25 168.717 1198.55 169.946 1204.71 171.722C1205.54 171.963 1206.09 171.705 1206.46 170.965C1206.88 171.183 1207.3 171.402 1207.72 171.62C1207.51 172.285 1206.96 172.709 1206.54 173.215C1204.64 175.524 1202.88 177.946 1200.85 180.152C1199.33 178.979 1194.04 175.98 1193.09 175.788C1193.54 176.204 1193.93 176.552 1194.31 176.917C1196.05 178.618 1197.85 180.277 1198.93 182.525C1198.77 182.76 1198.63 183.009 1198.46 183.228C1196.03 186.236 1193.62 189.254 1191.17 192.237C1190.27 193.335 1189.51 194.56 1188.39 195.472C1188.35 195.43 1188.31 195.385 1188.28 195.338C1188.43 194.678 1188 194.26 1187.64 193.827C1185.79 191.638 1183.93 189.456 1182.07 187.271C1183.98 186.098 1185.89 184.925 1187.93 183.672C1187.07 182.924 1186.14 182.724 1185.24 182.562C1181.92 181.958 1178.78 180.769 1175.66 179.531C1172.16 178.139 1169 176.161 1166.21 173.611C1164.99 172.501 1164.02 171.214 1163.27 169.736C1161.46 166.167 1161.76 162.779 1163.88 159.574" fill="white"/>
<path d="M1092.46 132.692C1091.23 132.017 1090.06 131.792 1088.96 131.401C1088.58 131.27 1088.2 131.151 1087.85 130.973C1087.5 130.79 1087.15 130.518 1087.34 130.065C1087.53 129.587 1087.94 129.707 1088.34 129.836C1089.71 130.281 1091.09 130.709 1092.53 131.161C1092.97 130.325 1092.39 129.632 1092.35 128.907C1092.33 128.463 1092.21 128.022 1092.2 127.579C1092.19 127.317 1092.38 127.073 1092.66 127.016C1093.03 126.939 1093.3 127.14 1093.39 127.494C1093.59 128.308 1093.76 129.129 1093.94 129.946C1094.01 130.259 1094.05 130.585 1094.39 130.771C1095 130.821 1095.31 130.359 1095.68 130.016C1096.06 129.662 1096.37 129.228 1096.77 128.897C1097.24 128.505 1097.8 127.723 1098.42 128.337C1099.09 129.008 1098.15 129.423 1097.76 129.857C1097.2 130.467 1096.6 131.03 1095.73 131.89C1097.27 132.034 1098.45 132.027 1099.57 132.334C1099.97 132.446 1100.37 132.571 1100.29 133.062C1100.21 133.557 1099.76 133.538 1099.36 133.542C1098.51 133.549 1097.67 133.234 1096.79 133.478C1096.67 134.474 1097.49 135.003 1097.82 135.743C1097.97 136.095 1098.22 136.407 1098.41 136.745C1098.58 137.047 1098.64 137.379 1098.33 137.615C1097.94 137.91 1097.55 137.765 1097.31 137.415C1096.79 136.665 1096.35 135.871 1095.84 135.117C1095.6 134.757 1095.49 134.263 1094.82 134.099C1094.28 135.392 1094.15 136.785 1093.81 138.128C1093.65 138.761 1093.95 140.034 1092.77 139.793C1091.85 139.606 1092.4 138.572 1092.49 137.936C1092.66 136.801 1092.95 135.686 1093.25 134.317C1091.94 134.64 1091.18 135.432 1090.31 136.022C1089.93 136.279 1089.61 136.611 1089.22 136.854C1089.1 136.931 1088.83 136.88 1088.68 136.798C1088.42 136.653 1088.38 136.362 1088.49 136.119C1088.74 135.57 1089.24 135.232 1089.7 134.862C1090.55 134.17 1091.58 133.684 1092.46 132.692L1092.46 132.692Z" fill="white"/>
<path d="M1088.7 161.882C1087.58 161.219 1086.52 160.999 1085.52 160.615C1085.18 160.486 1084.83 160.369 1084.52 160.195C1084.19 160.016 1083.88 159.748 1084.05 159.304C1084.23 158.835 1084.59 158.953 1084.95 159.079C1086.2 159.516 1087.46 159.935 1088.76 160.38C1089.16 159.56 1088.63 158.88 1088.6 158.168C1088.58 157.732 1088.47 157.3 1088.46 156.865C1088.45 156.608 1088.63 156.368 1088.88 156.313C1089.22 156.237 1089.46 156.434 1089.54 156.782C1089.72 157.58 1089.87 158.385 1090.04 159.188C1090.1 159.494 1090.14 159.815 1090.45 159.997C1091 160.046 1091.29 159.592 1091.62 159.256C1091.97 158.908 1092.25 158.483 1092.61 158.158C1093.04 157.774 1093.54 157.006 1094.1 157.608C1094.71 158.267 1093.86 158.674 1093.5 159.1C1093 159.699 1092.45 160.251 1091.67 161.094C1093.06 161.236 1094.13 161.229 1095.15 161.53C1095.51 161.64 1095.88 161.763 1095.8 162.245C1095.73 162.73 1095.32 162.712 1094.95 162.715C1094.19 162.722 1093.42 162.413 1092.62 162.652C1092.52 163.63 1093.26 164.149 1093.56 164.875C1093.7 165.22 1093.92 165.526 1094.09 165.858C1094.25 166.154 1094.31 166.48 1094.02 166.712C1093.67 167.001 1093.31 166.859 1093.1 166.515C1092.63 165.78 1092.23 165 1091.77 164.261C1091.55 163.907 1091.45 163.422 1090.84 163.262C1090.35 164.53 1090.23 165.897 1089.92 167.215C1089.78 167.836 1090.05 169.085 1088.98 168.849C1088.14 168.665 1088.64 167.65 1088.72 167.026C1088.87 165.913 1089.14 164.819 1089.41 163.476C1088.22 163.793 1087.53 164.569 1086.75 165.149C1086.4 165.401 1086.11 165.727 1085.76 165.965C1085.65 166.04 1085.4 165.99 1085.27 165.909C1085.03 165.767 1085 165.482 1085.1 165.244C1085.32 164.705 1085.78 164.374 1086.19 164.011C1086.97 163.331 1087.9 162.855 1088.7 161.882H1088.7Z" fill="white"/>
</g>
<g clip-path="url(#clip1_559_158)">
<path d="M274.684 274.574C274.594 274.439 274.502 274.304 274.406 274.169C274.182 273.856 274.036 273.555 273.94 273.244" fill="white"/>
<path d="M273.94 273.244C273.817 272.847 273.776 272.433 273.758 271.956C273.626 268.444 272.816 265.116 270.485 262.339C269.622 261.311 268.729 260.306 267.801 259.337C266.435 257.912 264.745 257.03 262.823 256.626C259.226 255.871 255.601 255.725 251.952 256.195C251.477 256.256 250.996 256.27 250.519 256.306C250.387 257.168 249.87 257.884 249.602 258.684C248.898 260.785 247.667 262.544 246.164 264.104C242.791 267.606 236.94 266.556 235.108 262.164C235.438 262.114 235.768 262.065 236.098 262.015C236.444 261.621 236.484 261.074 236.71 260.549C237.046 260.726 237.285 260.87 237.538 260.983C239.191 261.723 240.872 261.225 241.889 259.703C242.045 259.47 242.117 259.171 242.411 259.048C242.508 258.443 242.498 257.836 242.663 257.223C243.039 255.825 242.418 254.538 241.139 253.736C239.573 254.5 237.995 255.241 236.315 255.713C235.323 255.991 234.313 256.365 233.264 255.909C232.957 255.951 232.649 255.992 232.341 256.034C232.147 256.857 232.432 257.647 232.539 258.433C232.137 258.698 231.775 258.504 231.407 258.435C227.594 257.724 223.734 257.346 219.887 256.88C217.798 256.627 215.715 256.308 213.601 256.29C210.94 256.267 209.002 257.414 207.842 259.813C206.462 262.666 205.492 265.658 204.884 268.767C205.606 269.053 206.042 268.383 206.639 268.231C208.809 267.676 209.971 268.746 209.494 270.923C209.464 271.062 209.436 271.2 209.407 271.339C209.965 271.724 210.523 272.109 211.08 272.494C211.384 272.082 211.722 271.832 212.203 272.253C212.819 271.663 212.984 270.839 213.261 270.092C213.698 268.915 214.326 267.864 215.006 266.82C215.407 266.204 215.879 265.996 216.556 266.09C216.887 266.136 217.225 266.147 217.55 266.215C222.175 267.188 226.793 268.188 231.424 269.125C232.17 269.275 232.275 269.625 232.325 270.277C232.487 272.383 233.037 274.408 233.795 276.376C237.789 275.373 241.731 274.188 245.541 272.627C248.277 271.506 251.089 270.509 253.532 268.768C253.734 268.625 253.957 268.485 254.16 268.729C254.376 268.988 254.314 269.285 254.11 269.513C253.52 270.172 252.72 270.526 251.95 270.905C247 273.34 241.887 275.343 236.54 276.738C234.969 277.148 233.43 277.686 231.873 278.151C231.373 278.3 231.153 278.551 231.323 279.096C231.94 281.062 232.551 283.03 233.133 285.006C233.309 285.603 233.651 285.736 234.208 285.61C236.024 285.199 237.875 284.908 239.656 284.38C243.46 283.252 247.268 282.149 251.108 281.149C253.654 280.485 256.182 279.753 258.618 278.745C260.797 277.845 262.372 276.403 263.196 274.097C264.201 271.288 264.668 268.47 264.13 265.51C264.037 264.997 264.067 264.46 264.057 263.933C264.052 263.622 264.165 263.347 264.519 263.327C264.879 263.306 264.978 263.607 265.066 263.885C265.095 263.976 265.111 264.072 265.119 264.168C265.394 267.421 265.552 270.618 264.432 273.826C264.087 274.814 263.654 275.691 263.123 276.463" fill="white"/>
<path d="M285.975 305.571C291.56 301.945 297.279 298.523 302.882 294.921C304.296 294.012 304.462 293.595 303.727 292.127C303.149 290.972 302.523 289.837 301.856 288.729C301.145 287.548 300.873 287.501 299.674 288.227C295.452 290.786 291.355 293.538 287.233 296.253C277.107 302.922 267.111 309.786 256.911 316.344C252.76 319.012 227.754 335.327 225.985 336.546C226.557 337.272 231.871 339.676 232.334 340.329C232.712 340.861 272.992 314.002 285.975 305.571V305.571Z" fill="white"/>
<path d="M234.722 326.84C240.004 323.18 245.047 319.193 250.243 315.417C257.381 310.232 264.69 305.289 272.067 300.45C274.035 299.159 275.921 297.763 277.777 296.321C278.834 295.5 278.849 295.482 278.332 294.316C277.647 292.77 276.498 291.515 275.616 290.091C275.246 289.493 274.716 289.708 274.221 289.96C272.72 290.725 271.297 291.634 270.017 292.712C266.561 295.626 262.81 298.103 259.045 300.587C252.844 304.679 246.708 308.871 240.676 313.212C236.709 316.068 232.675 318.829 228.67 321.632C229.425 322.137 230.092 322.746 230.751 323.368C232.03 324.575 233.29 325.807 234.722 326.84H234.722Z" fill="white"/>
<path d="M263.763 306.75C262.33 305.717 261.071 304.485 259.791 303.277C259.132 302.656 258.466 302.047 257.711 301.542C257.237 301.67 256.864 301.966 256.495 302.27C254.638 304.455 252.78 306.637 250.929 308.826C250.563 309.259 250.132 309.678 250.287 310.338C251.923 311.154 253.694 311.715 255.119 312.925C256.049 313.508 256.977 314.094 257.91 314.672C258.159 314.827 258.462 314.992 258.351 315.318C257.95 316.496 257.86 317.834 256.718 318.785C255.483 317.216 254.305 315.717 253.126 314.218C252.072 313.025 250.962 311.876 250.175 310.472C249.056 309.559 248.297 308.334 247.395 307.237C244.943 304.253 242.532 301.235 240.109 298.228C239.933 298.008 239.793 297.76 239.638 297.527C238.943 296.783 238.28 296.007 237.717 295.152C235.69 292.945 233.925 290.523 232.022 288.214C231.606 287.708 231.058 287.285 230.852 286.62C230.473 286.288 230.111 285.944 229.923 285.465C230.242 285.015 230.777 285.07 231.175 284.843C231.623 284.589 231.869 284.83 231.965 285.279C232.013 285.507 232.059 285.736 232.106 285.964C232.479 286.705 233.026 286.962 233.859 286.722C240.015 284.946 246.314 283.717 252.459 281.896C254.614 281.258 256.779 280.654 258.866 279.804C261.653 278.669 263.42 276.723 264.432 273.825C265.552 270.618 265.394 267.42 265.119 264.167C265.111 264.072 265.095 263.975 265.066 263.884C264.978 263.606 264.879 263.305 264.519 263.326C264.165 263.347 264.052 263.621 264.057 263.932C264.067 264.459 264.037 264.996 264.13 265.51C264.668 268.469 264.201 271.288 263.197 274.096C262.372 276.403 260.797 277.844 258.618 278.745C256.182 279.752 253.654 280.485 251.108 281.148C247.268 282.148 243.46 283.252 239.656 284.379C237.875 284.907 236.024 285.198 234.208 285.609C233.651 285.735 233.309 285.603 233.133 285.006C232.551 283.029 231.94 281.061 231.323 279.095C231.153 278.55 231.373 278.3 231.873 278.151C233.43 277.685 234.969 277.147 236.54 276.737C241.887 275.343 247 273.339 251.95 270.904C252.72 270.526 253.521 270.171 254.11 269.512C254.314 269.284 254.377 268.987 254.16 268.728C253.957 268.485 253.734 268.624 253.533 268.767C251.089 270.508 248.277 271.505 245.541 272.626C241.731 274.187 237.789 275.373 233.796 276.375C232.941 276.668 232.082 276.955 231.229 277.258C230.003 277.694 230.006 277.699 230.212 278.954C230.224 279.03 230.171 279.116 230.13 279.263C229.129 279.059 228.124 278.855 227.14 278.655C227.05 278.281 227.277 278.071 227.412 277.824C227.813 277.09 228.172 276.321 227.561 275.553C226.96 274.797 226.085 274.949 225.29 275.093C224.736 275.193 224.209 275.459 223.679 275.674C223.374 275.797 223.118 276.04 222.737 276.054C222.604 275.873 222.471 275.676 222.321 275.492C222.039 275.145 221.816 274.472 221.254 274.867C220.729 275.235 221.145 275.755 221.443 276.111C221.918 276.679 221.669 277.015 221.197 277.401C220.602 277.889 220.104 278.481 219.764 279.179C219.462 279.799 219.251 280.45 219.72 281.081C220.167 281.682 220.801 281.781 221.513 281.71C222.342 281.629 223.094 281.329 223.813 280.954C224.216 280.744 224.472 280.721 224.782 281.109C225.097 281.502 224.989 281.788 224.722 282.112C224.389 282.516 224.002 282.893 223.749 283.345C223.038 284.611 223.449 285.527 224.838 285.995C225.681 286.279 226.531 286.311 227.385 286.147C228.798 285.875 228.795 285.859 229.642 287.093C230.349 287.545 230.738 288.284 231.238 288.913C233.053 291.195 235.006 293.369 236.676 295.766C237.468 296.739 238.26 297.712 239.052 298.685C241.519 301.52 243.876 304.444 246.135 307.447C246.456 307.851 246.777 308.255 247.098 308.659C248.897 310.689 250.575 312.817 252.218 314.974C253.419 316.392 254.619 317.81 255.701 319.322C256.956 320.63 258.019 322.093 259.189 323.535C258.407 324.424 257.618 325.25 257.124 326.291C256.791 328.342 257.701 329.169 259.706 328.668C260.407 328.493 261.082 328.249 261.691 327.882C262.21 327.569 262.564 327.614 262.881 328.114C262.931 328.194 262.994 328.27 263.063 328.335C263.328 328.587 263.566 329.004 264.002 328.634C264.425 328.277 264.149 327.924 263.88 327.658C263.284 327.066 263.462 326.66 264.057 326.182C264.767 325.612 265.346 324.9 265.743 324.064C266.416 322.647 266.109 321.918 264.593 321.318C263.204 321.292 261.962 321.761 260.827 322.508C260.261 322.881 259.904 322.793 259.527 322.262C259.063 321.609 258.542 320.997 257.97 320.27C259.739 319.051 261.385 317.833 263.115 316.75C264.859 315.658 266.503 314.431 268.174 313.24C269.166 312.533 269.187 312.3 268.671 311.077C267.108 309.552 265.279 308.328 263.763 306.75L263.763 306.75ZM226.351 285.154C226.052 285.124 225.712 285.127 225.391 285.051C224.476 284.835 224.311 284.419 224.851 283.63C225.145 283.199 225.502 282.809 225.855 282.423C226.641 281.566 226.643 281.574 226.11 280.483C225.962 280.179 225.819 279.704 226.275 279.679C227.762 279.597 229.172 280.049 230.564 280.522C230.604 280.536 230.645 280.582 230.662 280.623C231.023 281.504 231.517 282.46 231.385 283.34C231.279 284.051 230.137 283.96 229.488 284.295C229.205 284.441 228.976 284.377 228.703 284.258C228.433 284.14 228.148 284.163 227.995 284.506C227.669 285.239 226.98 285.074 226.351 285.154ZM262.577 325.985C261.996 325.265 261.42 324.552 260.808 323.794C261.681 323.219 262.458 322.752 263.346 322.557C263.839 322.449 264.496 322.207 264.829 322.674C265.158 323.137 264.762 323.673 264.462 324.107C263.974 324.812 263.403 325.439 262.577 325.985ZM259.939 324.49C260.469 325.145 260.922 325.689 261.358 326.247C261.552 326.495 261.601 326.707 261.237 326.913C260.525 327.316 259.764 327.574 258.972 327.694C258.19 327.814 257.923 327.433 258.199 326.696C258.525 325.825 259.152 325.183 259.939 324.49V324.49ZM226.835 276.287C226.524 277.543 225.745 278.355 224.692 279.054C224.253 278.367 223.856 277.746 223.397 277.026C224.543 276.514 225.494 275.831 226.835 276.287ZM222.508 277.688C222.931 278.479 223.485 279.002 223.722 279.74C222.735 280.327 221.78 280.802 220.571 280.422C220.711 279.211 221.547 278.53 222.508 277.688Z" fill="white"/>
<path d="M236.676 295.766C235.006 293.369 233.053 291.196 231.238 288.913C230.738 288.284 230.349 287.545 229.642 287.094C227.717 288.253 225.803 289.432 223.862 290.565C222.752 291.213 221.775 292.081 220.562 292.557C220.412 292.993 220.131 293.213 219.653 293.114C218.653 294.091 217.369 294.671 216.283 295.533C215.08 296.488 213.868 297.427 212.894 298.625C211.658 300.143 210.814 301.814 210.771 303.84C210.739 305.318 211.228 306.538 212.206 307.621C214.304 309.942 216.761 311.853 219.178 313.813C219.623 314.175 220.058 314.549 220.497 314.919C222.652 313.568 224.808 312.216 226.964 310.864C225.746 309.728 224.542 308.574 223.3 307.465C222.79 307.009 222.792 306.641 223.229 306.15C224.402 304.835 225.575 303.525 227.152 302.667C227.287 302.336 227.661 302.323 227.887 302.114C228.076 301.636 228.521 301.408 228.897 301.132C231.437 299.267 233.996 297.429 236.676 295.766H236.676Z" fill="white"/>
<path d="M240.528 322.792C238.885 320.635 237.732 318.281 234.476 317.584C234.257 317.766 223.437 325.082 223.204 325.245C219.299 327.979 194.759 345.44 190.387 348.709C189.994 349.003 189.698 349.372 189.462 349.793C188.406 351.671 187.357 353.554 186.297 355.429C186.104 355.771 185.866 356.134 186.092 356.499C186.371 356.951 186.883 356.793 187.275 356.714C189.245 356.317 191.198 355.837 193.172 355.459C194.948 355.118 196.434 354.325 197.881 353.216C205.907 347.068 214.236 341.338 222.516 335.54C224.282 334.304 226.013 333.018 227.766 331.763C228.153 331.486 240.052 322.926 240.528 322.792Z" fill="white"/>
<path d="M241.139 253.736C242.418 254.538 243.039 255.825 242.663 257.223C242.498 257.836 242.508 258.443 242.411 259.049C242.78 260.092 243.392 260.936 244.524 261.172C245.556 261.388 246.489 260.939 247.483 260.36C246.429 262.229 245.282 263.549 244.029 264.313C242.656 265.152 241.256 265.358 239.676 264.756C238.178 264.185 237.147 263.114 236.098 262.015C235.768 262.065 235.438 262.114 235.108 262.164C236.94 266.556 242.791 267.606 246.164 264.104C247.667 262.544 248.898 260.785 249.602 258.684C249.87 257.884 250.387 257.168 250.519 256.306C250.853 253.276 250.084 250.506 248.457 247.973C245.491 243.354 240.794 241.668 235.633 243.397C233.841 243.998 232.509 245.189 231.858 247.064C231.261 248.786 230.607 250.492 230.496 252.326C230.446 253.144 230.275 254.151 231.576 254.286C231.88 254.317 231.888 254.598 231.964 254.816C232.102 255.218 232.018 255.689 232.341 256.033C232.649 255.992 232.957 255.951 233.264 255.91C233.26 255.722 233.275 255.531 233.25 255.346C233.186 254.879 232.927 254.346 233.075 253.968C233.264 253.485 233.934 253.799 234.366 253.634C234.896 253.431 235.441 253.261 235.955 253.023C237.842 252.149 239.541 252.551 241.139 253.736Z" fill="white"/>
<path d="M226.87 323.043C226.986 324.056 226.405 324.864 226.065 325.741C225.755 326.539 225.316 327.287 225.135 328.135C225.074 328.422 225.063 328.722 225.302 328.936C225.607 329.207 225.931 329.075 226.226 328.9C226.471 328.755 226.714 328.598 226.93 328.413C229.695 326.056 232.726 324.052 235.615 321.858C237.222 320.638 237.756 319.928 235.777 318.537C235.361 318.244 234.947 317.891 234.717 317.397C232.821 315.766 231.178 313.9 229.404 311.887C230.652 311.997 231.629 311.827 232.538 311.347C232.95 311.13 233.234 311.21 233.492 311.61C233.803 312.092 234.161 312.545 234.515 312.998C234.702 313.238 234.96 313.409 235.258 313.216C235.614 312.984 235.573 312.664 235.35 312.347C234.938 311.762 234.525 311.177 234.192 310.704C234.631 310.201 235.04 309.732 235.449 309.263C235.892 308.755 236.302 308.229 236.46 307.549C236.741 306.343 236.188 305.61 234.95 305.516C233.909 305.437 232.921 305.661 232.064 306.202C231.34 306.658 231.011 306.428 230.593 305.817C229.73 304.556 228.794 303.345 227.887 302.114C227.661 302.323 227.287 302.336 227.152 302.667C227.192 303.131 227.531 303.43 227.778 303.775C228.474 304.748 229.17 305.721 229.896 306.671C230.21 307.081 230.254 307.361 229.825 307.743C228.847 308.611 228.198 309.673 228.303 311.082C227.791 310.939 227.414 310.647 226.965 310.864C224.808 312.216 222.652 313.568 220.497 314.919C220.163 315.184 219.8 315.421 219.498 315.721C218.765 316.451 218.788 316.991 219.627 317.588C220.904 318.497 222.246 319.317 223.505 320.252C224.673 321.12 225.986 321.828 226.87 323.043L226.87 323.043ZM233.354 309.563C232.945 309.011 232.573 308.513 232.207 308.011C232.023 307.759 231.917 307.493 232.266 307.293C233.02 306.86 233.839 306.574 234.698 306.507C235.353 306.457 235.611 306.94 235.312 307.549C234.9 308.386 234.28 309.037 233.354 309.563ZM232.372 310.175C231.68 310.625 231.053 310.789 230.389 310.821C230.069 310.836 229.684 310.904 229.511 310.556C229.356 310.242 229.502 309.915 229.686 309.624C230.015 309.107 230.397 308.645 230.968 308.273C231.529 308.847 231.933 309.459 232.372 310.175V310.175Z" fill="white"/>
<path d="M235.881 338.311C234.627 336.941 232.689 334.214 231.358 332.982C229.284 334.623 227.002 335.939 224.715 337.246C223.217 338.102 221.741 338.991 220.302 339.946C219.641 340.384 219.127 340.9 218.743 341.589C217.901 343.095 217.058 344.602 216.019 345.987C215.762 346.33 215.458 346.704 215.738 347.158C216.024 347.622 216.523 347.496 216.918 347.402C219.061 346.892 221.183 346.287 223.336 345.824C224.643 345.544 235.153 339.244 235.881 338.311H235.881Z" fill="white"/>
<path d="M219.653 293.114C220.131 293.214 220.412 292.993 220.562 292.558C217.09 287.332 213.617 282.107 210.05 276.74C211.511 276.581 211.861 275.668 211.964 274.526C212.032 273.768 212.244 273.024 212.204 272.253C211.722 271.832 211.384 272.082 211.08 272.493C211.096 273.305 210.951 274.097 210.792 274.889C210.692 275.384 210.536 275.718 209.956 275.35C209.8 275.252 209.603 275.21 209.418 275.171C208.532 274.983 208.337 274.148 207.997 273.523C207.79 273.142 208.411 272.866 208.62 272.517C208.862 272.112 209.143 271.731 209.407 271.339C209.436 271.201 209.464 271.062 209.494 270.923C209.971 268.746 208.809 267.676 206.639 268.231C206.042 268.383 205.606 269.053 204.884 268.767C204.603 268.459 204.255 268.252 203.886 268.532C203.645 268.716 203.679 269.053 203.847 269.323C204.081 269.697 203.862 269.923 203.612 270.166C203.023 270.737 202.512 271.374 202.21 272.143C201.538 273.86 202.09 274.869 203.902 275.288C204.036 275.319 204.165 275.375 204.339 275.434C204.332 276.15 204.193 276.858 204.351 277.566C204.739 279.302 206.385 279.882 207.725 278.699C208.182 278.294 208.51 277.742 208.983 277.149C212.55 282.485 216.101 287.8 219.653 293.114L219.653 293.114ZM206.57 270.111C206.45 269.688 206.535 269.347 207.012 269.261C207.467 269.178 207.989 269.045 208.356 269.395C208.801 269.819 208.576 270.346 208.374 270.83C208.075 271.408 207.819 272.019 207.188 272.337C206.606 271.528 206.4 270.787 206.57 270.111V270.111ZM206.936 274.218C208.554 276.167 208.434 275.879 207.23 277.653C207.204 277.692 207.166 277.723 207.134 277.758C206.825 278.094 206.45 278.305 205.996 278.161C205.529 278.012 205.41 277.573 205.33 277.148C205.045 275.631 205.393 275.004 206.936 274.218L206.936 274.218ZM203.889 274.157C203.195 274.126 202.863 273.695 203.075 272.994C203.296 272.26 203.701 271.613 204.242 271.059C204.371 270.927 204.5 270.741 204.704 270.815C204.95 270.905 205.078 271.144 205.027 271.389C204.854 272.224 204.65 273.053 204.454 273.883C204.38 274.201 204.115 274.143 203.889 274.157ZM205.701 273.52C205.59 273.163 205.666 272.88 205.994 272.698C206.014 272.687 206.134 272.806 206.171 272.883C206.409 273.375 205.963 273.373 205.701 273.52Z" fill="white"/>
<path d="M322.053 263.314C323.557 262.609 324.497 261.543 325.237 260.314C325.998 259.051 326.426 257.696 325.974 256.199C325.541 254.766 324.243 254.048 322.838 254.471C319.735 255.404 318.039 260.126 319.851 262.793C320.234 263.357 320.75 263.778 321.312 264.157C325.838 267.207 330.483 266.916 335.198 264.661C336.156 264.203 337.028 263.614 337.765 262.844C338.017 262.581 338.422 262.316 338.053 261.886C337.686 261.46 337.35 261.773 337.077 262.031C335.123 263.884 332.693 264.729 330.127 265.173C327.299 265.663 324.661 265.063 322.053 263.314H322.053ZM321.777 263.061C320.321 261.976 319.757 260.694 320.155 259.313C320.534 257.999 321.297 256.907 322.322 256.003C322.91 255.484 323.602 255.303 324.312 255.628C324.959 255.923 325.041 256.573 325.051 257.22C325.082 259.221 323.997 260.631 322.58 261.848C322.196 262.178 321.711 262.394 321.777 263.061H321.777Z" fill="white"/>
<path d="M296.487 278.854C296.92 278.757 297.537 278.662 298.128 278.482C304.73 276.464 310.757 273.328 316.175 269.051C317.184 268.254 318.03 267.252 318.96 266.353C319.221 266.1 319.461 265.782 319.21 265.484C318.913 265.13 318.521 265.285 318.208 265.576C318.138 265.641 318.07 265.709 318.006 265.78C314.871 269.248 310.935 271.582 306.852 273.727C303.465 275.506 300.001 277.07 296.242 277.892C296.102 277.922 295.964 277.961 295.825 277.996C295.573 278.059 295.382 278.182 295.403 278.477C295.431 278.878 295.727 278.886 296.023 278.885C296.119 278.884 296.214 278.873 296.487 278.854H296.487Z" fill="white"/>
<path d="M317.282 283.445C317.372 283.773 317.578 283.85 317.837 283.836C318.144 283.821 318.363 283.621 318.596 283.46C324.265 279.563 329.581 275.28 333.705 269.688C333.876 269.457 334.073 269.244 334.223 269.001C334.354 268.789 334.393 268.525 334.188 268.342C333.941 268.123 333.648 268.172 333.409 268.371C333.227 268.522 333.068 268.709 332.927 268.901C328.917 274.393 323.725 278.607 318.239 282.504C317.967 282.697 317.696 282.895 317.448 283.116C317.354 283.2 317.324 283.356 317.282 283.445V283.445Z" fill="white"/>
<path d="M239.052 298.685C238.263 300.933 239.207 303.617 241.473 304.995C242.98 305.912 244.385 307.002 246.136 307.448C243.876 304.444 241.519 301.52 239.052 298.685H239.052Z" fill="white"/>
<path d="M206.57 270.111C207.172 270.35 207.773 270.59 208.374 270.83C208.576 270.346 208.801 269.819 208.356 269.394C207.989 269.044 207.467 269.178 207.012 269.26C206.535 269.346 206.45 269.688 206.57 270.111V270.111Z" fill="white"/>
<path d="M263.123 276.463C262.097 277.956 260.703 279.056 258.866 279.805C256.779 280.655 254.614 281.259 252.459 281.897C246.314 283.717 240.015 284.946 233.859 286.722C233.026 286.963 232.479 286.705 232.106 285.965C231.688 286.183 231.27 286.402 230.852 286.62C231.058 287.285 231.606 287.709 232.022 288.215C233.925 290.524 235.69 292.946 237.717 295.152C239.237 293.979 244.524 290.98 245.477 290.788C245.027 291.204 244.635 291.552 244.26 291.917C242.514 293.618 240.717 295.277 239.636 297.525C239.793 297.76 239.933 298.009 240.109 298.228C242.532 301.236 244.943 304.254 247.395 307.237C248.297 308.335 249.056 309.56 250.175 310.472C250.215 310.43 250.253 310.385 250.288 310.338C250.132 309.678 250.563 309.26 250.929 308.827C252.78 306.638 254.638 304.456 256.494 302.271C254.583 301.098 252.672 299.925 250.632 298.672C251.495 297.924 252.429 297.724 253.324 297.562C256.649 296.958 259.787 295.769 262.903 294.531C266.407 293.139 269.571 291.161 272.361 288.611C273.576 287.501 274.548 286.214 275.297 284.736C277.105 281.167 276.805 277.779 274.684 274.574" fill="white"/>
<path d="M346.108 247.692C347.338 247.017 348.507 246.792 349.612 246.401C349.983 246.27 350.364 246.151 350.712 245.973C351.069 245.79 351.417 245.518 351.23 245.065C351.032 244.587 350.628 244.707 350.23 244.836C348.855 245.281 347.474 245.709 346.036 246.161C345.595 245.325 346.181 244.632 346.215 243.907C346.236 243.463 346.358 243.022 346.369 242.579C346.375 242.317 346.184 242.073 345.908 242.016C345.532 241.939 345.264 242.14 345.177 242.494C344.979 243.308 344.81 244.129 344.628 244.946C344.558 245.259 344.514 245.585 344.172 245.771C343.566 245.821 343.252 245.359 342.883 245.016C342.502 244.662 342.193 244.228 341.794 243.897C341.322 243.505 340.766 242.723 340.15 243.337C339.474 244.008 340.416 244.423 340.81 244.857C341.363 245.467 341.971 246.03 342.833 246.89C341.293 247.034 340.119 247.027 339 247.334C338.593 247.446 338.194 247.571 338.276 248.062C338.359 248.557 338.811 248.538 339.21 248.542C340.054 248.549 340.896 248.234 341.781 248.478C341.896 249.474 341.074 250.003 340.752 250.743C340.598 251.095 340.349 251.407 340.158 251.745C339.987 252.047 339.925 252.379 340.237 252.615C340.628 252.91 341.019 252.765 341.259 252.415C341.772 251.665 342.216 250.871 342.723 250.117C342.966 249.757 343.076 249.263 343.747 249.099C344.283 250.392 344.415 251.785 344.754 253.128C344.914 253.761 344.616 255.034 345.797 254.793C346.718 254.606 346.168 253.572 346.076 252.936C345.911 251.801 345.614 250.686 345.319 249.317C346.627 249.64 347.388 250.432 348.256 251.022C348.633 251.279 348.958 251.611 349.343 251.854C349.464 251.931 349.734 251.88 349.884 251.798C350.146 251.653 350.183 251.362 350.073 251.119C349.823 250.57 349.322 250.232 348.866 249.862C348.013 249.17 346.987 248.684 346.108 247.692L346.108 247.692Z" fill="white"/>
<path d="M349.871 276.882C350.987 276.219 352.049 275.999 353.051 275.615C353.388 275.486 353.734 275.369 354.05 275.195C354.373 275.016 354.689 274.748 354.519 274.304C354.34 273.835 353.973 273.953 353.612 274.079C352.364 274.516 351.111 274.935 349.806 275.38C349.406 274.56 349.937 273.88 349.968 273.168C349.988 272.732 350.099 272.3 350.108 271.865C350.114 271.608 349.94 271.368 349.69 271.313C349.349 271.237 349.105 271.434 349.027 271.782C348.847 272.58 348.694 273.385 348.528 274.188C348.465 274.494 348.425 274.815 348.115 274.997C347.564 275.046 347.28 274.592 346.945 274.256C346.599 273.908 346.319 273.483 345.957 273.158C345.529 272.774 345.024 272.006 344.464 272.608C343.852 273.267 344.707 273.674 345.064 274.1C345.565 274.699 346.117 275.251 346.9 276.094C345.502 276.236 344.436 276.229 343.421 276.53C343.052 276.64 342.69 276.763 342.764 277.245C342.839 277.73 343.249 277.712 343.612 277.715C344.378 277.722 345.142 277.413 345.945 277.652C346.05 278.63 345.304 279.149 345.011 279.875C344.871 280.22 344.645 280.526 344.472 280.858C344.317 281.154 344.26 281.48 344.544 281.712C344.898 282.001 345.254 281.859 345.472 281.515C345.937 280.78 346.34 280 346.8 279.261C347.02 278.907 347.12 278.422 347.729 278.262C348.215 279.53 348.335 280.897 348.643 282.215C348.788 282.836 348.517 284.085 349.59 283.849C350.425 283.665 349.926 282.65 349.843 282.026C349.693 280.913 349.423 279.819 349.155 278.476C350.342 278.793 351.033 279.569 351.821 280.149C352.163 280.401 352.458 280.727 352.807 280.965C352.917 281.04 353.162 280.99 353.298 280.909C353.536 280.767 353.57 280.482 353.469 280.244C353.243 279.705 352.788 279.374 352.374 279.011C351.6 278.331 350.67 277.855 349.872 276.882H349.871Z" fill="white"/>
</g>
<defs>
<clipPath id="clip0_559_158">
<rect width="168.567" height="114.806" fill="white" transform="translate(1084 127)"/>
</clipPath>
<clipPath id="clip1_559_158">
<rect width="168.567" height="114.806" fill="white" transform="matrix(-1 0 0 1 354.567 242)"/>
</clipPath>
</defs>
</svg>
