<svg width="165" height="165" viewBox="0 0 165 165" fill="none" xmlns="http://www.w3.org/2000/svg">
<path d="M82.5 0C60.4631 0 39.7455 8.57767 24.1635 24.1528C8.58139 39.7278 0 60.4359 0 82.4622C0 104.489 8.58139 125.197 24.1635 140.772C39.7457 156.347 60.4633 164.925 82.5 164.925C104.537 164.925 125.254 156.347 140.836 140.772C156.418 125.197 165 104.489 165 82.4622C165 60.4357 156.418 39.7278 140.836 24.1527C125.254 8.57768 104.537 0 82.5 0ZM134.719 134.657C120.77 148.599 102.225 156.277 82.5 156.277C62.7747 156.277 44.2293 148.599 30.2811 134.657C16.333 120.715 8.65153 102.179 8.65153 82.4622C8.65153 62.7457 16.333 44.2093 30.2811 30.2676C44.2291 16.3256 62.7741 8.64759 82.5 8.64759C102.226 8.64759 120.771 16.3256 134.719 30.2676C148.667 44.2093 156.348 62.7457 156.348 82.4622C156.348 102.179 148.667 120.715 134.719 134.657Z" fill="#70C6DF"/>
<path d="M105.786 43.2429V35.5242C105.786 31.0219 102.121 27.3591 97.617 27.3591H88.6602C84.1558 27.3591 80.4914 31.0219 80.4914 35.5242V43.6613L73.193 57.3643C71.6062 60.344 70.7675 63.7027 70.7675 67.0779V74.1675C70.7675 75.8812 71.2994 77.4724 72.2054 78.7871C71.2932 80.3288 70.7675 82.1248 70.7675 84.042V90.3863C70.7675 92.6362 71.4912 94.7191 72.715 96.4195C71.4912 98.1199 70.7675 100.203 70.7675 102.453V108.797C70.7675 111.047 71.4912 113.13 72.715 114.83C71.4912 116.531 70.7675 118.614 70.7675 120.864V127.208C70.7675 132.919 75.4156 137.565 81.1292 137.565H105.371C111.084 137.565 115.733 132.919 115.733 127.208V120.864C115.733 118.614 115.009 116.531 113.785 114.83C115.009 113.13 115.733 111.047 115.733 108.797V102.453C115.733 100.203 115.009 98.1199 113.785 96.4195C115.009 94.7191 115.733 92.6362 115.733 90.3863V84.042C115.733 82.1248 115.207 80.3288 114.295 78.7871C115.201 77.4724 115.733 75.8812 115.733 74.1675V67.0779C115.733 63.7023 114.894 60.3434 113.307 57.3643L105.786 43.2429ZM89.1429 36.0067H97.1343V39.9976H89.1429V36.0067ZM79.419 67.0779C79.419 65.1148 79.9069 63.1611 80.8299 61.4281L87.6379 48.6456H98.8621L105.67 61.4283C106.593 63.1609 107.081 65.1146 107.081 67.0779V73.685H79.419V67.0779ZM107.081 102.453V108.797C107.081 109.74 106.314 110.507 105.371 110.507H81.1292C80.1863 110.507 79.419 109.74 79.419 108.797V102.453C79.419 101.51 80.1863 100.743 81.1292 100.743H105.371C106.314 100.743 107.081 101.51 107.081 102.453ZM81.1292 92.0957C80.1863 92.0957 79.419 91.3288 79.419 90.3863V84.042C79.419 83.0995 80.1863 82.3326 81.1292 82.3326H105.371C106.314 82.3326 107.081 83.0995 107.081 84.042V90.3863C107.081 91.3288 106.314 92.0957 105.371 92.0957H81.1292ZM107.081 127.208C107.081 128.15 106.314 128.917 105.371 128.917H81.1292C80.1863 128.917 79.419 128.15 79.419 127.208V120.864C79.419 119.921 80.1863 119.154 81.1292 119.154H105.371C106.314 119.154 107.081 119.921 107.081 120.864V127.208Z" fill="#70C6DF"/>
<path d="M56.0973 78.1387H36.4834C34.0943 78.1387 32.1576 80.0745 32.1576 82.4625C32.1576 84.8504 34.0943 86.7863 36.4834 86.7863H56.0973C58.4863 86.7863 60.423 84.8504 60.423 82.4625C60.423 80.0745 58.4863 78.1387 56.0973 78.1387Z" fill="#70C6DF"/>
</svg>
