<svg width="165" height="165" viewBox="0 0 165 165" fill="none" xmlns="http://www.w3.org/2000/svg">
<g clip-path="url(#clip0_425_22)">
<path d="M140.836 24.1637C125.254 8.58159 104.536 0 82.5 0C60.4639 0 39.7459 8.58159 24.1637 24.1637C8.58158 39.746 0 60.4635 0 82.5001C0 104.537 8.58158 125.254 24.1637 140.836C39.7459 156.418 60.4635 165 82.5 165C104.537 165 125.254 156.419 140.837 140.836C156.419 125.254 165 104.537 165 82.5001C165 60.4635 156.419 39.746 140.836 24.1637ZM134.719 134.719C120.77 148.667 102.225 156.348 82.5 156.348C62.7747 156.348 44.2295 148.667 30.2813 134.719C16.333 120.771 8.65153 102.226 8.65153 82.5001C8.65153 62.7744 16.333 44.2295 30.2813 30.2814C44.2295 16.333 62.7745 8.65154 82.5 8.65154C102.226 8.65154 120.77 16.3332 134.719 30.2814C148.667 44.2295 156.348 62.7746 156.348 82.5001C156.348 102.226 148.667 120.771 134.719 134.719Z" fill="#70C6DF"/>
<path d="M152.983 83.2008L124.757 34.3119C123.563 32.2433 120.918 31.5336 118.848 32.7286C116.779 33.923 116.07 36.5687 117.265 38.6376L118.422 40.641C116.567 41.1442 115.61 41.0533 115.364 41.0145C115.242 40.9618 115.117 40.9147 114.991 40.8732C104.418 37.4283 94.1585 37.3051 93.1275 37.3016C83.4211 37.0457 75.6757 37.7104 70.1076 39.2793C65.782 40.4981 63.9154 41.9464 63.1743 42.7272C62.5169 43.4133 61.8806 44.0914 61.2657 44.7586C55.7191 44.5574 50.2217 42.0407 46.8576 40.166L47.7351 38.6461C48.9297 36.5771 48.2208 33.9315 46.1518 32.7371C44.0832 31.5424 41.437 32.2514 40.2428 34.3203L37.2926 39.4302C37.2827 39.447 37.2731 39.4638 37.2634 39.4807L12.0168 83.2092C10.8222 85.2782 11.5311 87.9238 13.6001 89.1183C14.2813 89.5116 15.025 89.6987 15.7589 89.6987C17.2539 89.6987 18.7081 88.9228 19.5091 87.535L21.0209 84.9165C21.6294 85.682 22.3184 86.5361 23.092 87.4794C21.8933 89.0035 19.5476 92.5514 19.74 96.7842C19.8732 99.7175 21.1959 102.392 23.5649 104.518C25.3207 106.094 27.0702 106.994 28.7051 107.439C28.9108 110.198 30.1259 113.206 33.3144 115.708C35.92 117.754 38.4112 118.535 40.5923 118.548C41.3631 120.149 42.6855 121.919 44.9385 123.526C47.6859 125.486 50.3618 126.011 52.7238 125.709C53.7026 127.636 55.4079 129.526 58.1225 131.108C60.253 132.35 62.254 132.846 64.05 132.846C67.6486 132.846 70.4216 130.855 71.7453 128.889L72.9487 127.14C78.7289 129.986 84.5681 131.479 89.7639 131.479C92.1897 131.479 94.4764 131.153 96.5497 130.489C99.9606 129.396 102.721 127.417 104.676 124.692C104.803 124.696 104.932 124.697 105.064 124.697C107.155 124.697 109.771 124.256 112.144 122.572C114.636 120.804 115.98 118.279 116.681 115.775C118.459 115.614 120.498 115.071 122.409 113.72C124.698 112.103 126.28 109.73 127.141 106.638C130.428 106.495 133.96 105.004 136.106 100.929C137.944 97.4323 137.798 94.1147 136.913 91.4489C139.019 90.0398 141.745 88.0181 144.328 85.512L145.491 87.5266C146.292 88.9143 147.746 89.6902 149.241 89.6902C149.975 89.6902 150.719 89.5032 151.4 89.1098C153.469 87.9154 154.178 85.2697 152.983 83.2008ZM31.2146 99.1527C30.8114 99.098 30.1779 98.8281 29.3435 98.0793C28.368 97.2037 28.1679 96.4481 28.5796 95.1918C28.9633 94.0199 29.7809 92.9381 30.0815 92.5984C30.3444 92.3227 30.5228 92.0626 30.7051 91.726C30.7096 91.7177 31.2545 90.8153 32.0652 90.1887C32.8859 89.5541 33.4555 89.5069 34.41 89.996C35.7225 90.6687 36.3789 91.2957 36.6758 91.7095L31.2146 99.1527ZM37.3319 106.499C37.3415 105.852 37.5388 105.281 37.6529 105.003L44.5472 95.6063L48.6613 90.4764C49.2419 90.0887 50.1377 89.8735 51.3527 90.651C53.884 92.2707 53.4502 93.3414 53.2048 93.767L40.778 109.865C40.5264 109.978 39.7545 109.765 38.6562 108.903C37.4647 107.967 37.3225 107.127 37.3319 106.499H37.3319ZM53.2262 116.016C53.1623 116.095 53.1008 116.177 53.0419 116.262C51.7679 117.771 50.5049 116.87 49.9636 116.483C48.7427 115.612 48.3478 114.853 48.2299 114.37L58.9656 100.463C59.44 100.561 60.022 100.784 60.6291 101.264C62.6568 102.867 62.4047 103.625 61.9302 104.279C61.7978 104.435 61.6723 104.596 61.5616 104.768L53.2262 116.016ZM64.6363 123.95C64.5905 123.995 64.4954 124.079 64.3738 124.136C63.8402 124.383 62.7892 123.815 62.4795 123.634C61.7266 123.195 60.0781 122.097 60.296 121.006L67.2266 111.654C67.6796 111.889 68.2604 112.221 68.9892 112.688C70.408 113.598 71.034 114.447 70.9283 114.817L64.6544 123.932C64.6493 123.937 64.643 123.943 64.6363 123.95ZM128.45 96.9C127.995 97.7623 127.544 97.9553 126.919 97.9973C126.336 98.0357 125.736 97.9016 125.398 97.7994L100.682 83.2662C98.6227 82.0553 95.9714 82.7428 94.7605 84.8025C93.5496 86.8619 94.2373 89.513 96.2968 90.7239L118.884 104.006C118.577 105.261 118.087 106.166 117.444 106.635C116.533 107.3 115.214 107.209 114.576 107.113L93.1882 95.1397C91.1035 93.9724 88.4673 94.7167 87.3004 96.8011C86.1335 98.8858 86.8774 101.522 88.9619 102.689L108.333 113.533C108.101 114.338 107.735 115.082 107.16 115.501C106.191 116.206 104.587 116.078 103.821 115.929L85.794 107.392C83.6358 106.37 81.0556 107.292 80.0331 109.451C79.0106 111.61 79.9321 114.189 82.0915 115.212L95.5016 121.562C95.0195 121.835 94.4891 122.064 93.9097 122.25C89.8804 123.541 83.9129 122.62 77.9215 119.916L78.1545 119.577C78.5406 119.016 80.1141 116.459 79.4283 112.972C78.8505 110.034 76.909 107.488 73.6576 105.404C72.6797 104.777 71.7718 104.256 70.9206 103.832C71.064 100.494 69.3867 97.1589 65.9948 94.4771C64.6454 93.4102 63.2879 92.7381 62.0172 92.3278C61.9901 91.9559 61.9408 91.5727 61.8653 91.1802C61.459 89.0619 60.1145 85.9865 56.0158 83.3639C50.1475 79.6083 44.69 82.2964 42.6247 84.2421C42.4784 84.3799 42.3418 84.5278 42.2161 84.6846L42.0852 84.8478C41.1075 83.9451 39.8836 83.0798 38.3566 82.297C35.0976 80.6266 32.0912 80.7354 29.5746 81.7403C27.8092 79.5815 26.549 77.9621 25.692 76.8261L42.53 47.6615C45.4961 49.3202 49.8409 51.3816 54.7507 52.5347C49.9389 59.0188 47.8036 64.2986 48.2538 68.5577C48.5852 71.693 50.2326 73.2823 50.892 73.8H50.8918C52.8141 75.3047 55.089 76.0804 57.5413 76.0804C58.0363 76.0804 58.5385 76.0488 59.0466 75.9851C63.0823 75.4798 67.5555 72.94 72.3422 68.4365C74.5204 66.3871 76.2656 64.396 77.2299 63.2409L81.1595 61.8167C98.2374 69.7824 124.918 90.3617 127.844 92.6354C127.893 92.6951 127.943 92.7525 127.995 92.8091C128.562 93.5162 129.43 95.035 128.45 96.9ZM131.587 84.5959C128.681 82.3677 122.648 77.8072 115.509 72.7854C101.948 63.2467 91.032 56.652 83.0633 53.1845C83.0501 53.1787 83.0367 53.1739 83.0236 53.1683C82.9874 53.1531 82.9513 53.1386 82.9147 53.1243C82.8839 53.1122 82.8528 53.1 82.8218 53.0887C82.7874 53.076 82.7526 53.0643 82.7178 53.0525C82.6839 53.041 82.6501 53.0295 82.6161 53.019C82.5846 53.0092 82.5532 53.0004 82.5216 52.9914C82.484 52.9807 82.4467 52.9699 82.4092 52.9602C82.3805 52.9529 82.3514 52.9464 82.3225 52.9396C82.2824 52.9302 82.2422 52.9206 82.2019 52.9123C82.1742 52.9067 82.1463 52.902 82.1186 52.8969C82.0771 52.8892 82.0359 52.8814 81.9944 52.875C81.9651 52.8705 81.9355 52.8671 81.906 52.8632C81.8665 52.8579 81.827 52.8523 81.7873 52.8482C81.7529 52.8445 81.7183 52.8422 81.6838 52.8394C81.649 52.8367 81.6144 52.8333 81.5798 52.8314C81.5384 52.8291 81.4967 52.8282 81.4551 52.8271C81.4276 52.8264 81.4 52.825 81.3725 52.8248C81.3234 52.8244 81.2743 52.8256 81.225 52.8269C81.2051 52.8275 81.1851 52.8274 81.1652 52.8282C81.1118 52.8303 81.0582 52.8341 81.0047 52.8383C80.9888 52.8395 80.9729 52.8403 80.957 52.8417C80.9029 52.8465 80.8489 52.8529 80.7949 52.8598C80.7794 52.8618 80.7636 52.8633 80.7481 52.8655C80.696 52.8727 80.6442 52.8815 80.5921 52.8906C80.5744 52.8937 80.5567 52.8964 80.5391 52.8998C80.4905 52.9089 80.4418 52.9196 80.3933 52.9305C80.3722 52.9352 80.351 52.9396 80.33 52.9447C80.285 52.9556 80.2402 52.9676 80.1952 52.9799C80.1709 52.9866 80.1465 52.9931 80.1223 53.0003C80.0801 53.0126 80.0378 53.0261 79.9958 53.0399C79.9697 53.0484 79.9437 53.0568 79.918 53.0658C79.8997 53.0722 79.8814 53.0775 79.8634 53.0841L73.1539 55.5157C72.3821 55.7955 71.7058 56.2891 71.2042 56.9389C68.7483 60.1191 62.2827 66.8609 57.9714 67.4008C57.4944 67.4605 57.1407 67.424 56.8603 67.3354C56.9246 66.0191 57.8787 61.5081 66.4226 51.947C67.3046 50.9599 68.2608 49.9268 69.2672 48.8734C69.9036 48.4636 75.1825 45.4776 92.9511 45.9515C92.99 45.9525 93.0369 45.9537 93.0721 45.9531C93.167 45.9531 102.582 45.9865 112.045 49.0135C113.645 49.7172 117.012 50.4098 122.847 48.306L139.83 77.7216C137.141 80.7306 133.809 83.1499 131.587 84.5959V84.5959Z" fill="#70C6DF"/>
</g>
<defs>
<clipPath id="clip0_425_22">
<rect width="165" height="165" fill="white"/>
</clipPath>
</defs>
</svg>
