<svg width="165" height="165" viewBox="0 0 165 165" fill="none" xmlns="http://www.w3.org/2000/svg">
<path d="M140.836 24.1637C125.254 8.58159 104.536 0 82.5001 0C60.4639 0 39.7458 8.58159 24.1635 24.1637C8.5814 39.7458 0 60.4633 0 82.5001C0 104.537 8.5814 125.254 24.1635 140.836C39.7458 156.418 60.4635 165 82.5001 165C104.537 165 125.254 156.419 140.837 140.836C156.419 125.254 165 104.537 165 82.5001C165 60.4633 156.419 39.7458 140.836 24.1637ZM134.719 134.719C120.77 148.667 102.225 156.348 82.5001 156.348C62.7748 156.348 44.2293 148.667 30.2812 134.719C16.333 120.771 8.65154 102.226 8.65154 82.5001C8.65154 62.7744 16.333 44.2293 30.2812 30.2814C44.2293 16.333 62.7744 8.65154 82.5001 8.65154C102.226 8.65154 120.77 16.3332 134.719 30.2814C148.667 44.2293 156.348 62.7744 156.348 82.5001C156.348 102.226 148.667 120.771 134.719 134.719Z" fill="#70C6DF"/>
<path d="M118.912 78.3929C118.912 76.0039 116.975 74.0671 114.586 74.0671C112.197 74.0671 110.261 76.0039 110.261 78.3929C110.261 93.7001 97.8073 106.154 82.5001 106.154C67.1929 106.154 54.7394 93.7001 54.7394 78.3929C54.7394 76.0039 52.8027 74.0671 50.4137 74.0671C48.0246 74.0671 46.0879 76.0039 46.0879 78.3929C46.0879 97.007 60.1283 112.401 78.1744 114.547V120.405H70.6832C62.9288 120.405 56.6202 126.714 56.6202 134.468C56.6202 139.261 60.5194 143.16 65.3122 143.16H99.6879C104.481 143.16 108.38 139.261 108.38 134.468C108.38 126.714 102.071 120.405 94.3168 120.405H86.8259V114.547C104.872 112.401 118.912 97.007 118.912 78.3929ZM99.7284 134.468C99.7284 134.491 99.7103 134.509 99.6879 134.509H65.3122C65.2898 134.509 65.2717 134.491 65.2717 134.468C65.2717 131.484 67.6993 129.057 70.6832 129.057H94.3168C97.3008 129.057 99.7284 131.484 99.7284 134.468Z" fill="#70C6DF"/>
<path d="M81.3683 100.479H83.6316C95.0748 100.479 104.384 91.1696 104.384 79.7265V42.5923C104.384 31.1492 95.0748 21.8396 83.6316 21.8396H81.3683C69.9252 21.8396 60.6156 31.1492 60.6156 42.5923V79.7265C60.6156 91.1696 69.9252 100.479 81.3683 100.479ZM81.3683 30.4911H83.6316C90.3042 30.4911 95.7328 35.9198 95.7328 42.5923V42.7538H92.4015C90.0124 42.7538 88.0757 44.6906 88.0757 47.0796C88.0757 49.4687 90.0124 51.4054 92.4015 51.4054H95.7328V56.8336H92.4015C90.0124 56.8336 88.0757 58.7704 88.0757 61.1594C88.0757 63.5484 90.0124 65.4852 92.4015 65.4852H95.7328V70.9136H92.4015C90.0124 70.9136 88.0757 72.8503 88.0757 75.2394C88.0757 77.6284 90.0124 79.5652 92.4015 79.5652H95.7328V79.7265C95.7328 86.399 90.3042 91.8277 83.6316 91.8277H81.3683C74.6958 91.8277 69.2671 86.399 69.2671 79.7265V79.5652H72.5985C74.9876 79.5652 76.9243 77.6284 76.9243 75.2394C76.9243 72.8503 74.9876 70.9136 72.5985 70.9136H69.2671V65.4852H72.5985C74.9876 65.4852 76.9243 63.5484 76.9243 61.1594C76.9243 58.7704 74.9876 56.8336 72.5985 56.8336H69.2671V51.4054H72.5985C74.9876 51.4054 76.9243 49.4687 76.9243 47.0796C76.9243 44.6906 74.9876 42.7538 72.5985 42.7538H69.2671V42.5923C69.2671 35.9198 74.6958 30.4911 81.3683 30.4911Z" fill="#70C6DF"/>
</svg>
