<svg width="165" height="165" viewBox="0 0 165 165" fill="none" xmlns="http://www.w3.org/2000/svg">
<path d="M140.837 24.1527C125.254 8.57768 104.536 0 82.5 0C60.4637 0 39.7457 8.57768 24.1637 24.1527C8.58158 39.7278 0 60.4359 0 82.4622C0 104.489 8.58158 125.197 24.1637 140.772C39.7459 156.347 60.4635 164.925 82.5 164.925C104.537 164.925 125.254 156.347 140.837 140.772C156.419 125.197 165 104.489 165 82.4622C165 60.4357 156.419 39.7278 140.837 24.1527ZM134.719 134.657C120.77 148.599 102.225 156.277 82.5 156.277C62.7747 156.277 44.2295 148.599 30.2813 134.657C16.333 120.715 8.65153 102.179 8.65153 82.4622C8.65153 62.7457 16.333 44.2093 30.2813 30.2676C44.2293 16.3256 62.7743 8.64759 82.5 8.64759C102.226 8.64759 120.771 16.3258 134.719 30.2676C148.667 44.2093 156.348 62.7457 156.348 82.4622C156.348 102.179 148.667 120.715 134.719 134.657Z" fill="#70C6DF"/>
<path d="M131.263 81.9689L125.053 71.2178L117.561 75.5412L123.77 86.2927C127.268 92.3487 127.269 99.5799 123.771 105.636C120.272 111.693 114.006 115.31 107.009 115.31H103.414L106.841 111.528L100.429 105.723L87.823 119.634L100.429 133.543L106.841 127.737L103.415 123.957H107.009C117.134 123.957 126.201 118.725 131.263 109.96C136.325 101.196 136.325 90.7318 131.263 81.9689V81.9689Z" fill="#70C6DF"/>
<path d="M46.3358 105.638C42.8374 99.5808 42.8372 92.349 46.3352 86.2928L47.6684 83.9849L49.2313 88.8422L57.4675 86.1944L51.718 68.3271L33.3638 72.2847L35.1879 80.7378L40.175 79.6625L38.8427 81.9688C33.7809 90.7329 33.7811 101.197 38.8435 109.961C43.9057 118.725 52.9722 123.957 63.0963 123.957H76.447V115.31H63.0963C56.0998 115.31 49.8341 111.694 46.3358 105.638Z" fill="#70C6DF"/>
<path d="M101.815 48.2802L104.077 52.197L99.0887 51.1214L97.2646 59.5746L115.619 63.5321L121.368 45.6646L113.132 43.0169L111.569 47.8737L109.307 43.9562C104.244 35.1922 95.1769 29.9603 85.052 29.9604C74.9278 29.9608 65.8617 35.193 60.8001 43.9564L53.6599 56.3178L61.1526 60.6416L68.2926 48.2802C71.7904 42.224 78.0558 38.6084 85.0524 38.608C92.0495 38.6078 98.3157 42.2236 101.815 48.2802Z" fill="#70C6DF"/>
</svg>
