<svg width="165" height="164" viewBox="0 0 165 164" fill="none" xmlns="http://www.w3.org/2000/svg">
<path d="M82.5 0C60.4631 0 39.7455 8.52567 24.1637 24.0062C8.58158 39.4869 0 60.0695 0 81.9622C0 103.855 8.58158 124.438 24.1637 139.918C39.7457 155.399 60.4633 163.925 82.5 163.925C104.537 163.925 125.254 155.399 140.836 139.918C156.418 124.438 165 103.855 165 81.9622C165 60.0693 156.418 39.4869 140.836 24.0062C125.254 8.52567 104.537 0 82.5 0ZM134.719 133.841C120.77 147.698 102.225 155.329 82.5 155.329C62.7747 155.329 44.2293 147.698 30.2813 133.841C16.333 119.983 8.65153 101.559 8.65153 81.9622C8.65153 62.3653 16.333 43.9413 30.2813 30.0838C44.2291 16.2266 62.7741 8.59516 82.5 8.59516C102.226 8.59516 120.771 16.2266 134.719 30.084C148.667 43.9413 156.348 62.3653 156.348 81.9622C156.348 101.559 148.667 119.983 134.719 133.841Z" fill="#70C6DF"/>
<path d="M106.552 53.5946V50.0845C106.552 45.8607 103.093 42.4243 98.8414 42.4243H38.553C34.3015 42.4243 30.8427 45.8607 30.8427 50.0845V101.652C30.8427 105.876 34.3015 109.312 38.553 109.312H44.4587C46.3668 116.324 52.8232 121.5 60.4766 121.5C68.13 121.5 74.5864 116.324 76.4944 109.312H98.4762C100.384 116.324 106.841 121.5 114.494 121.5C122.147 121.5 128.604 116.324 130.512 109.312H131.009C135.261 109.312 138.72 105.876 138.72 101.652V61.2547C138.72 57.0309 135.261 53.5946 131.009 53.5946H106.552ZM60.4766 112.905C56.0974 112.905 52.5347 109.366 52.5347 105.015C52.5347 100.664 56.0974 97.1248 60.4766 97.1248C64.8558 97.1248 68.4184 100.664 68.4184 105.015C68.4184 109.366 64.8558 112.905 60.4766 112.905ZM60.4766 88.5296C52.8235 88.5296 46.3673 93.7049 44.4589 100.717H39.4942V51.0195H97.9003V100.717H76.4943C74.5859 93.7049 68.1297 88.5296 60.4766 88.5296ZM114.494 112.905C110.115 112.905 106.552 109.366 106.552 105.015C106.552 100.664 110.115 97.1248 114.494 97.1248C118.873 97.1248 122.436 100.664 122.436 105.015C122.436 109.366 118.873 112.905 114.494 112.905ZM114.494 88.5296C111.619 88.5296 108.912 89.2609 106.552 90.5447V62.1897H130.068V99.3258C127.731 93.0307 121.632 88.5296 114.494 88.5296Z" fill="#70C6DF"/>
</svg>
